<?xml version="1.0" encoding="UTF-8" standalone="no"?>
<svg width="131.939mm" height="88.5472mm"
 viewBox="0 0 374 251"
 xmlns="http://www.w3.org/2000/svg" xmlns:xlink="http://www.w3.org/1999/xlink"  version="1.2" baseProfile="tiny">
<title>Qt SVG Document</title>
<desc>MATLAB, The MathWorks, Inc. Version 25.1.0.2943329 R2025a</desc>
<defs>
</defs>
<g fill="none" stroke="black" stroke-width="1" fill-rule="evenodd" stroke-linecap="square" stroke-linejoin="bevel" >

<g fill="#ffffff" fill-opacity="1" stroke="none" transform="matrix(0.5,0,0,0.5,-17.5232,-5)"
font-family=".AppleSystemUIFont" font-size="13" font-weight="400" font-style="normal" 
>
<path vector-effect="none" fill-rule="evenodd" d="M34,8 L783,8 L783,511 L34,511 L34,8"/>
</g>

<g fill="#ffffff" fill-opacity="1" stroke="none" transform="matrix(5e-05,0,0,5e-05,-17.5232,-5)"
font-family=".AppleSystemUIFont" font-size="13" font-weight="400" font-style="normal" 
>
<path vector-effect="none" fill-rule="evenodd" d="M1.11e+06,380000 L1.11e+06,4.49e+06 L7.7e+06,4.49e+06 L7.7e+06,380000 L1.11e+06,380000"/>
</g>

<g fill="#1f1f1f" fill-opacity="1" stroke="#1f1f1f" stroke-opacity="1" stroke-width="1" stroke-linecap="square" stroke-linejoin="bevel" transform="matrix(0.5,0,0,0.5,101.227,10)"
font-family="Arial" font-size="24" font-weight="700" font-style="normal" 
>
<text fill="#1f1f1f" fill-opacity="1" stroke="none" xml:space="preserve" x="0" y="-0.28125" font-family="Arial" font-size="24" font-weight="700" font-style="normal" 
 >Line Chart With Confidence Interval</text>
</g>

<g fill="#0d528a" fill-opacity="0.180392" stroke="none" transform="matrix(5e-05,0,0,5e-05,-17.5232,-5)"
font-family="Arial" font-size="24" font-weight="700" font-style="normal" 
>
<path vector-effect="none" fill-rule="evenodd" d="M4.30515e+06,4.10974e+06 L4.37172e+06,4.09241e+06 L4.43828e+06,4.06332e+06 L4.50485e+06,4.02279e+06 L4.57141e+06,3.97121e+06 L4.63798e+06,3.90912e+06 L4.70455e+06,3.83715e+06 L4.77111e+06,3.75604e+06 L4.83768e+06,3.6666e+06 L4.90424e+06,3.56976e+06 L4.97081e+06,3.4665e+06 L5.03737e+06,3.35787e+06 L5.10394e+06,3.24497e+06 L5.17051e+06,3.12897e+06 L5.23707e+06,3.01105e+06 L5.30364e+06,2.89239e+06 L5.3702e+06,2.77422e+06 L5.43677e+06,2.65774e+06 L5.50333e+06,2.54414e+06 L5.5699e+06,2.43458e+06 L5.63646e+06,2.33016e+06 L5.70303e+06,2.23196e+06 L5.7696e+06,2.14098e+06 L5.83616e+06,2.05814e+06 L5.90273e+06,1.9843e+06 L5.96929e+06,1.92019e+06 L6.03586e+06,1.86648e+06 L6.10242e+06,1.82372e+06 L6.16899e+06,1.79233e+06 L6.23556e+06,1.77264e+06 L6.30212e+06,1.76485e+06 L6.36869e+06,1.76905e+06 L6.43525e+06,1.78517e+06 L6.50182e+06,1.81307e+06 L6.56838e+06,1.85246e+06 L6.63495e+06,1.90294e+06 L6.70152e+06,1.96398e+06 L6.76808e+06,2.03498e+06 L6.83465e+06,2.1152e+06 L6.90121e+06,2.20383e+06 L6.96778e+06,2.29996e+06 L7.03434e+06,2.40262e+06 L7.10091e+06,2.51075e+06 L7.16748e+06,2.62326e+06 L7.23404e+06,2.739e+06 L7.30061e+06,2.85679e+06 L7.36717e+06,2.97542e+06 L7.43374e+06,3.09369e+06 L7.5003e+06,3.2104e+06 L7.56687e+06,3.32435e+06 L7.63343e+06,3.43438e+06 L7.7e+06,3.53937e+06 L7.7e+06,3.19545e+06 L7.63343e+06,3.09521e+06 L7.56687e+06,2.98908e+06 L7.5003e+06,2.87814e+06 L7.43374e+06,2.76352e+06 L7.36717e+06,2.64639e+06 L7.30061e+06,2.52794e+06 L7.23404e+06,2.40938e+06 L7.16748e+06,2.29193e+06 L7.10091e+06,2.17676e+06 L7.03434e+06,2.06507e+06 L6.96778e+06,1.95799e+06 L6.90121e+06,1.85661e+06 L6.83465e+06,1.76196e+06 L6.76808e+06,1.67501e+06 L6.70152e+06,1.59665e+06 L6.63495e+06,1.52767e+06 L6.56838e+06,1.46878e+06 L6.50182e+06,1.42058e+06 L6.43525e+06,1.38356e+06 L6.36869e+06,1.35809e+06 L6.30212e+06,1.34444e+06 L6.23556e+06,1.34275e+06 L6.16899e+06,1.35302e+06 L6.10242e+06,1.37517e+06 L6.03586e+06,1.40896e+06 L5.96929e+06,1.45405e+06 L5.90273e+06,1.50997e+06 L5.83616e+06,1.57616e+06 L5.7696e+06,1.65195e+06 L5.70303e+06,1.73656e+06 L5.63646e+06,1.82912e+06 L5.5699e+06,1.9287e+06 L5.50333e+06,2.03428e+06 L5.43677e+06,2.14478e+06 L5.3702e+06,2.25908e+06 L5.30364e+06,2.37601e+06 L5.23707e+06,2.49438e+06 L5.17051e+06,2.61298e+06 L5.10394e+06,2.73061e+06 L5.03737e+06,2.84606e+06 L4.97081e+06,2.95815e+06 L4.90424e+06,3.06576e+06 L4.83768e+06,3.16777e+06 L4.77111e+06,3.26314e+06 L4.70455e+06,3.35092e+06 L4.63798e+06,3.43019e+06 L4.57141e+06,3.50016e+06 L4.50485e+06,3.5601e+06 L4.43828e+06,3.60942e+06 L4.37172e+06,3.6476e+06 L4.30515e+06,3.67425e+06 L4.23859e+06,3.68912e+06 L4.17202e+06,3.69203e+06 L4.10545e+06,3.68297e+06 L4.03889e+06,3.66202e+06 L3.97232e+06,3.6294e+06 L3.90576e+06,3.58545e+06 L3.83919e+06,3.5306e+06 L3.77263e+06,3.46542e+06 L3.70606e+06,3.39058e+06 L3.6395e+06,3.30683e+06 L3.57293e+06,3.21504e+06 L3.50636e+06,3.11612e+06 L3.4398e+06,3.01111e+06 L3.37323e+06,2.90106e+06 L3.30667e+06,2.78709e+06 L3.2401e+06,2.67038e+06 L3.17354e+06,2.5521e+06 L3.10697e+06,2.43346e+06 L3.0404e+06,2.31568e+06 L2.97384e+06,2.19996e+06 L2.90727e+06,2.08747e+06 L2.84071e+06,1.97936e+06 L2.77414e+06,1.87673e+06 L2.70758e+06,1.78063e+06 L2.64101e+06,1.69204e+06 L2.57444e+06,1.61186e+06 L2.50788e+06,1.54092e+06 L2.44131e+06,1.47992e+06 L2.37475e+06,1.4295e+06 L2.30818e+06,1.39017e+06 L2.24162e+06,1.36232e+06 L2.17505e+06,1.34625e+06 L2.10848e+06,1.34212e+06 L2.04192e+06,1.34997e+06 L1.97535e+06,1.36971e+06 L1.90879e+06,1.40115e+06 L1.84222e+06,1.44397e+06 L1.77566e+06,1.49774e+06 L1.70909e+06,1.56189e+06 L1.64253e+06,1.63578e+06 L1.57596e+06,1.71866e+06 L1.50939e+06,1.80968e+06 L1.44283e+06,1.90791e+06 L1.37626e+06,2.01236e+06 L1.3097e+06,2.12195e+06 L1.24313e+06,2.23556e+06 L1.17657e+06,2.35206e+06 L1.11e+06,2.47023e+06 L1.11e+06,2.98691e+06 L1.17657e+06,2.86826e+06 L1.24313e+06,2.75034e+06 L1.3097e+06,2.63435e+06 L1.37626e+06,2.52148e+06 L1.44283e+06,2.41287e+06 L1.50939e+06,2.30964e+06 L1.57596e+06,2.21283e+06 L1.64253e+06,2.12343e+06 L1.70909e+06,2.04236e+06 L1.77566e+06,1.97044e+06 L1.84222e+06,1.9084e+06 L1.90879e+06,1.85687e+06 L1.97535e+06,1.81639e+06 L2.04192e+06,1.78737e+06 L2.10848e+06,1.77009e+06 L2.17505e+06,1.76474e+06 L2.24162e+06,1.77136e+06 L2.30818e+06,1.78991e+06 L2.37475e+06,1.82017e+06 L2.44131e+06,1.86185e+06 L2.50788e+06,1.91452e+06 L2.57444e+06,1.97765e+06 L2.64101e+06,2.05058e+06 L2.70758e+06,2.13258e+06 L2.77414e+06,2.22282e+06 L2.84071e+06,2.32036e+06 L2.90727e+06,2.42422e+06 L2.97384e+06,2.53333e+06 L3.0404e+06,2.64659e+06 L3.10697e+06,2.76285e+06 L3.17354e+06,2.8809e+06 L3.2401e+06,2.99956e+06 L3.30667e+06,3.11761e+06 L3.37323e+06,3.23385e+06 L3.4398e+06,3.3471e+06 L3.50636e+06,3.45619e+06 L3.57293e+06,3.56002e+06 L3.6395e+06,3.65753e+06 L3.70606e+06,3.74772e+06 L3.77263e+06,3.82968e+06 L3.83919e+06,3.90257e+06 L3.90576e+06,3.96565e+06 L3.97232e+06,4.01827e+06 L4.03889e+06,4.05989e+06 L4.10545e+06,4.0901e+06 L4.17202e+06,4.10858e+06 L4.23859e+06,4.11515e+06 L4.30515e+06,4.10974e+06"/>
</g>

<g fill="none" stroke="#0d528a" stroke-opacity="1" stroke-width="3.4" stroke-linecap="butt" stroke-linejoin="round" transform="matrix(0.5,0,0,0.5,-17.5232,-5)"
font-family="Arial" font-size="24" font-weight="700" font-style="normal" 
>
<polyline fill="none" vector-effect="none" points="111,272.857 117.657,261.016 124.313,249.295 130.97,237.815 137.626,226.692 144.283,216.039 150.939,205.966 157.596,196.574 164.253,187.961 170.909,180.212 177.566,173.409 184.222,167.619 190.879,162.901 197.535,159.305 204.192,156.867 210.848,155.61 217.505,155.549 224.162,156.684 230.818,159.004 237.475,162.483 244.131,167.089 250.788,172.772 257.444,179.476 264.101,187.131 270.758,195.661 277.414,204.977 284.071,214.986 290.727,225.584 297.384,236.665 304.04,248.114 310.697,259.816 317.354,271.65 324.01,283.497 330.667,295.235 337.323,306.746 343.98,317.91 350.636,328.616 357.293,338.753 363.949,348.218 370.606,356.915 377.263,364.755 383.919,371.659 390.576,377.555 397.232,382.383 403.889,386.096 410.545,388.653 417.202,390.031 423.859,390.213 430.515,389.2 437.172,387 443.828,383.637 450.485,379.145 457.141,373.568 463.798,366.966 470.455,359.404 477.111,350.959 483.768,341.718 490.424,331.776 497.081,321.233 503.737,310.196 510.394,298.779 517.051,287.098 523.707,275.271 530.364,263.42 537.02,251.665 543.677,240.126 550.333,228.921 556.99,218.164 563.646,207.964 570.303,198.426 576.96,189.646 583.616,181.715 590.273,174.713 596.929,168.712 603.586,163.772 610.242,159.944 616.899,157.268 623.556,155.769 630.212,155.465 636.869,156.357 643.525,158.437 650.182,161.683 656.838,166.062 663.495,171.53 670.151,178.032 676.808,185.5 683.465,193.858 690.121,203.022 696.778,212.897 703.434,223.384 710.091,234.376 716.747,245.759 723.404,257.419 730.061,269.236 736.717,281.091 743.374,292.861 750.03,304.427 756.687,315.671 763.343,326.479 770,336.741 " />
</g>

<g fill="#e36b2e" fill-opacity="0.180392" stroke="none" transform="matrix(5e-05,0,0,5e-05,-17.5232,-5)"
font-family="Arial" font-size="24" font-weight="700" font-style="normal" 
>
<path vector-effect="none" fill-rule="evenodd" d="M3.77263e+06,4.05834e+06 L3.83919e+06,4.04387e+06 L3.90576e+06,4.02214e+06 L3.97232e+06,3.99332e+06 L4.03889e+06,3.95758e+06 L4.10545e+06,3.91518e+06 L4.17202e+06,3.86639e+06 L4.23859e+06,3.81152e+06 L4.30515e+06,3.75094e+06 L4.37172e+06,3.68505e+06 L4.43828e+06,3.61426e+06 L4.50485e+06,3.53905e+06 L4.57141e+06,3.45988e+06 L4.63798e+06,3.37728e+06 L4.70455e+06,3.29178e+06 L4.77111e+06,3.20392e+06 L4.83768e+06,3.11427e+06 L4.90424e+06,3.02341e+06 L4.97081e+06,2.93191e+06 L5.03737e+06,2.84037e+06 L5.10394e+06,2.74936e+06 L5.17051e+06,2.65947e+06 L5.23707e+06,2.57128e+06 L5.30364e+06,2.48534e+06 L5.3702e+06,2.4022e+06 L5.43677e+06,2.3224e+06 L5.50333e+06,2.24643e+06 L5.5699e+06,2.1748e+06 L5.63646e+06,2.10794e+06 L5.70303e+06,2.04629e+06 L5.7696e+06,1.99023e+06 L5.83616e+06,1.94013e+06 L5.90273e+06,1.8963e+06 L5.96929e+06,1.85902e+06 L6.03586e+06,1.82853e+06 L6.10242e+06,1.80501e+06 L6.16899e+06,1.78863e+06 L6.23556e+06,1.77948e+06 L6.30212e+06,1.77762e+06 L6.36869e+06,1.78306e+06 L6.43525e+06,1.79578e+06 L6.50182e+06,1.81568e+06 L6.56838e+06,1.84264e+06 L6.63495e+06,1.8765e+06 L6.70152e+06,1.91703e+06 L6.76808e+06,1.96397e+06 L6.83465e+06,2.01704e+06 L6.90121e+06,2.07589e+06 L6.96778e+06,2.14015e+06 L7.03434e+06,2.20941e+06 L7.10091e+06,2.28323e+06 L7.16748e+06,2.36114e+06 L7.23404e+06,2.44265e+06 L7.30061e+06,2.52723e+06 L7.36717e+06,2.61435e+06 L7.43374e+06,2.70344e+06 L7.5003e+06,2.79395e+06 L7.56687e+06,2.8853e+06 L7.63343e+06,2.97689e+06 L7.7e+06,3.06815e+06 L7.7e+06,2.73071e+06 L7.63343e+06,2.63329e+06 L7.56687e+06,2.53521e+06 L7.5003e+06,2.43712e+06 L7.43374e+06,2.33967e+06 L7.36717e+06,2.24352e+06 L7.30061e+06,2.14929e+06 L7.23404e+06,2.05762e+06 L7.16748e+06,1.96911e+06 L7.10091e+06,1.88437e+06 L7.03434e+06,1.80396e+06 L6.96778e+06,1.72841e+06 L6.90121e+06,1.65822e+06 L6.83465e+06,1.59387e+06 L6.76808e+06,1.53579e+06 L6.70152e+06,1.48436e+06 L6.63495e+06,1.43993e+06 L6.56838e+06,1.40279e+06 L6.50182e+06,1.3732e+06 L6.43525e+06,1.35135e+06 L6.36869e+06,1.33739e+06 L6.30212e+06,1.33141e+06 L6.23556e+06,1.33346e+06 L6.16899e+06,1.3435e+06 L6.10242e+06,1.36149e+06 L6.03586e+06,1.3873e+06 L5.96929e+06,1.42076e+06 L5.90273e+06,1.46164e+06 L5.83616e+06,1.50967e+06 L5.7696e+06,1.56453e+06 L5.70303e+06,1.62586e+06 L5.63646e+06,1.69323e+06 L5.5699e+06,1.76621e+06 L5.50333e+06,1.8443e+06 L5.43677e+06,1.92699e+06 L5.3702e+06,2.01371e+06 L5.30364e+06,2.1039e+06 L5.23707e+06,2.19695e+06 L5.17051e+06,2.29224e+06 L5.10394e+06,2.38914e+06 L5.03737e+06,2.487e+06 L4.97081e+06,2.58516e+06 L4.90424e+06,2.68299e+06 L4.83768e+06,2.77982e+06 L4.77111e+06,2.87501e+06 L4.70455e+06,2.96793e+06 L4.63798e+06,3.05797e+06 L4.57141e+06,3.14454e+06 L4.50485e+06,3.22705e+06 L4.43828e+06,3.30496e+06 L4.37172e+06,3.37776e+06 L4.30515e+06,3.44498e+06 L4.23859e+06,3.50616e+06 L4.17202e+06,3.56092e+06 L4.10545e+06,3.60889e+06 L4.03889e+06,3.64976e+06 L3.97232e+06,3.68326e+06 L3.90576e+06,3.70919e+06 L3.83919e+06,3.72738e+06 L3.77263e+06,3.73771e+06 L3.70606e+06,3.74013e+06 L3.6395e+06,3.73463e+06 L3.57293e+06,3.72126e+06 L3.50636e+06,3.7001e+06 L3.4398e+06,3.67132e+06 L3.37323e+06,3.63511e+06 L3.30667e+06,3.59172e+06 L3.2401e+06,3.54145e+06 L3.17354e+06,3.48463e+06 L3.10697e+06,3.42166e+06 L3.0404e+06,3.35295e+06 L2.97384e+06,3.27896e+06 L2.90727e+06,3.2002e+06 L2.84071e+06,3.11718e+06 L2.77414e+06,3.03047e+06 L2.70758e+06,2.94063e+06 L2.64101e+06,2.84827e+06 L2.57444e+06,2.75399e+06 L2.50788e+06,2.65843e+06 L2.44131e+06,2.56221e+06 L2.37475e+06,2.46596e+06 L2.30818e+06,2.37033e+06 L2.24162e+06,2.27593e+06 L2.17505e+06,2.18338e+06 L2.10848e+06,2.0933e+06 L2.04192e+06,2.00626e+06 L1.97535e+06,1.92284e+06 L1.90879e+06,1.84358e+06 L1.84222e+06,1.76899e+06 L1.77566e+06,1.69955e+06 L1.70909e+06,1.63571e+06 L1.64253e+06,1.57788e+06 L1.57596e+06,1.52643e+06 L1.50939e+06,1.48167e+06 L1.44283e+06,1.44391e+06 L1.37626e+06,1.41336e+06 L1.3097e+06,1.39022e+06 L1.24313e+06,1.37463e+06 L1.17657e+06,1.36668e+06 L1.11e+06,1.3664e+06 L1.11e+06,1.74217e+06 L1.17657e+06,1.74956e+06 L1.24313e+06,1.76454e+06 L1.3097e+06,1.78702e+06 L1.37626e+06,1.81683e+06 L1.44283e+06,1.85377e+06 L1.50939e+06,1.89758e+06 L1.57596e+06,1.94797e+06 L1.64253e+06,2.00459e+06 L1.70909e+06,2.06707e+06 L1.77566e+06,2.13499e+06 L1.84222e+06,2.20791e+06 L1.90879e+06,2.28533e+06 L1.97535e+06,2.36675e+06 L2.04192e+06,2.45163e+06 L2.10848e+06,2.53942e+06 L2.17505e+06,2.62954e+06 L2.24162e+06,2.7214e+06 L2.30818e+06,2.81441e+06 L2.37475e+06,2.90796e+06 L2.44131e+06,3.00144e+06 L2.50788e+06,3.09425e+06 L2.57444e+06,3.1858e+06 L2.64101e+06,3.27548e+06 L2.70758e+06,3.36272e+06 L2.77414e+06,3.44697e+06 L2.84071e+06,3.52768e+06 L2.90727e+06,3.60433e+06 L2.97384e+06,3.67645e+06 L3.0404e+06,3.74356e+06 L3.10697e+06,3.80525e+06 L3.17354e+06,3.86113e+06 L3.2401e+06,3.91084e+06 L3.30667e+06,3.95407e+06 L3.37323e+06,3.99055e+06 L3.4398e+06,4.02006e+06 L3.50636e+06,4.04242e+06 L3.57293e+06,4.05749e+06 L3.6395e+06,4.06519e+06 L3.70606e+06,4.06547e+06 L3.77263e+06,4.05834e+06"/>
</g>

<g fill="none" stroke="#e36b2e" stroke-opacity="1" stroke-width="3.4" stroke-linecap="butt" stroke-linejoin="round" transform="matrix(0.5,0,0,0.5,-17.5232,-5)"
font-family="Arial" font-size="24" font-weight="700" font-style="normal" 
>
<polyline fill="none" vector-effect="none" points="111,155.429 117.657,155.812 124.313,156.959 130.97,158.862 137.626,161.51 144.283,164.884 150.939,168.963 157.596,173.72 164.253,179.124 170.909,185.139 177.566,191.727 184.222,198.845 190.879,206.445 197.535,214.48 204.192,222.895 210.848,231.636 217.505,240.646 224.162,249.866 230.818,259.237 237.475,268.696 244.131,278.182 250.788,287.634 257.444,296.99 264.101,306.187 270.758,315.168 277.414,323.872 284.071,332.243 290.727,340.226 297.384,347.77 304.04,354.825 310.697,361.345 317.354,367.288 324.01,372.614 330.667,377.289 337.323,381.283 343.98,384.569 350.636,387.126 357.293,388.937 363.949,389.991 370.606,390.28 377.263,389.803 383.919,388.562 390.576,386.567 397.232,383.829 403.889,380.367 410.545,376.203 417.202,371.365 423.859,365.884 430.515,359.796 437.172,353.141 443.828,345.961 450.485,338.305 457.141,330.221 463.798,321.763 470.455,312.986 477.111,303.946 483.768,294.704 490.424,285.32 497.081,275.854 503.737,266.368 510.394,256.925 517.051,247.586 523.707,238.411 530.364,229.462 537.02,220.796 543.677,212.469 550.333,204.537 556.99,197.05 563.646,190.059 570.303,183.607 576.96,177.738 583.616,172.49 590.273,167.897 596.929,163.989 603.586,160.792 610.242,158.325 616.899,156.607 623.556,155.647 630.212,155.452 636.869,156.023 643.525,157.357 650.182,159.444 656.838,162.272 663.495,165.821 670.151,170.069 676.808,174.988 683.465,180.546 690.121,186.706 696.778,193.428 703.434,200.669 710.091,208.38 716.747,216.513 723.404,225.013 730.061,233.826 736.717,242.893 743.374,252.156 750.03,261.554 756.687,271.026 763.343,280.509 770,289.943 " />
</g>

<g fill="#1a8570" fill-opacity="0.180392" stroke="none" transform="matrix(5e-05,0,0,5e-05,-17.5232,-5)"
font-family="Arial" font-size="24" font-weight="700" font-style="normal" 
>
<path vector-effect="none" fill-rule="evenodd" d="M1.17657e+06,3.71233e+06 L1.24313e+06,3.68615e+06 L1.3097e+06,3.6599e+06 L1.37626e+06,3.6336e+06 L1.44283e+06,3.60724e+06 L1.50939e+06,3.58082e+06 L1.57596e+06,3.55434e+06 L1.64253e+06,3.5278e+06 L1.70909e+06,3.50122e+06 L1.77566e+06,3.47457e+06 L1.84222e+06,3.44788e+06 L1.90879e+06,3.42113e+06 L1.97535e+06,3.39434e+06 L2.04192e+06,3.36749e+06 L2.10848e+06,3.34061e+06 L2.17505e+06,3.31367e+06 L2.24162e+06,3.2867e+06 L2.30818e+06,3.25969e+06 L2.37475e+06,3.23264e+06 L2.44131e+06,3.20556e+06 L2.50788e+06,3.17844e+06 L2.57444e+06,3.1513e+06 L2.64101e+06,3.12412e+06 L2.70758e+06,3.09693e+06 L2.77414e+06,3.06971e+06 L2.84071e+06,3.04248e+06 L2.90727e+06,3.01523e+06 L2.97384e+06,2.98797e+06 L3.0404e+06,2.9607e+06 L3.10697e+06,2.93342e+06 L3.17354e+06,2.90614e+06 L3.2401e+06,2.87886e+06 L3.30667e+06,2.85158e+06 L3.37323e+06,2.82431e+06 L3.4398e+06,2.79704e+06 L3.50636e+06,2.76979e+06 L3.57293e+06,2.74255e+06 L3.6395e+06,2.71533e+06 L3.70606e+06,2.68814e+06 L3.77263e+06,2.66096e+06 L3.83919e+06,2.63381e+06 L3.90576e+06,2.60669e+06 L3.97232e+06,2.5796e+06 L4.03889e+06,2.55254e+06 L4.10545e+06,2.52552e+06 L4.17202e+06,2.49854e+06 L4.23859e+06,2.4716e+06 L4.30515e+06,2.4447e+06 L4.37172e+06,2.41785e+06 L4.43828e+06,2.39105e+06 L4.50485e+06,2.36429e+06 L4.57141e+06,2.33758e+06 L4.63798e+06,2.31093e+06 L4.70455e+06,2.28433e+06 L4.77111e+06,2.25779e+06 L4.83768e+06,2.2313e+06 L4.90424e+06,2.20486e+06 L4.97081e+06,2.17849e+06 L5.03737e+06,2.15217e+06 L5.10394e+06,2.12592e+06 L5.17051e+06,2.09972e+06 L5.23707e+06,2.07358e+06 L5.30364e+06,2.0475e+06 L5.3702e+06,2.02149e+06 L5.43677e+06,1.99553e+06 L5.50333e+06,1.96963e+06 L5.5699e+06,1.94379e+06 L5.63646e+06,1.91801e+06 L5.70303e+06,1.89228e+06 L5.7696e+06,1.86662e+06 L5.83616e+06,1.841e+06 L5.90273e+06,1.81545e+06 L5.96929e+06,1.78994e+06 L6.03586e+06,1.76448e+06 L6.10242e+06,1.73908e+06 L6.16899e+06,1.71372e+06 L6.23556e+06,1.68841e+06 L6.30212e+06,1.66314e+06 L6.36869e+06,1.63792e+06 L6.43525e+06,1.61273e+06 L6.50182e+06,1.58758e+06 L6.56838e+06,1.56247e+06 L6.63495e+06,1.53739e+06 L6.70152e+06,1.51234e+06 L6.76808e+06,1.48731e+06 L6.83465e+06,1.46231e+06 L6.90121e+06,1.43733e+06 L6.96778e+06,1.41237e+06 L7.03434e+06,1.38743e+06 L7.10091e+06,1.3625e+06 L7.16748e+06,1.33758e+06 L7.23404e+06,1.31266e+06 L7.30061e+06,1.28775e+06 L7.36717e+06,1.26284e+06 L7.43374e+06,1.23793e+06 L7.5003e+06,1.21302e+06 L7.56687e+06,1.18809e+06 L7.63343e+06,1.16315e+06 L7.7e+06,1.1382e+06 L7.7e+06,796080 L7.63343e+06,823321 L7.56687e+06,850576 L7.5003e+06,877842 L7.43374e+06,905116 L7.36717e+06,932395 L7.30061e+06,959676 L7.23404e+06,986956 L7.16748e+06,1.01423e+06 L7.10091e+06,1.0415e+06 L7.03434e+06,1.06876e+06 L6.96778e+06,1.09601e+06 L6.90121e+06,1.12324e+06 L6.83465e+06,1.15045e+06 L6.76808e+06,1.17764e+06 L6.70152e+06,1.20481e+06 L6.63495e+06,1.23195e+06 L6.56838e+06,1.25905e+06 L6.50182e+06,1.28613e+06 L6.43525e+06,1.31317e+06 L6.36869e+06,1.34018e+06 L6.30212e+06,1.36714e+06 L6.23556e+06,1.39407e+06 L6.16899e+06,1.42094e+06 L6.10242e+06,1.44778e+06 L6.03586e+06,1.47456e+06 L5.96929e+06,1.5013e+06 L5.90273e+06,1.52798e+06 L5.83616e+06,1.55462e+06 L5.7696e+06,1.58119e+06 L5.70303e+06,1.60772e+06 L5.63646e+06,1.63418e+06 L5.5699e+06,1.66059e+06 L5.50333e+06,1.68694e+06 L5.43677e+06,1.71323e+06 L5.3702e+06,1.73947e+06 L5.30364e+06,1.76564e+06 L5.23707e+06,1.79175e+06 L5.17051e+06,1.8178e+06 L5.10394e+06,1.8438e+06 L5.03737e+06,1.86973e+06 L4.97081e+06,1.89561e+06 L4.90424e+06,1.92142e+06 L4.83768e+06,1.94718e+06 L4.77111e+06,1.97288e+06 L4.70455e+06,1.99853e+06 L4.63798e+06,2.02412e+06 L4.57141e+06,2.04965e+06 L4.50485e+06,2.07514e+06 L4.43828e+06,2.10057e+06 L4.37172e+06,2.12596e+06 L4.30515e+06,2.1513e+06 L4.23859e+06,2.17659e+06 L4.17202e+06,2.20184e+06 L4.10545e+06,2.22705e+06 L4.03889e+06,2.25222e+06 L3.97232e+06,2.27736e+06 L3.90576e+06,2.30246e+06 L3.83919e+06,2.32752e+06 L3.77263e+06,2.35256e+06 L3.70606e+06,2.37758e+06 L3.6395e+06,2.40257e+06 L3.57293e+06,2.42754e+06 L3.50636e+06,2.45249e+06 L3.4398e+06,2.47743e+06 L3.37323e+06,2.50236e+06 L3.30667e+06,2.52728e+06 L3.2401e+06,2.55219e+06 L3.17354e+06,2.5771e+06 L3.10697e+06,2.60201e+06 L3.0404e+06,2.62692e+06 L2.97384e+06,2.65184e+06 L2.90727e+06,2.67677e+06 L2.84071e+06,2.70171e+06 L2.77414e+06,2.72667e+06 L2.70758e+06,2.75164e+06 L2.64101e+06,2.77664e+06 L2.57444e+06,2.80166e+06 L2.50788e+06,2.8267e+06 L2.44131e+06,2.85178e+06 L2.37475e+06,2.87688e+06 L2.30818e+06,2.90203e+06 L2.24162e+06,2.9272e+06 L2.17505e+06,2.95242e+06 L2.10848e+06,2.97768e+06 L2.04192e+06,3.00298e+06 L1.97535e+06,3.02833e+06 L1.90879e+06,3.05373e+06 L1.84222e+06,3.07917e+06 L1.77566e+06,3.10467e+06 L1.70909e+06,3.13021e+06 L1.64253e+06,3.15581e+06 L1.57596e+06,3.18147e+06 L1.50939e+06,3.20718e+06 L1.44283e+06,3.23295e+06 L1.37626e+06,3.25878e+06 L1.3097e+06,3.28467e+06 L1.24313e+06,3.31062e+06 L1.17657e+06,3.33662e+06 L1.11e+06,3.36269e+06 L1.11e+06,3.73846e+06 L1.17657e+06,3.71233e+06"/>
</g>

<g fill="none" stroke="#1a8570" stroke-opacity="1" stroke-width="3.4" stroke-linecap="butt" stroke-linejoin="round" transform="matrix(0.5,0,0,0.5,-17.5232,-5)"
font-family="Arial" font-size="24" font-weight="700" font-style="normal" 
>
<polyline fill="none" vector-effect="none" points="111,355.057 117.657,352.448 124.313,349.838 130.97,347.229 137.626,344.619 144.283,342.01 150.939,339.4 157.596,336.79 164.253,334.181 170.909,331.571 177.566,328.962 184.222,326.352 190.879,323.743 197.535,321.133 204.192,318.524 210.848,315.914 217.505,313.305 224.162,310.695 230.818,308.086 237.475,305.476 244.131,302.867 250.788,300.257 257.444,297.648 264.101,295.038 270.758,292.429 277.414,289.819 284.071,287.21 290.727,284.6 297.384,281.99 304.04,279.381 310.697,276.771 317.354,274.162 324.01,271.552 330.667,268.943 337.323,266.333 343.98,263.724 350.636,261.114 357.293,258.505 363.949,255.895 370.606,253.286 377.263,250.676 383.919,248.067 390.576,245.457 397.232,242.848 403.889,240.238 410.545,237.629 417.202,235.019 423.859,232.41 430.515,229.8 437.172,227.19 443.828,224.581 450.485,221.971 457.141,219.362 463.798,216.752 470.455,214.143 477.111,211.533 483.768,208.924 490.424,206.314 497.081,203.705 503.737,201.095 510.394,198.486 517.051,195.876 523.707,193.267 530.364,190.657 537.02,188.048 543.677,185.438 550.333,182.829 556.99,180.219 563.646,177.61 570.303,175 576.96,172.39 583.616,169.781 590.273,167.171 596.929,164.562 603.586,161.952 610.242,159.343 616.899,156.733 623.556,154.124 630.212,151.514 636.869,148.905 643.525,146.295 650.182,143.686 656.838,141.076 663.495,138.467 670.151,135.857 676.808,133.248 683.465,130.638 690.121,128.029 696.778,125.419 703.434,122.81 710.091,120.2 716.747,117.59 723.404,114.981 730.061,112.371 736.717,109.762 743.374,107.152 750.03,104.543 756.687,101.933 763.343,99.3238 770,96.7143 " />
</g>

<g fill="#dbdbdb" fill-opacity="0.25098" stroke="#dbdbdb" stroke-opacity="0.25098" stroke-width="2.8" stroke-linecap="butt" stroke-linejoin="round" transform="matrix(0.5,0,0,0.5,-17.5232,-5)"
font-family="Arial" font-size="24" font-weight="700" font-style="normal" 
>
<polyline fill="none" vector-effect="none" points="111,38 111,449 " />
<polyline fill="none" vector-effect="none" points="242.8,38 242.8,449 " />
<polyline fill="none" vector-effect="none" points="374.6,38 374.6,449 " />
<polyline fill="none" vector-effect="none" points="506.4,38 506.4,449 " />
<polyline fill="none" vector-effect="none" points="638.2,38 638.2,449 " />
<polyline fill="none" vector-effect="none" points="770,38 770,449 " />
<polyline fill="none" vector-effect="none" points="111,449 770,449 " />
<polyline fill="none" vector-effect="none" points="111,390.286 770,390.286 " />
<polyline fill="none" vector-effect="none" points="111,331.571 770,331.571 " />
<polyline fill="none" vector-effect="none" points="111,272.857 770,272.857 " />
<polyline fill="none" vector-effect="none" points="111,214.143 770,214.143 " />
<polyline fill="none" vector-effect="none" points="111,155.429 770,155.429 " />
<polyline fill="none" vector-effect="none" points="111,96.7143 770,96.7143 " />
<polyline fill="none" vector-effect="none" points="111,38 770,38 " />
</g>

<g fill="#1f1f1f" fill-opacity="1" stroke="#1f1f1f" stroke-opacity="1" stroke-width="1" stroke-linecap="square" stroke-linejoin="bevel" transform="matrix(0.5,0,0,0.5,190.477,247.431)"
font-family="Arial" font-size="22" font-weight="400" font-style="normal" 
>
<text fill="#1f1f1f" fill-opacity="1" stroke="none" xml:space="preserve" x="0" y="-0.09375" font-family="Arial" font-size="22" font-weight="400" font-style="normal" 
 >Input</text>
</g>

<g fill="#1f1f1f" fill-opacity="1" stroke="#1f1f1f" stroke-opacity="1" stroke-width="2.8" stroke-linecap="square" stroke-linejoin="round" transform="matrix(0.5,0,0,0.5,-17.5232,-5)"
font-family="Arial" font-size="22" font-weight="400" font-style="normal" 
>
<polyline fill="none" vector-effect="none" points="111,449 770,449 " />
<polyline fill="none" vector-effect="none" points="111,455.59 111,449 " />
<polyline fill="none" vector-effect="none" points="242.8,455.59 242.8,449 " />
<polyline fill="none" vector-effect="none" points="374.6,455.59 374.6,449 " />
<polyline fill="none" vector-effect="none" points="506.4,455.59 506.4,449 " />
<polyline fill="none" vector-effect="none" points="638.2,455.59 638.2,449 " />
<polyline fill="none" vector-effect="none" points="770,455.59 770,449 " />
</g>

<g fill="#1f1f1f" fill-opacity="1" stroke="#1f1f1f" stroke-opacity="1" stroke-width="1" stroke-linecap="square" stroke-linejoin="bevel" transform="matrix(0.5,0,0,0.5,35.2268,234.886)"
font-family="Arial" font-size="20" font-weight="400" font-style="normal" 
>
<text fill="#1f1f1f" fill-opacity="1" stroke="none" xml:space="preserve" x="0" y="0.09375" font-family="Arial" font-size="20" font-weight="400" font-style="normal" 
 >0</text>
</g>

<g fill="#1f1f1f" fill-opacity="1" stroke="#1f1f1f" stroke-opacity="1" stroke-width="1" stroke-linecap="square" stroke-linejoin="bevel" transform="matrix(0.5,0,0,0.5,101.127,234.886)"
font-family="Arial" font-size="20" font-weight="400" font-style="normal" 
>
<text fill="#1f1f1f" fill-opacity="1" stroke="none" xml:space="preserve" x="0" y="0.09375" font-family="Arial" font-size="20" font-weight="400" font-style="normal" 
 >2</text>
</g>

<g fill="#1f1f1f" fill-opacity="1" stroke="#1f1f1f" stroke-opacity="1" stroke-width="1" stroke-linecap="square" stroke-linejoin="bevel" transform="matrix(0.5,0,0,0.5,167.027,234.886)"
font-family="Arial" font-size="20" font-weight="400" font-style="normal" 
>
<text fill="#1f1f1f" fill-opacity="1" stroke="none" xml:space="preserve" x="0" y="0.09375" font-family="Arial" font-size="20" font-weight="400" font-style="normal" 
 >4</text>
</g>

<g fill="#1f1f1f" fill-opacity="1" stroke="#1f1f1f" stroke-opacity="1" stroke-width="1" stroke-linecap="square" stroke-linejoin="bevel" transform="matrix(0.5,0,0,0.5,232.927,234.886)"
font-family="Arial" font-size="20" font-weight="400" font-style="normal" 
>
<text fill="#1f1f1f" fill-opacity="1" stroke="none" xml:space="preserve" x="0" y="0.09375" font-family="Arial" font-size="20" font-weight="400" font-style="normal" 
 >6</text>
</g>

<g fill="#1f1f1f" fill-opacity="1" stroke="#1f1f1f" stroke-opacity="1" stroke-width="1" stroke-linecap="square" stroke-linejoin="bevel" transform="matrix(0.5,0,0,0.5,298.827,234.886)"
font-family="Arial" font-size="20" font-weight="400" font-style="normal" 
>
<text fill="#1f1f1f" fill-opacity="1" stroke="none" xml:space="preserve" x="0" y="0.09375" font-family="Arial" font-size="20" font-weight="400" font-style="normal" 
 >8</text>
</g>

<g fill="#1f1f1f" fill-opacity="1" stroke="#1f1f1f" stroke-opacity="1" stroke-width="1" stroke-linecap="square" stroke-linejoin="bevel" transform="matrix(0.5,0,0,0.5,361.977,234.886)"
font-family="Arial" font-size="20" font-weight="400" font-style="normal" 
>
<text fill="#1f1f1f" fill-opacity="1" stroke="none" xml:space="preserve" x="0" y="0.09375" font-family="Arial" font-size="20" font-weight="400" font-style="normal" 
 >10</text>
</g>

<g fill="#1f1f1f" fill-opacity="1" stroke="#1f1f1f" stroke-opacity="1" stroke-width="1" stroke-linecap="square" stroke-linejoin="bevel" transform="matrix(0,-0.5,0.5,0,9.5,138.25)"
font-family="Arial" font-size="22" font-weight="400" font-style="normal" 
>
<text fill="#1f1f1f" fill-opacity="1" stroke="none" xml:space="preserve" x="0" y="-0.09375" font-family="Arial" font-size="22" font-weight="400" font-style="normal" 
 >Estimate</text>
</g>

<g fill="#1f1f1f" fill-opacity="1" stroke="#1f1f1f" stroke-opacity="1" stroke-width="2.8" stroke-linecap="square" stroke-linejoin="round" transform="matrix(0.5,0,0,0.5,-17.5232,-5)"
font-family="Arial" font-size="22" font-weight="400" font-style="normal" 
>
<polyline fill="none" vector-effect="none" points="111,449 111,38 " />
<polyline fill="none" vector-effect="none" points="104.41,449 111,449 " />
<polyline fill="none" vector-effect="none" points="104.41,390.286 111,390.286 " />
<polyline fill="none" vector-effect="none" points="104.41,331.571 111,331.571 " />
<polyline fill="none" vector-effect="none" points="104.41,272.857 111,272.857 " />
<polyline fill="none" vector-effect="none" points="104.41,214.143 111,214.143 " />
<polyline fill="none" vector-effect="none" points="104.41,155.429 111,155.429 " />
<polyline fill="none" vector-effect="none" points="104.41,96.7143 111,96.7143 " />
<polyline fill="none" vector-effect="none" points="104.41,38 111,38 " />
</g>

<g fill="#1f1f1f" fill-opacity="1" stroke="#1f1f1f" stroke-opacity="1" stroke-width="1" stroke-linecap="square" stroke-linejoin="bevel" transform="matrix(0.5,0,0,0.5,14.5909,223)"
font-family="Arial" font-size="20" font-weight="400" font-style="normal" 
>
<text fill="#1f1f1f" fill-opacity="1" stroke="none" xml:space="preserve" x="0" y="0.09375" font-family="Arial" font-size="20" font-weight="400" font-style="normal" 
 >-1.5</text>
</g>

<g fill="#1f1f1f" fill-opacity="1" stroke="#1f1f1f" stroke-opacity="1" stroke-width="1" stroke-linecap="square" stroke-linejoin="bevel" transform="matrix(0.5,0,0,0.5,22.5909,193.643)"
font-family="Arial" font-size="20" font-weight="400" font-style="normal" 
>
<text fill="#1f1f1f" fill-opacity="1" stroke="none" xml:space="preserve" x="0" y="0.09375" font-family="Arial" font-size="20" font-weight="400" font-style="normal" 
 >-1</text>
</g>

<g fill="#1f1f1f" fill-opacity="1" stroke="#1f1f1f" stroke-opacity="1" stroke-width="1" stroke-linecap="square" stroke-linejoin="bevel" transform="matrix(0.5,0,0,0.5,14.5909,164.286)"
font-family="Arial" font-size="20" font-weight="400" font-style="normal" 
>
<text fill="#1f1f1f" fill-opacity="1" stroke="none" xml:space="preserve" x="0" y="0.09375" font-family="Arial" font-size="20" font-weight="400" font-style="normal" 
 >-0.5</text>
</g>

<g fill="#1f1f1f" fill-opacity="1" stroke="#1f1f1f" stroke-opacity="1" stroke-width="1" stroke-linecap="square" stroke-linejoin="bevel" transform="matrix(0.5,0,0,0.5,26.0909,134.929)"
font-family="Arial" font-size="20" font-weight="400" font-style="normal" 
>
<text fill="#1f1f1f" fill-opacity="1" stroke="none" xml:space="preserve" x="0" y="0.09375" font-family="Arial" font-size="20" font-weight="400" font-style="normal" 
 >0</text>
</g>

<g fill="#1f1f1f" fill-opacity="1" stroke="#1f1f1f" stroke-opacity="1" stroke-width="1" stroke-linecap="square" stroke-linejoin="bevel" transform="matrix(0.5,0,0,0.5,17.5909,105.571)"
font-family="Arial" font-size="20" font-weight="400" font-style="normal" 
>
<text fill="#1f1f1f" fill-opacity="1" stroke="none" xml:space="preserve" x="0" y="0.09375" font-family="Arial" font-size="20" font-weight="400" font-style="normal" 
 >0.5</text>
</g>

<g fill="#1f1f1f" fill-opacity="1" stroke="#1f1f1f" stroke-opacity="1" stroke-width="1" stroke-linecap="square" stroke-linejoin="bevel" transform="matrix(0.5,0,0,0.5,26.0909,76.2143)"
font-family="Arial" font-size="20" font-weight="400" font-style="normal" 
>
<text fill="#1f1f1f" fill-opacity="1" stroke="none" xml:space="preserve" x="0" y="0.09375" font-family="Arial" font-size="20" font-weight="400" font-style="normal" 
 >1</text>
</g>

<g fill="#1f1f1f" fill-opacity="1" stroke="#1f1f1f" stroke-opacity="1" stroke-width="1" stroke-linecap="square" stroke-linejoin="bevel" transform="matrix(0.5,0,0,0.5,17.5909,46.8571)"
font-family="Arial" font-size="20" font-weight="400" font-style="normal" 
>
<text fill="#1f1f1f" fill-opacity="1" stroke="none" xml:space="preserve" x="0" y="0.09375" font-family="Arial" font-size="20" font-weight="400" font-style="normal" 
 >1.5</text>
</g>

<g fill="#1f1f1f" fill-opacity="1" stroke="#1f1f1f" stroke-opacity="1" stroke-width="1" stroke-linecap="square" stroke-linejoin="bevel" transform="matrix(0.5,0,0,0.5,26.0909,17.5)"
font-family="Arial" font-size="20" font-weight="400" font-style="normal" 
>
<text fill="#1f1f1f" fill-opacity="1" stroke="none" xml:space="preserve" x="0" y="0.09375" font-family="Arial" font-size="20" font-weight="400" font-style="normal" 
 >2</text>
</g>

<g fill="#0d528a" fill-opacity="0.180392" stroke="none" transform="matrix(5e-05,0,0,5e-05,-17.5232,-5)"
font-family="Arial" font-size="20" font-weight="400" font-style="normal" 
>
<path vector-effect="none" fill-rule="evenodd" d="M6.20979e+06,3.79541e+06 L6.20979e+06,3.94652e+06 L6.80772e+06,3.94652e+06 L6.80772e+06,3.79541e+06 L6.20979e+06,3.79541e+06"/>
</g>

<g fill="#0d528a" fill-opacity="1" stroke="#0d528a" stroke-opacity="1" stroke-width="3.4" stroke-linecap="butt" stroke-linejoin="round" transform="matrix(0.5,0,0,0.5,-17.5232,-5)"
font-family="Arial" font-size="20" font-weight="400" font-style="normal" 
>
<polyline fill="none" vector-effect="none" points="620.979,408 680.772,408 " />
</g>

<g fill="#e36b2e" fill-opacity="0.180392" stroke="none" transform="matrix(5e-05,0,0,5e-05,-17.5232,-5)"
font-family="Arial" font-size="20" font-weight="400" font-style="normal" 
>
<path vector-effect="none" fill-rule="evenodd" d="M6.20979e+06,4.21348e+06 L6.20979e+06,4.36459e+06 L6.80772e+06,4.36459e+06 L6.80772e+06,4.21348e+06 L6.20979e+06,4.21348e+06"/>
</g>

<g fill="#d9d9d9" fill-opacity="1" stroke="#d9d9d9" stroke-opacity="1" stroke-width="1" stroke-linecap="square" stroke-linejoin="bevel" transform="matrix(0.5,0,0,0.5,325.105,191.548)"
font-family="Arial" font-size="18" font-weight="400" font-style="normal" 
>
<text fill="#d9d9d9" fill-opacity="1" stroke="none" xml:space="preserve" x="0" y="0.28125" font-family="Arial" font-size="18" font-weight="400" font-style="normal" 
 >Model A</text>
</g>

<g fill="#d9d9d9" fill-opacity="1" stroke="#d9d9d9" stroke-opacity="1" stroke-width="1" stroke-linecap="square" stroke-linejoin="bevel" transform="matrix(0.5,0,0,0.5,325.105,202)"
font-family="Arial" font-size="18" font-weight="400" font-style="normal" 
>
<text fill="#d9d9d9" fill-opacity="1" stroke="none" xml:space="preserve" x="0" y="0.28125" font-family="Arial" font-size="18" font-weight="400" font-style="normal" 
 >Model B</text>
</g>

<g fill="#d9d9d9" fill-opacity="1" stroke="#d9d9d9" stroke-opacity="1" stroke-width="1" stroke-linecap="square" stroke-linejoin="bevel" transform="matrix(0.5,0,0,0.5,325.105,212.452)"
font-family="Arial" font-size="18" font-weight="400" font-style="normal" 
>
<text fill="#d9d9d9" fill-opacity="1" stroke="none" xml:space="preserve" x="0" y="0.28125" font-family="Arial" font-size="18" font-weight="400" font-style="normal" 
 >Model C</text>
</g>
</g>
</svg>
