<?xml version="1.0" encoding="UTF-8" standalone="no"?>
<svg width="118.533mm" height="87.8417mm"
 viewBox="0 0 336 249"
 xmlns="http://www.w3.org/2000/svg" xmlns:xlink="http://www.w3.org/1999/xlink"  version="1.2" baseProfile="tiny">
<title>Qt SVG Document</title>
<desc>Clean-room gallery output</desc>
<defs>
</defs>
<g fill="none" stroke="black" stroke-width="1" fill-rule="evenodd" stroke-linecap="square" stroke-linejoin="bevel" >

<g fill="#ffffff" fill-opacity="1" stroke="none" transform="matrix(0.5,0,0,0.5,-0.578182,-5)"
font-family=".AppleSystemUIFont" font-size="13" font-weight="400" font-style="normal"
>
<path vector-effect="none" fill-rule="evenodd" d="M0,8 L672,8 L672,507 L0,507 L0,8"/>
</g>

<g fill="#ffffff" fill-opacity="1" stroke="none" transform="matrix(5e-05,0,0,5e-05,-0.578182,-5)"
font-family=".AppleSystemUIFont" font-size="13" font-weight="400" font-style="normal"
>
<path vector-effect="none" fill-rule="evenodd" d="M1.19e+06,380000 L1.19e+06,4.5e+06 L6.67e+06,4.5e+06 L6.67e+06,380000 L1.19e+06,380000"/>
</g>

<g fill="#1f1f1f" fill-opacity="1" stroke="#1f1f1f" stroke-opacity="1" stroke-width="1" stroke-linecap="square" stroke-linejoin="bevel" transform="matrix(0.5,0,0,0.5,147.172,10)"
font-family="Arial" font-size="24" font-weight="700" font-style="normal"
>
<text fill="#1f1f1f" fill-opacity="1" stroke="none" xml:space="preserve" x="0" y="-0.28125" font-family="Arial" font-size="24" font-weight="700" font-style="normal"
 >Lollipop Ranking</text>
</g>

<g fill="#b8b8b8" fill-opacity="1" stroke="#b8b8b8" stroke-opacity="1" stroke-width="2.8" stroke-linecap="butt" stroke-linejoin="round" transform="matrix(0.5,0,0,0.5,-0.578182,-5)"
font-family="Arial" font-size="24" font-weight="700" font-style="normal"
>
<polyline fill="none" vector-effect="none" points="119,450 387.52,450 " />
</g>

<g fill="#4d3da6" fill-opacity="1" stroke="none" transform="matrix(0.5,0,0,0.5,-0.578182,-5)"
font-family="Arial" font-size="24" font-weight="700" font-style="normal"
>
<circle cx="387.52" cy="450" r="8.94427"/>
</g>

<g fill="#b8b8b8" fill-opacity="1" stroke="#b8b8b8" stroke-opacity="1" stroke-width="2.8" stroke-linecap="butt" stroke-linejoin="round" transform="matrix(0.5,0,0,0.5,-0.578182,-5)"
font-family="Arial" font-size="24" font-weight="700" font-style="normal"
>
<polyline fill="none" vector-effect="none" points="119,391.143 420.4,391.143 " />
</g>

<g fill="#922c64" fill-opacity="1" stroke="none" transform="matrix(0.5,0,0,0.5,-0.578182,-5)"
font-family="Arial" font-size="24" font-weight="700" font-style="normal"
>
<circle cx="420.4" cy="391.143" r="8.94427"/>
</g>

<g fill="#b8b8b8" fill-opacity="1" stroke="#b8b8b8" stroke-opacity="1" stroke-width="2.8" stroke-linecap="butt" stroke-linejoin="round" transform="matrix(0.5,0,0,0.5,-0.578182,-5)"
font-family="Arial" font-size="24" font-weight="700" font-style="normal"
>
<polyline fill="none" vector-effect="none" points="119,332.286 453.28,332.286 " />
</g>

<g fill="#aa2c3b" fill-opacity="1" stroke="none" transform="matrix(0.5,0,0,0.5,-0.578182,-5)"
font-family="Arial" font-size="24" font-weight="700" font-style="normal"
>
<circle cx="453.28" cy="332.286" r="8.94427"/>
</g>

<g fill="#b8b8b8" fill-opacity="1" stroke="#b8b8b8" stroke-opacity="1" stroke-width="2.8" stroke-linecap="butt" stroke-linejoin="round" transform="matrix(0.5,0,0,0.5,-0.578182,-5)"
font-family="Arial" font-size="24" font-weight="700" font-style="normal"
>
<polyline fill="none" vector-effect="none" points="119,273.429 491.64,273.429 " />
</g>

<g fill="#39645b" fill-opacity="1" stroke="none" transform="matrix(0.5,0,0,0.5,-0.578182,-5)"
font-family="Arial" font-size="24" font-weight="700" font-style="normal"
>
<circle cx="491.64" cy="273.429" r="8.94427"/>
</g>

<g fill="#b8b8b8" fill-opacity="1" stroke="#b8b8b8" stroke-opacity="1" stroke-width="2.8" stroke-linecap="butt" stroke-linejoin="round" transform="matrix(0.5,0,0,0.5,-0.578182,-5)"
font-family="Arial" font-size="24" font-weight="700" font-style="normal"
>
<polyline fill="none" vector-effect="none" points="119,214.571 513.56,214.571 " />
</g>

<g fill="#458855" fill-opacity="1" stroke="none" transform="matrix(0.5,0,0,0.5,-0.578182,-5)"
font-family="Arial" font-size="24" font-weight="700" font-style="normal"
>
<circle cx="513.56" cy="214.571" r="8.94427"/>
</g>

<g fill="#b8b8b8" fill-opacity="1" stroke="#b8b8b8" stroke-opacity="1" stroke-width="2.8" stroke-linecap="butt" stroke-linejoin="round" transform="matrix(0.5,0,0,0.5,-0.578182,-5)"
font-family="Arial" font-size="24" font-weight="700" font-style="normal"
>
<polyline fill="none" vector-effect="none" points="119,155.714 546.44,155.714 " />
</g>

<g fill="#d09a2a" fill-opacity="1" stroke="none" transform="matrix(0.5,0,0,0.5,-0.578182,-5)"
font-family="Arial" font-size="24" font-weight="700" font-style="normal"
>
<circle cx="546.44" cy="155.714" r="8.94427"/>
</g>

<g fill="#b8b8b8" fill-opacity="1" stroke="#b8b8b8" stroke-opacity="1" stroke-width="2.8" stroke-linecap="butt" stroke-linejoin="round" transform="matrix(0.5,0,0,0.5,-0.578182,-5)"
font-family="Arial" font-size="24" font-weight="700" font-style="normal"
>
<polyline fill="none" vector-effect="none" points="119,96.8571 573.84,96.8571 " />
</g>

<g fill="#8d6e36" fill-opacity="1" stroke="none" transform="matrix(0.5,0,0,0.5,-0.578182,-5)"
font-family="Arial" font-size="24" font-weight="700" font-style="normal"
>
<circle cx="573.84" cy="96.8571" r="8.94427"/>
</g>

<g fill="#b8b8b8" fill-opacity="1" stroke="#b8b8b8" stroke-opacity="1" stroke-width="2.8" stroke-linecap="butt" stroke-linejoin="round" transform="matrix(0.5,0,0,0.5,-0.578182,-5)"
font-family="Arial" font-size="24" font-weight="700" font-style="normal"
>
<polyline fill="none" vector-effect="none" points="119,38 617.68,38 " />
</g>

<g fill="#052e54" fill-opacity="1" stroke="none" transform="matrix(0.5,0,0,0.5,-0.578182,-5)"
font-family="Arial" font-size="24" font-weight="700" font-style="normal"
>
<circle cx="617.68" cy="38" r="8.94427"/>
</g>

<g fill="#dbdbdb" fill-opacity="0.25098" stroke="#dbdbdb" stroke-opacity="0.25098" stroke-width="2.8" stroke-linecap="butt" stroke-linejoin="round" transform="matrix(0.5,0,0,0.5,-0.578182,-5)"
font-family="Arial" font-size="24" font-weight="700" font-style="normal"
>
<polyline fill="none" vector-effect="none" points="119,38 119,450 " />
<polyline fill="none" vector-effect="none" points="228.6,38 228.6,450 " />
<polyline fill="none" vector-effect="none" points="338.2,38 338.2,450 " />
<polyline fill="none" vector-effect="none" points="447.8,38 447.8,450 " />
<polyline fill="none" vector-effect="none" points="557.4,38 557.4,450 " />
<polyline fill="none" vector-effect="none" points="667,38 667,450 " />
<polyline fill="none" vector-effect="none" points="119,450 667,450 " />
<polyline fill="none" vector-effect="none" points="119,391.143 667,391.143 " />
<polyline fill="none" vector-effect="none" points="119,332.286 667,332.286 " />
<polyline fill="none" vector-effect="none" points="119,273.429 667,273.429 " />
<polyline fill="none" vector-effect="none" points="119,214.571 667,214.571 " />
<polyline fill="none" vector-effect="none" points="119,155.714 667,155.714 " />
<polyline fill="none" vector-effect="none" points="119,96.8571 667,96.8571 " />
<polyline fill="none" vector-effect="none" points="119,38 667,38 " />
</g>

<g fill="#1f1f1f" fill-opacity="1" stroke="#1f1f1f" stroke-opacity="1" stroke-width="1" stroke-linecap="square" stroke-linejoin="bevel" transform="matrix(0.5,0,0,0.5,161.172,247.376)"
font-family="Arial" font-size="22" font-weight="400" font-style="normal"
>
<text fill="#1f1f1f" fill-opacity="1" stroke="none" xml:space="preserve" x="0" y="-0.09375" font-family="Arial" font-size="22" font-weight="400" font-style="normal"
 >Relative score</text>
</g>

<g fill="#1f1f1f" fill-opacity="1" stroke="#1f1f1f" stroke-opacity="1" stroke-width="2.8" stroke-linecap="square" stroke-linejoin="round" transform="matrix(0.5,0,0,0.5,-0.578182,-5)"
font-family="Arial" font-size="22" font-weight="400" font-style="normal"
>
<polyline fill="none" vector-effect="none" points="119,450 667,450 " />
<polyline fill="none" vector-effect="none" points="119,455.48 119,450 " />
<polyline fill="none" vector-effect="none" points="228.6,455.48 228.6,450 " />
<polyline fill="none" vector-effect="none" points="338.2,455.48 338.2,450 " />
<polyline fill="none" vector-effect="none" points="447.8,455.48 447.8,450 " />
<polyline fill="none" vector-effect="none" points="557.4,455.48 557.4,450 " />
<polyline fill="none" vector-effect="none" points="667,455.48 667,450 " />
</g>

<g fill="#1f1f1f" fill-opacity="1" stroke="#1f1f1f" stroke-opacity="1" stroke-width="1" stroke-linecap="square" stroke-linejoin="bevel" transform="matrix(0.5,0,0,0.5,56.1718,234.831)"
font-family="Arial" font-size="20" font-weight="400" font-style="normal"
>
<text fill="#1f1f1f" fill-opacity="1" stroke="none" xml:space="preserve" x="0" y="0.09375" font-family="Arial" font-size="20" font-weight="400" font-style="normal"
 >0</text>
</g>

<g fill="#1f1f1f" fill-opacity="1" stroke="#1f1f1f" stroke-opacity="1" stroke-width="1" stroke-linecap="square" stroke-linejoin="bevel" transform="matrix(0.5,0,0,0.5,106.722,234.831)"
font-family="Arial" font-size="20" font-weight="400" font-style="normal"
>
<text fill="#1f1f1f" fill-opacity="1" stroke="none" xml:space="preserve" x="0" y="0.09375" font-family="Arial" font-size="20" font-weight="400" font-style="normal"
 >0.2</text>
</g>

<g fill="#1f1f1f" fill-opacity="1" stroke="#1f1f1f" stroke-opacity="1" stroke-width="1" stroke-linecap="square" stroke-linejoin="bevel" transform="matrix(0.5,0,0,0.5,161.522,234.831)"
font-family="Arial" font-size="20" font-weight="400" font-style="normal"
>
<text fill="#1f1f1f" fill-opacity="1" stroke="none" xml:space="preserve" x="0" y="0.09375" font-family="Arial" font-size="20" font-weight="400" font-style="normal"
 >0.4</text>
</g>

<g fill="#1f1f1f" fill-opacity="1" stroke="#1f1f1f" stroke-opacity="1" stroke-width="1" stroke-linecap="square" stroke-linejoin="bevel" transform="matrix(0.5,0,0,0.5,216.322,234.831)"
font-family="Arial" font-size="20" font-weight="400" font-style="normal"
>
<text fill="#1f1f1f" fill-opacity="1" stroke="none" xml:space="preserve" x="0" y="0.09375" font-family="Arial" font-size="20" font-weight="400" font-style="normal"
 >0.6</text>
</g>

<g fill="#1f1f1f" fill-opacity="1" stroke="#1f1f1f" stroke-opacity="1" stroke-width="1" stroke-linecap="square" stroke-linejoin="bevel" transform="matrix(0.5,0,0,0.5,271.122,234.831)"
font-family="Arial" font-size="20" font-weight="400" font-style="normal"
>
<text fill="#1f1f1f" fill-opacity="1" stroke="none" xml:space="preserve" x="0" y="0.09375" font-family="Arial" font-size="20" font-weight="400" font-style="normal"
 >0.8</text>
</g>

<g fill="#1f1f1f" fill-opacity="1" stroke="#1f1f1f" stroke-opacity="1" stroke-width="1" stroke-linecap="square" stroke-linejoin="bevel" transform="matrix(0.5,0,0,0.5,330.172,234.831)"
font-family="Arial" font-size="20" font-weight="400" font-style="normal"
>
<text fill="#1f1f1f" fill-opacity="1" stroke="none" xml:space="preserve" x="0" y="0.09375" font-family="Arial" font-size="20" font-weight="400" font-style="normal"
 >1</text>
</g>

<g fill="#1f1f1f" fill-opacity="1" stroke="#1f1f1f" stroke-opacity="1" stroke-width="1" stroke-linecap="square" stroke-linejoin="bevel" transform="matrix(0,-0.5,0.5,0,9.5,132.5)"
font-family="Arial" font-size="22" font-weight="400" font-style="normal"
>
<text fill="#1f1f1f" fill-opacity="1" stroke="none" xml:space="preserve" x="0" y="-0.09375" font-family="Arial" font-size="22" font-weight="400" font-style="normal"
 >Factor</text>
</g>

<g fill="#1f1f1f" fill-opacity="1" stroke="#1f1f1f" stroke-opacity="1" stroke-width="2.8" stroke-linecap="square" stroke-linejoin="round" transform="matrix(0.5,0,0,0.5,-0.578182,-5)"
font-family="Arial" font-size="22" font-weight="400" font-style="normal"
>
<polyline fill="none" vector-effect="none" points="119,450 119,38 " />
<polyline fill="none" vector-effect="none" points="113.52,450 119,450 " />
<polyline fill="none" vector-effect="none" points="113.52,391.143 119,391.143 " />
<polyline fill="none" vector-effect="none" points="113.52,332.286 119,332.286 " />
<polyline fill="none" vector-effect="none" points="113.52,273.429 119,273.429 " />
<polyline fill="none" vector-effect="none" points="113.52,214.571 119,214.571 " />
<polyline fill="none" vector-effect="none" points="113.52,155.714 119,155.714 " />
<polyline fill="none" vector-effect="none" points="113.52,96.8571 119,96.8571 " />
<polyline fill="none" vector-effect="none" points="113.52,38 119,38 " />
</g>

<g fill="#1f1f1f" fill-opacity="1" stroke="#1f1f1f" stroke-opacity="1" stroke-width="1" stroke-linecap="square" stroke-linejoin="bevel" transform="matrix(0.5,0,0,0.5,18.0909,223.5)"
font-family="Arial" font-size="20" font-weight="400" font-style="normal"
>
<text fill="#1f1f1f" fill-opacity="1" stroke="none" xml:space="preserve" x="0" y="0.09375" font-family="Arial" font-size="20" font-weight="400" font-style="normal"
 >Latency</text>
</g>

<g fill="#1f1f1f" fill-opacity="1" stroke="#1f1f1f" stroke-opacity="1" stroke-width="1" stroke-linecap="square" stroke-linejoin="bevel" transform="matrix(0.5,0,0,0.5,32.5909,194.071)"
font-family="Arial" font-size="20" font-weight="400" font-style="normal"
>
<text fill="#1f1f1f" fill-opacity="1" stroke="none" xml:space="preserve" x="0" y="0.09375" font-family="Arial" font-size="20" font-weight="400" font-style="normal"
 >Cost</text>
</g>

<g fill="#1f1f1f" fill-opacity="1" stroke="#1f1f1f" stroke-opacity="1" stroke-width="1" stroke-linecap="square" stroke-linejoin="bevel" transform="matrix(0.5,0,0,0.5,24.5909,164.643)"
font-family="Arial" font-size="20" font-weight="400" font-style="normal"
>
<text fill="#1f1f1f" fill-opacity="1" stroke="none" xml:space="preserve" x="0" y="0.09375" font-family="Arial" font-size="20" font-weight="400" font-style="normal"
 >Safety</text>
</g>

<g fill="#1f1f1f" fill-opacity="1" stroke="#1f1f1f" stroke-opacity="1" stroke-width="1" stroke-linecap="square" stroke-linejoin="bevel" transform="matrix(0.5,0,0,0.5,21.0909,135.214)"
font-family="Arial" font-size="20" font-weight="400" font-style="normal"
>
<text fill="#1f1f1f" fill-opacity="1" stroke="none" xml:space="preserve" x="0" y="0.09375" font-family="Arial" font-size="20" font-weight="400" font-style="normal"
 >Control</text>
</g>

<g fill="#1f1f1f" fill-opacity="1" stroke="#1f1f1f" stroke-opacity="1" stroke-width="1" stroke-linecap="square" stroke-linejoin="bevel" transform="matrix(0.5,0,0,0.5,14.0909,105.786)"
font-family="Arial" font-size="20" font-weight="400" font-style="normal"
>
<text fill="#1f1f1f" fill-opacity="1" stroke="none" xml:space="preserve" x="0" y="0.09375" font-family="Arial" font-size="20" font-weight="400" font-style="normal"
 >Forecast</text>
</g>

<g fill="#1f1f1f" fill-opacity="1" stroke="#1f1f1f" stroke-opacity="1" stroke-width="1" stroke-linecap="square" stroke-linejoin="bevel" transform="matrix(0.5,0,0,0.5,17.0909,76.3571)"
font-family="Arial" font-size="20" font-weight="400" font-style="normal"
>
<text fill="#1f1f1f" fill-opacity="1" stroke="none" xml:space="preserve" x="0" y="0.09375" font-family="Arial" font-size="20" font-weight="400" font-style="normal"
 >Sensing</text>
</g>

<g fill="#1f1f1f" fill-opacity="1" stroke="#1f1f1f" stroke-opacity="1" stroke-width="1" stroke-linecap="square" stroke-linejoin="bevel" transform="matrix(0.5,0,0,0.5,18.0909,46.9286)"
font-family="Arial" font-size="20" font-weight="400" font-style="normal"
>
<text fill="#1f1f1f" fill-opacity="1" stroke="none" xml:space="preserve" x="0" y="0.09375" font-family="Arial" font-size="20" font-weight="400" font-style="normal"
 >Storage</text>
</g>

<g fill="#1f1f1f" fill-opacity="1" stroke="#1f1f1f" stroke-opacity="1" stroke-width="1" stroke-linecap="square" stroke-linejoin="bevel" transform="matrix(0.5,0,0,0.5,34.0909,17.5)"
font-family="Arial" font-size="20" font-weight="400" font-style="normal"
>
<text fill="#1f1f1f" fill-opacity="1" stroke="none" xml:space="preserve" x="0" y="0.09375" font-family="Arial" font-size="20" font-weight="400" font-style="normal"
 >Grid</text>
</g>
</g>
</svg>
