<?xml version="1.0" encoding="UTF-8" standalone="no"?>
<svg width="117.828mm" height="87.8417mm"
 viewBox="0 0 334 249"
 xmlns="http://www.w3.org/2000/svg" xmlns:xlink="http://www.w3.org/1999/xlink"  version="1.2" baseProfile="tiny">
<title>Qt SVG Document</title>
<desc>MATLAB, The MathWorks, Inc. Version 25.1.0.2943329 R2025a</desc>
<defs>
</defs>
<g fill="none" stroke="black" stroke-width="1" fill-rule="evenodd" stroke-linecap="square" stroke-linejoin="bevel" >

<g fill="#ffffff" fill-opacity="1" stroke="none" transform="matrix(0.5,0,0,0.5,-2.55409,-5)"
font-family=".AppleSystemUIFont" font-size="13" font-weight="400" font-style="normal" 
>
<path vector-effect="none" fill-rule="evenodd" d="M4,8 L672,8 L672,507 L4,507 L4,8"/>
</g>

<g fill="#ffffff" fill-opacity="1" stroke="none" transform="matrix(5e-05,0,0,5e-05,-2.55409,-5)"
font-family=".AppleSystemUIFont" font-size="13" font-weight="400" font-style="normal" 
>
<path vector-effect="none" fill-rule="evenodd" d="M960000,380000 L960000,4.5e+06 L6.67e+06,4.5e+06 L6.67e+06,380000 L960000,380000"/>
</g>

<g fill="#1f1f1f" fill-opacity="1" stroke="#1f1f1f" stroke-opacity="1" stroke-width="1" stroke-linecap="square" stroke-linejoin="bevel" transform="matrix(0.5,0,0,0.5,139.446,10)"
font-family="Arial" font-size="24" font-weight="700" font-style="normal" 
>
<text fill="#1f1f1f" fill-opacity="1" stroke="none" xml:space="preserve" x="0" y="-0.28125" font-family="Arial" font-size="24" font-weight="700" font-style="normal" 
 >Lollipop Ranking</text>
</g>

<g fill="#b8b8b8" fill-opacity="1" stroke="#b8b8b8" stroke-opacity="1" stroke-width="2.8" stroke-linecap="butt" stroke-linejoin="round" transform="matrix(0.5,0,0,0.5,-2.55409,-5)"
font-family="Arial" font-size="24" font-weight="700" font-style="normal" 
>
<polyline fill="none" vector-effect="none" points="96,450 375.79,450 " />
</g>

<g fill="#4d3da6" fill-opacity="1" stroke="none" transform="matrix(0.5,0,0,0.5,-2.55409,-5)"
font-family="Arial" font-size="24" font-weight="700" font-style="normal" 
>
<circle cx="375.79" cy="450" r="8.94427"/>
</g>

<g fill="#b8b8b8" fill-opacity="1" stroke="#b8b8b8" stroke-opacity="1" stroke-width="2.8" stroke-linecap="butt" stroke-linejoin="round" transform="matrix(0.5,0,0,0.5,-2.55409,-5)"
font-family="Arial" font-size="24" font-weight="700" font-style="normal" 
>
<polyline fill="none" vector-effect="none" points="96,391.143 410.05,391.143 " />
</g>

<g fill="#922c64" fill-opacity="1" stroke="none" transform="matrix(0.5,0,0,0.5,-2.55409,-5)"
font-family="Arial" font-size="24" font-weight="700" font-style="normal" 
>
<circle cx="410.05" cy="391.143" r="8.94427"/>
</g>

<g fill="#b8b8b8" fill-opacity="1" stroke="#b8b8b8" stroke-opacity="1" stroke-width="2.8" stroke-linecap="butt" stroke-linejoin="round" transform="matrix(0.5,0,0,0.5,-2.55409,-5)"
font-family="Arial" font-size="24" font-weight="700" font-style="normal" 
>
<polyline fill="none" vector-effect="none" points="96,332.286 444.31,332.286 " />
</g>

<g fill="#aa2c3b" fill-opacity="1" stroke="none" transform="matrix(0.5,0,0,0.5,-2.55409,-5)"
font-family="Arial" font-size="24" font-weight="700" font-style="normal" 
>
<circle cx="444.31" cy="332.286" r="8.94427"/>
</g>

<g fill="#b8b8b8" fill-opacity="1" stroke="#b8b8b8" stroke-opacity="1" stroke-width="2.8" stroke-linecap="butt" stroke-linejoin="round" transform="matrix(0.5,0,0,0.5,-2.55409,-5)"
font-family="Arial" font-size="24" font-weight="700" font-style="normal" 
>
<polyline fill="none" vector-effect="none" points="96,273.429 484.28,273.429 " />
</g>

<g fill="#39645b" fill-opacity="1" stroke="none" transform="matrix(0.5,0,0,0.5,-2.55409,-5)"
font-family="Arial" font-size="24" font-weight="700" font-style="normal" 
>
<circle cx="484.28" cy="273.429" r="8.94427"/>
</g>

<g fill="#b8b8b8" fill-opacity="1" stroke="#b8b8b8" stroke-opacity="1" stroke-width="2.8" stroke-linecap="butt" stroke-linejoin="round" transform="matrix(0.5,0,0,0.5,-2.55409,-5)"
font-family="Arial" font-size="24" font-weight="700" font-style="normal" 
>
<polyline fill="none" vector-effect="none" points="96,214.571 507.12,214.571 " />
</g>

<g fill="#458855" fill-opacity="1" stroke="none" transform="matrix(0.5,0,0,0.5,-2.55409,-5)"
font-family="Arial" font-size="24" font-weight="700" font-style="normal" 
>
<circle cx="507.12" cy="214.571" r="8.94427"/>
</g>

<g fill="#b8b8b8" fill-opacity="1" stroke="#b8b8b8" stroke-opacity="1" stroke-width="2.8" stroke-linecap="butt" stroke-linejoin="round" transform="matrix(0.5,0,0,0.5,-2.55409,-5)"
font-family="Arial" font-size="24" font-weight="700" font-style="normal" 
>
<polyline fill="none" vector-effect="none" points="96,155.714 541.38,155.714 " />
</g>

<g fill="#d09a2a" fill-opacity="1" stroke="none" transform="matrix(0.5,0,0,0.5,-2.55409,-5)"
font-family="Arial" font-size="24" font-weight="700" font-style="normal" 
>
<circle cx="541.38" cy="155.714" r="8.94427"/>
</g>

<g fill="#b8b8b8" fill-opacity="1" stroke="#b8b8b8" stroke-opacity="1" stroke-width="2.8" stroke-linecap="butt" stroke-linejoin="round" transform="matrix(0.5,0,0,0.5,-2.55409,-5)"
font-family="Arial" font-size="24" font-weight="700" font-style="normal" 
>
<polyline fill="none" vector-effect="none" points="96,96.8571 569.93,96.8571 " />
</g>

<g fill="#8d6e36" fill-opacity="1" stroke="none" transform="matrix(0.5,0,0,0.5,-2.55409,-5)"
font-family="Arial" font-size="24" font-weight="700" font-style="normal" 
>
<circle cx="569.93" cy="96.8571" r="8.94427"/>
</g>

<g fill="#b8b8b8" fill-opacity="1" stroke="#b8b8b8" stroke-opacity="1" stroke-width="2.8" stroke-linecap="butt" stroke-linejoin="round" transform="matrix(0.5,0,0,0.5,-2.55409,-5)"
font-family="Arial" font-size="24" font-weight="700" font-style="normal" 
>
<polyline fill="none" vector-effect="none" points="96,38 615.61,38 " />
</g>

<g fill="#052e54" fill-opacity="1" stroke="none" transform="matrix(0.5,0,0,0.5,-2.55409,-5)"
font-family="Arial" font-size="24" font-weight="700" font-style="normal" 
>
<circle cx="615.61" cy="38" r="8.94427"/>
</g>

<g fill="#dbdbdb" fill-opacity="0.25098" stroke="#dbdbdb" stroke-opacity="0.25098" stroke-width="2.8" stroke-linecap="butt" stroke-linejoin="round" transform="matrix(0.5,0,0,0.5,-2.55409,-5)"
font-family="Arial" font-size="24" font-weight="700" font-style="normal" 
>
<polyline fill="none" vector-effect="none" points="96,38 96,450 " />
<polyline fill="none" vector-effect="none" points="210.2,38 210.2,450 " />
<polyline fill="none" vector-effect="none" points="324.4,38 324.4,450 " />
<polyline fill="none" vector-effect="none" points="438.6,38 438.6,450 " />
<polyline fill="none" vector-effect="none" points="552.8,38 552.8,450 " />
<polyline fill="none" vector-effect="none" points="667,38 667,450 " />
<polyline fill="none" vector-effect="none" points="96,450 667,450 " />
<polyline fill="none" vector-effect="none" points="96,391.143 667,391.143 " />
<polyline fill="none" vector-effect="none" points="96,332.286 667,332.286 " />
<polyline fill="none" vector-effect="none" points="96,273.429 667,273.429 " />
<polyline fill="none" vector-effect="none" points="96,214.571 667,214.571 " />
<polyline fill="none" vector-effect="none" points="96,155.714 667,155.714 " />
<polyline fill="none" vector-effect="none" points="96,96.8571 667,96.8571 " />
<polyline fill="none" vector-effect="none" points="96,38 667,38 " />
</g>

<g fill="#1f1f1f" fill-opacity="1" stroke="#1f1f1f" stroke-opacity="1" stroke-width="1" stroke-linecap="square" stroke-linejoin="bevel" transform="matrix(0.5,0,0,0.5,153.446,247.491)"
font-family="Arial" font-size="22" font-weight="400" font-style="normal" 
>
<text fill="#1f1f1f" fill-opacity="1" stroke="none" xml:space="preserve" x="0" y="-0.09375" font-family="Arial" font-size="22" font-weight="400" font-style="normal" 
 >Relative score</text>
</g>

<g fill="#1f1f1f" fill-opacity="1" stroke="#1f1f1f" stroke-opacity="1" stroke-width="2.8" stroke-linecap="square" stroke-linejoin="round" transform="matrix(0.5,0,0,0.5,-2.55409,-5)"
font-family="Arial" font-size="22" font-weight="400" font-style="normal" 
>
<polyline fill="none" vector-effect="none" points="96,450 667,450 " />
<polyline fill="none" vector-effect="none" points="96,455.71 96,450 " />
<polyline fill="none" vector-effect="none" points="210.2,455.71 210.2,450 " />
<polyline fill="none" vector-effect="none" points="324.4,455.71 324.4,450 " />
<polyline fill="none" vector-effect="none" points="438.6,455.71 438.6,450 " />
<polyline fill="none" vector-effect="none" points="552.8,455.71 552.8,450 " />
<polyline fill="none" vector-effect="none" points="667,455.71 667,450 " />
</g>

<g fill="#1f1f1f" fill-opacity="1" stroke="#1f1f1f" stroke-opacity="1" stroke-width="1" stroke-linecap="square" stroke-linejoin="bevel" transform="matrix(0.5,0,0,0.5,42.6959,234.946)"
font-family="Arial" font-size="20" font-weight="400" font-style="normal" 
>
<text fill="#1f1f1f" fill-opacity="1" stroke="none" xml:space="preserve" x="0" y="0.09375" font-family="Arial" font-size="20" font-weight="400" font-style="normal" 
 >0</text>
</g>

<g fill="#1f1f1f" fill-opacity="1" stroke="#1f1f1f" stroke-opacity="1" stroke-width="1" stroke-linecap="square" stroke-linejoin="bevel" transform="matrix(0.5,0,0,0.5,95.5459,234.946)"
font-family="Arial" font-size="20" font-weight="400" font-style="normal" 
>
<text fill="#1f1f1f" fill-opacity="1" stroke="none" xml:space="preserve" x="0" y="0.09375" font-family="Arial" font-size="20" font-weight="400" font-style="normal" 
 >0.2</text>
</g>

<g fill="#1f1f1f" fill-opacity="1" stroke="#1f1f1f" stroke-opacity="1" stroke-width="1" stroke-linecap="square" stroke-linejoin="bevel" transform="matrix(0.5,0,0,0.5,152.646,234.946)"
font-family="Arial" font-size="20" font-weight="400" font-style="normal" 
>
<text fill="#1f1f1f" fill-opacity="1" stroke="none" xml:space="preserve" x="0" y="0.09375" font-family="Arial" font-size="20" font-weight="400" font-style="normal" 
 >0.4</text>
</g>

<g fill="#1f1f1f" fill-opacity="1" stroke="#1f1f1f" stroke-opacity="1" stroke-width="1" stroke-linecap="square" stroke-linejoin="bevel" transform="matrix(0.5,0,0,0.5,209.746,234.946)"
font-family="Arial" font-size="20" font-weight="400" font-style="normal" 
>
<text fill="#1f1f1f" fill-opacity="1" stroke="none" xml:space="preserve" x="0" y="0.09375" font-family="Arial" font-size="20" font-weight="400" font-style="normal" 
 >0.6</text>
</g>

<g fill="#1f1f1f" fill-opacity="1" stroke="#1f1f1f" stroke-opacity="1" stroke-width="1" stroke-linecap="square" stroke-linejoin="bevel" transform="matrix(0.5,0,0,0.5,266.846,234.946)"
font-family="Arial" font-size="20" font-weight="400" font-style="normal" 
>
<text fill="#1f1f1f" fill-opacity="1" stroke="none" xml:space="preserve" x="0" y="0.09375" font-family="Arial" font-size="20" font-weight="400" font-style="normal" 
 >0.8</text>
</g>

<g fill="#1f1f1f" fill-opacity="1" stroke="#1f1f1f" stroke-opacity="1" stroke-width="1" stroke-linecap="square" stroke-linejoin="bevel" transform="matrix(0.5,0,0,0.5,328.196,234.946)"
font-family="Arial" font-size="20" font-weight="400" font-style="normal" 
>
<text fill="#1f1f1f" fill-opacity="1" stroke="none" xml:space="preserve" x="0" y="0.09375" font-family="Arial" font-size="20" font-weight="400" font-style="normal" 
 >1</text>
</g>

<g fill="#1f1f1f" fill-opacity="1" stroke="#1f1f1f" stroke-opacity="1" stroke-width="2.8" stroke-linecap="square" stroke-linejoin="round" transform="matrix(0.5,0,0,0.5,-2.55409,-5)"
font-family="Arial" font-size="20" font-weight="400" font-style="normal" 
>
<polyline fill="none" vector-effect="none" points="96,450 96,38 " />
<polyline fill="none" vector-effect="none" points="90.29,450 96,450 " />
<polyline fill="none" vector-effect="none" points="90.29,391.143 96,391.143 " />
<polyline fill="none" vector-effect="none" points="90.29,332.286 96,332.286 " />
<polyline fill="none" vector-effect="none" points="90.29,273.429 96,273.429 " />
<polyline fill="none" vector-effect="none" points="90.29,214.571 96,214.571 " />
<polyline fill="none" vector-effect="none" points="90.29,155.714 96,155.714 " />
<polyline fill="none" vector-effect="none" points="90.29,96.8571 96,96.8571 " />
<polyline fill="none" vector-effect="none" points="90.29,38 96,38 " />
</g>

<g fill="#1f1f1f" fill-opacity="1" stroke="#1f1f1f" stroke-opacity="1" stroke-width="1" stroke-linecap="square" stroke-linejoin="bevel" transform="matrix(0.5,0,0,0.5,4.5,223.5)"
font-family="Arial" font-size="20" font-weight="400" font-style="normal" 
>
<text fill="#1f1f1f" fill-opacity="1" stroke="none" xml:space="preserve" x="0" y="0.09375" font-family="Arial" font-size="20" font-weight="400" font-style="normal" 
 >Latency</text>
</g>

<g fill="#1f1f1f" fill-opacity="1" stroke="#1f1f1f" stroke-opacity="1" stroke-width="1" stroke-linecap="square" stroke-linejoin="bevel" transform="matrix(0.5,0,0,0.5,19,194.071)"
font-family="Arial" font-size="20" font-weight="400" font-style="normal" 
>
<text fill="#1f1f1f" fill-opacity="1" stroke="none" xml:space="preserve" x="0" y="0.09375" font-family="Arial" font-size="20" font-weight="400" font-style="normal" 
 >Cost</text>
</g>

<g fill="#1f1f1f" fill-opacity="1" stroke="#1f1f1f" stroke-opacity="1" stroke-width="1" stroke-linecap="square" stroke-linejoin="bevel" transform="matrix(0.5,0,0,0.5,11,164.643)"
font-family="Arial" font-size="20" font-weight="400" font-style="normal" 
>
<text fill="#1f1f1f" fill-opacity="1" stroke="none" xml:space="preserve" x="0" y="0.09375" font-family="Arial" font-size="20" font-weight="400" font-style="normal" 
 >Safety</text>
</g>

<g fill="#1f1f1f" fill-opacity="1" stroke="#1f1f1f" stroke-opacity="1" stroke-width="1" stroke-linecap="square" stroke-linejoin="bevel" transform="matrix(0.5,0,0,0.5,7.5,135.214)"
font-family="Arial" font-size="20" font-weight="400" font-style="normal" 
>
<text fill="#1f1f1f" fill-opacity="1" stroke="none" xml:space="preserve" x="0" y="0.09375" font-family="Arial" font-size="20" font-weight="400" font-style="normal" 
 >Control</text>
</g>

<g fill="#1f1f1f" fill-opacity="1" stroke="#1f1f1f" stroke-opacity="1" stroke-width="1" stroke-linecap="square" stroke-linejoin="bevel" transform="matrix(0.5,0,0,0.5,0.5,105.786)"
font-family="Arial" font-size="20" font-weight="400" font-style="normal" 
>
<text fill="#1f1f1f" fill-opacity="1" stroke="none" xml:space="preserve" x="0" y="0.09375" font-family="Arial" font-size="20" font-weight="400" font-style="normal" 
 >Forecast</text>
</g>

<g fill="#1f1f1f" fill-opacity="1" stroke="#1f1f1f" stroke-opacity="1" stroke-width="1" stroke-linecap="square" stroke-linejoin="bevel" transform="matrix(0.5,0,0,0.5,3.5,76.3571)"
font-family="Arial" font-size="20" font-weight="400" font-style="normal" 
>
<text fill="#1f1f1f" fill-opacity="1" stroke="none" xml:space="preserve" x="0" y="0.09375" font-family="Arial" font-size="20" font-weight="400" font-style="normal" 
 >Sensing</text>
</g>

<g fill="#1f1f1f" fill-opacity="1" stroke="#1f1f1f" stroke-opacity="1" stroke-width="1" stroke-linecap="square" stroke-linejoin="bevel" transform="matrix(0.5,0,0,0.5,4.5,46.9286)"
font-family="Arial" font-size="20" font-weight="400" font-style="normal" 
>
<text fill="#1f1f1f" fill-opacity="1" stroke="none" xml:space="preserve" x="0" y="0.09375" font-family="Arial" font-size="20" font-weight="400" font-style="normal" 
 >Storage</text>
</g>

<g fill="#1f1f1f" fill-opacity="1" stroke="#1f1f1f" stroke-opacity="1" stroke-width="1" stroke-linecap="square" stroke-linejoin="bevel" transform="matrix(0.5,0,0,0.5,20.5,17.5)"
font-family="Arial" font-size="20" font-weight="400" font-style="normal" 
>
<text fill="#1f1f1f" fill-opacity="1" stroke="none" xml:space="preserve" x="0" y="0.09375" font-family="Arial" font-size="20" font-weight="400" font-style="normal" 
 >Grid</text>
</g>
</g>
</svg>
