<?xml version="1.0" encoding="UTF-8" standalone="no"?>
<svg width="124.531mm" height="78.6694mm"
 viewBox="0 0 353 223"
 xmlns="http://www.w3.org/2000/svg" xmlns:xlink="http://www.w3.org/1999/xlink"  version="1.2" baseProfile="tiny">
<title>Qt SVG Document</title>
<desc>MATLAB, The MathWorks, Inc. Version 25.1.0.2943329 R2025a</desc>
<defs>
</defs>
<g fill="none" stroke="black" stroke-width="1" fill-rule="evenodd" stroke-linecap="square" stroke-linejoin="bevel" >

<g fill="#ffffff" fill-opacity="1" stroke="none" transform="matrix(0.5,0,0,0.5,-13.7382,-3)"
font-family=".AppleSystemUIFont" font-size="13" font-weight="400" font-style="normal"
>
<path vector-effect="none" fill-rule="evenodd" d="M26,5 L732,5 L732,452 L26,452 L26,5"/>
</g>

<g fill="#ffffff" fill-opacity="1" stroke="none" transform="matrix(5e-05,0,0,5e-05,-13.7382,-3)"
font-family=".AppleSystemUIFont" font-size="13" font-weight="400" font-style="normal"
>
<path vector-effect="none" fill-rule="evenodd" d="M1.03e+06,340000 L1.03e+06,3.93e+06 L7.19e+06,3.93e+06 L7.19e+06,340000 L1.03e+06,340000"/>
</g>

<g fill="#1f1f1f" fill-opacity="1" stroke="#1f1f1f" stroke-opacity="1" stroke-width="1" stroke-linecap="square" stroke-linejoin="bevel" transform="matrix(0.5,0,0,0.5,127.012,10)"
font-family="Arial" font-size="24" font-weight="700" font-style="normal"
>
<text fill="#1f1f1f" fill-opacity="1" stroke="none" xml:space="preserve" x="0" y="-0.28125" font-family="Arial" font-size="24" font-weight="700" font-style="normal"
 >Positive-Negative Area</text>
</g>

<g fill="#1f1f1f" fill-opacity="1" stroke="#1f1f1f" stroke-opacity="1" stroke-width="1" stroke-linecap="butt" stroke-linejoin="round" transform="matrix(0.5,0,0,0.5,-13.7382,-3)"
font-family="Arial" font-size="24" font-weight="700" font-style="normal"
>
<polyline fill="none" vector-effect="none" points="103,213.5 719,213.5 " />
</g>

<g fill="#f29e1f" fill-opacity="0.780392" stroke="none" transform="matrix(5e-05,0,0,5e-05,-13.7382,-3)"
font-family="Arial" font-size="24" font-weight="700" font-style="normal"
>
<path vector-effect="none" fill-rule="evenodd" d="M1.03e+06,1.62171e+06 L1.03e+06,2.135e+06 L1.06487e+06,2.135e+06 L1.09974e+06,2.135e+06 L1.1346e+06,2.135e+06 L1.16947e+06,2.135e+06 L1.20434e+06,2.135e+06 L1.23921e+06,2.135e+06 L1.27408e+06,2.135e+06 L1.30894e+06,2.135e+06 L1.34381e+06,2.135e+06 L1.37868e+06,2.135e+06 L1.41355e+06,2.135e+06 L1.44842e+06,2.135e+06 L1.48328e+06,2.135e+06 L1.51815e+06,2.135e+06 L1.55302e+06,2.135e+06 L1.58789e+06,2.135e+06 L1.62275e+06,2.135e+06 L1.65762e+06,2.135e+06 L1.69249e+06,2.135e+06 L1.72736e+06,2.135e+06 L1.76223e+06,2.135e+06 L1.79709e+06,2.135e+06 L1.83196e+06,2.135e+06 L1.86683e+06,2.135e+06 L1.9017e+06,2.135e+06 L1.93657e+06,2.135e+06 L1.97143e+06,2.135e+06 L2.0063e+06,2.135e+06 L2.04117e+06,2.135e+06 L2.07604e+06,2.135e+06 L2.11091e+06,2.135e+06 L2.14577e+06,2.135e+06 L2.18064e+06,2.135e+06 L2.21551e+06,2.135e+06 L2.25038e+06,2.135e+06 L2.28525e+06,2.135e+06 L2.32011e+06,2.135e+06 L2.35498e+06,2.135e+06 L2.32011e+06,1.95553e+06 L2.28525e+06,1.58059e+06 L2.25038e+06,1.56283e+06 L2.21551e+06,1.32196e+06 L2.18064e+06,1.28614e+06 L2.14577e+06,908417 L2.11091e+06,917932 L2.07604e+06,989269 L2.04117e+06,895387 L2.0063e+06,866017 L1.97143e+06,910974 L1.93657e+06,1.02008e+06 L1.9017e+06,969409 L1.86683e+06,1.06407e+06 L1.83196e+06,1.29813e+06 L1.79709e+06,1.04507e+06 L1.76223e+06,1.27359e+06 L1.72736e+06,1.20488e+06 L1.69249e+06,1.31035e+06 L1.65762e+06,1.51881e+06 L1.62275e+06,1.55635e+06 L1.58789e+06,1.59014e+06 L1.55302e+06,1.68916e+06 L1.51815e+06,1.43587e+06 L1.48328e+06,1.65239e+06 L1.44842e+06,1.57022e+06 L1.41355e+06,1.76188e+06 L1.37868e+06,1.62084e+06 L1.34381e+06,1.5834e+06 L1.30894e+06,1.69164e+06 L1.27408e+06,1.4857e+06 L1.23921e+06,1.4426e+06 L1.20434e+06,1.60044e+06 L1.16947e+06,1.45208e+06 L1.1346e+06,1.38844e+06 L1.09974e+06,1.45295e+06 L1.06487e+06,1.55775e+06 L1.03e+06,1.62171e+06"/>
</g>

<g fill="#f29e1f" fill-opacity="0.780392" stroke="none" transform="matrix(5e-05,0,0,5e-05,-13.7382,-3)"
font-family="Arial" font-size="24" font-weight="700" font-style="normal"
>
<path vector-effect="none" fill-rule="evenodd" d="M3.50562e+06,2.135e+06 L3.54049e+06,2.135e+06 L3.57536e+06,2.135e+06 L3.54049e+06,1.95958e+06 L3.50562e+06,2.135e+06"/>
</g>

<g fill="#f29e1f" fill-opacity="0.780392" stroke="none" transform="matrix(5e-05,0,0,5e-05,-13.7382,-3)"
font-family="Arial" font-size="24" font-weight="700" font-style="normal"
>
<path vector-effect="none" fill-rule="evenodd" d="M3.61023e+06,2.135e+06 L3.64509e+06,2.135e+06 L3.67996e+06,2.135e+06 L3.64509e+06,2.09841e+06 L3.61023e+06,2.135e+06"/>
</g>

<g fill="#f29e1f" fill-opacity="0.780392" stroke="none" transform="matrix(5e-05,0,0,5e-05,-13.7382,-3)"
font-family="Arial" font-size="24" font-weight="700" font-style="normal"
>
<path vector-effect="none" fill-rule="evenodd" d="M3.78457e+06,2.135e+06 L3.81943e+06,2.135e+06 L3.8543e+06,2.135e+06 L3.88917e+06,2.135e+06 L3.92404e+06,2.135e+06 L3.95891e+06,2.135e+06 L3.99377e+06,2.135e+06 L4.02864e+06,2.135e+06 L4.06351e+06,2.135e+06 L4.09838e+06,2.135e+06 L4.13325e+06,2.135e+06 L4.16811e+06,2.135e+06 L4.20298e+06,2.135e+06 L4.23785e+06,2.135e+06 L4.27272e+06,2.135e+06 L4.30759e+06,2.135e+06 L4.34245e+06,2.135e+06 L4.37732e+06,2.135e+06 L4.41219e+06,2.135e+06 L4.44706e+06,2.135e+06 L4.48192e+06,2.135e+06 L4.51679e+06,2.135e+06 L4.55166e+06,2.135e+06 L4.58653e+06,2.135e+06 L4.6214e+06,2.135e+06 L4.65626e+06,2.135e+06 L4.69113e+06,2.135e+06 L4.726e+06,2.135e+06 L4.76087e+06,2.135e+06 L4.79574e+06,2.135e+06 L4.8306e+06,2.135e+06 L4.86547e+06,2.135e+06 L4.8306e+06,2.03757e+06 L4.79574e+06,2.12905e+06 L4.76087e+06,1.69068e+06 L4.726e+06,1.59253e+06 L4.69113e+06,1.11156e+06 L4.65626e+06,1.13268e+06 L4.6214e+06,1.01441e+06 L4.58653e+06,766145 L4.55166e+06,811303 L4.51679e+06,625579 L4.48192e+06,685728 L4.44706e+06,695880 L4.41219e+06,826644 L4.37732e+06,687361 L4.34245e+06,601863 L4.30759e+06,724706 L4.27272e+06,978782 L4.23785e+06,741881 L4.20298e+06,796840 L4.16811e+06,1.08839e+06 L4.13325e+06,1.01165e+06 L4.09838e+06,1.22442e+06 L4.06351e+06,1.18998e+06 L4.02864e+06,1.40399e+06 L3.99377e+06,1.56387e+06 L3.95891e+06,1.80588e+06 L3.92404e+06,1.97463e+06 L3.88917e+06,1.95606e+06 L3.8543e+06,1.92186e+06 L3.81943e+06,1.91563e+06 L3.78457e+06,2.135e+06"/>
</g>

<g fill="#f29e1f" fill-opacity="0.780392" stroke="none" transform="matrix(5e-05,0,0,5e-05,-13.7382,-3)"
font-family="Arial" font-size="24" font-weight="700" font-style="normal"
>
<path vector-effect="none" fill-rule="evenodd" d="M6.36479e+06,2.135e+06 L6.39966e+06,2.135e+06 L6.43453e+06,2.135e+06 L6.4694e+06,2.135e+06 L6.50426e+06,2.135e+06 L6.53913e+06,2.135e+06 L6.574e+06,2.135e+06 L6.574e+06,1.20101e+06 L6.53913e+06,1.30711e+06 L6.50426e+06,1.5139e+06 L6.4694e+06,1.51546e+06 L6.43453e+06,1.76548e+06 L6.39966e+06,2.04918e+06 L6.36479e+06,2.135e+06"/>
</g>

<g fill="#052e54" fill-opacity="0.780392" stroke="none" transform="matrix(5e-05,0,0,5e-05,-13.7382,-3)"
font-family="Arial" font-size="24" font-weight="700" font-style="normal"
>
<path vector-effect="none" fill-rule="evenodd" d="M2.35498e+06,2.135e+06 L2.32011e+06,2.135e+06 L2.35498e+06,2.13555e+06 L2.38985e+06,2.49975e+06 L2.42472e+06,2.35293e+06 L2.45959e+06,2.78221e+06 L2.49445e+06,2.74247e+06 L2.52932e+06,2.91693e+06 L2.56419e+06,3.07629e+06 L2.59906e+06,3.29743e+06 L2.63392e+06,3.30139e+06 L2.66879e+06,3.46945e+06 L2.70366e+06,3.61757e+06 L2.73853e+06,3.77491e+06 L2.7734e+06,3.69415e+06 L2.80826e+06,3.63895e+06 L2.84313e+06,3.69062e+06 L2.878e+06,3.7518e+06 L2.91287e+06,3.45119e+06 L2.94774e+06,3.3859e+06 L2.9826e+06,3.34528e+06 L3.01747e+06,3.16044e+06 L3.05234e+06,3.19467e+06 L3.08721e+06,2.94644e+06 L3.12208e+06,2.84124e+06 L3.15694e+06,2.90357e+06 L3.19181e+06,2.54301e+06 L3.22668e+06,2.47288e+06 L3.26155e+06,2.39022e+06 L3.29642e+06,2.44366e+06 L3.33128e+06,2.18936e+06 L3.36615e+06,2.24435e+06 L3.40102e+06,2.31317e+06 L3.43589e+06,2.20584e+06 L3.47075e+06,2.19899e+06 L3.50562e+06,2.21418e+06 L3.54049e+06,2.135e+06 L3.50562e+06,2.135e+06 L3.47075e+06,2.135e+06 L3.43589e+06,2.135e+06 L3.40102e+06,2.135e+06 L3.36615e+06,2.135e+06 L3.33128e+06,2.135e+06 L3.29642e+06,2.135e+06 L3.26155e+06,2.135e+06 L3.22668e+06,2.135e+06 L3.19181e+06,2.135e+06 L3.15694e+06,2.135e+06 L3.12208e+06,2.135e+06 L3.08721e+06,2.135e+06 L3.05234e+06,2.135e+06 L3.01747e+06,2.135e+06 L2.9826e+06,2.135e+06 L2.94774e+06,2.135e+06 L2.91287e+06,2.135e+06 L2.878e+06,2.135e+06 L2.84313e+06,2.135e+06 L2.80826e+06,2.135e+06 L2.7734e+06,2.135e+06 L2.73853e+06,2.135e+06 L2.70366e+06,2.135e+06 L2.66879e+06,2.135e+06 L2.63392e+06,2.135e+06 L2.59906e+06,2.135e+06 L2.56419e+06,2.135e+06 L2.52932e+06,2.135e+06 L2.49445e+06,2.135e+06 L2.45959e+06,2.135e+06 L2.42472e+06,2.135e+06 L2.38985e+06,2.135e+06 L2.35498e+06,2.135e+06"/>
</g>

<g fill="#052e54" fill-opacity="0.780392" stroke="none" transform="matrix(5e-05,0,0,5e-05,-13.7382,-3)"
font-family="Arial" font-size="24" font-weight="700" font-style="normal"
>
<path vector-effect="none" fill-rule="evenodd" d="M3.57536e+06,2.135e+06 L3.54049e+06,2.135e+06 L3.57536e+06,2.26085e+06 L3.61023e+06,2.29327e+06 L3.64509e+06,2.135e+06 L3.61023e+06,2.135e+06 L3.57536e+06,2.135e+06"/>
</g>

<g fill="#052e54" fill-opacity="0.780392" stroke="none" transform="matrix(5e-05,0,0,5e-05,-13.7382,-3)"
font-family="Arial" font-size="24" font-weight="700" font-style="normal"
>
<path vector-effect="none" fill-rule="evenodd" d="M3.67996e+06,2.135e+06 L3.64509e+06,2.135e+06 L3.67996e+06,2.30715e+06 L3.71483e+06,2.26802e+06 L3.7497e+06,2.2824e+06 L3.78457e+06,2.24419e+06 L3.81943e+06,2.135e+06 L3.78457e+06,2.135e+06 L3.7497e+06,2.135e+06 L3.71483e+06,2.135e+06 L3.67996e+06,2.135e+06"/>
</g>

<g fill="#052e54" fill-opacity="0.780392" stroke="none" transform="matrix(5e-05,0,0,5e-05,-13.7382,-3)"
font-family="Arial" font-size="24" font-weight="700" font-style="normal"
>
<path vector-effect="none" fill-rule="evenodd" d="M4.86547e+06,2.135e+06 L4.8306e+06,2.135e+06 L4.86547e+06,2.2654e+06 L4.90034e+06,2.58174e+06 L4.93521e+06,2.71196e+06 L4.97008e+06,2.68041e+06 L5.00494e+06,2.72973e+06 L5.03981e+06,2.89927e+06 L5.07468e+06,3.18247e+06 L5.10955e+06,2.97509e+06 L5.14442e+06,3.32118e+06 L5.17928e+06,3.27981e+06 L5.21415e+06,3.3719e+06 L5.24902e+06,3.2001e+06 L5.28389e+06,3.06663e+06 L5.31876e+06,3.06457e+06 L5.35362e+06,3.27644e+06 L5.38849e+06,2.95717e+06 L5.42336e+06,2.99796e+06 L5.45823e+06,3.11029e+06 L5.49309e+06,2.99816e+06 L5.52796e+06,2.92272e+06 L5.56283e+06,2.67994e+06 L5.5977e+06,2.57375e+06 L5.63257e+06,2.72428e+06 L5.66743e+06,2.83588e+06 L5.7023e+06,2.63092e+06 L5.73717e+06,2.72705e+06 L5.77204e+06,2.75944e+06 L5.80691e+06,2.66837e+06 L5.84177e+06,2.79002e+06 L5.87664e+06,2.90908e+06 L5.91151e+06,2.67698e+06 L5.94638e+06,2.69297e+06 L5.98125e+06,2.82648e+06 L6.01611e+06,2.80111e+06 L6.05098e+06,2.68441e+06 L6.08585e+06,2.73682e+06 L6.12072e+06,2.75271e+06 L6.15559e+06,2.80491e+06 L6.19045e+06,2.60616e+06 L6.22532e+06,2.47714e+06 L6.26019e+06,2.56394e+06 L6.29506e+06,2.56344e+06 L6.32992e+06,2.23095e+06 L6.36479e+06,2.17671e+06 L6.39966e+06,2.135e+06 L6.36479e+06,2.135e+06 L6.32992e+06,2.135e+06 L6.29506e+06,2.135e+06 L6.26019e+06,2.135e+06 L6.22532e+06,2.135e+06 L6.19045e+06,2.135e+06 L6.15559e+06,2.135e+06 L6.12072e+06,2.135e+06 L6.08585e+06,2.135e+06 L6.05098e+06,2.135e+06 L6.01611e+06,2.135e+06 L5.98125e+06,2.135e+06 L5.94638e+06,2.135e+06 L5.91151e+06,2.135e+06 L5.87664e+06,2.135e+06 L5.84177e+06,2.135e+06 L5.80691e+06,2.135e+06 L5.77204e+06,2.135e+06 L5.73717e+06,2.135e+06 L5.7023e+06,2.135e+06 L5.66743e+06,2.135e+06 L5.63257e+06,2.135e+06 L5.5977e+06,2.135e+06 L5.56283e+06,2.135e+06 L5.52796e+06,2.135e+06 L5.49309e+06,2.135e+06 L5.45823e+06,2.135e+06 L5.42336e+06,2.135e+06 L5.38849e+06,2.135e+06 L5.35362e+06,2.135e+06 L5.31876e+06,2.135e+06 L5.28389e+06,2.135e+06 L5.24902e+06,2.135e+06 L5.21415e+06,2.135e+06 L5.17928e+06,2.135e+06 L5.14442e+06,2.135e+06 L5.10955e+06,2.135e+06 L5.07468e+06,2.135e+06 L5.03981e+06,2.135e+06 L5.00494e+06,2.135e+06 L4.97008e+06,2.135e+06 L4.93521e+06,2.135e+06 L4.90034e+06,2.135e+06 L4.86547e+06,2.135e+06"/>
</g>

<g fill="none" stroke="#1f1f1f" stroke-opacity="1" stroke-width="2.8" stroke-linecap="butt" stroke-linejoin="round" transform="matrix(0.5,0,0,0.5,-13.7382,-3)"
font-family="Arial" font-size="24" font-weight="700" font-style="normal"
>
<polyline fill="none" vector-effect="none" points="103,162.171 106.487,155.775 109.974,145.295 113.46,138.844 116.947,145.208 120.434,160.044 123.921,144.26 127.408,148.57 130.894,169.164 134.381,158.34 137.868,162.084 141.355,176.188 144.842,157.022 148.328,165.239 151.815,143.587 155.302,168.916 158.789,159.014 162.275,155.635 165.762,151.881 169.249,131.035 172.736,120.488 176.223,127.359 179.709,104.507 183.196,129.813 186.683,106.407 190.17,96.9409 193.657,102.008 197.143,91.0974 200.63,86.6017 204.117,89.5388 207.604,98.9269 211.091,91.7932 214.577,90.8417 218.064,128.614 221.551,132.196 225.038,156.283 228.525,158.059 232.011,195.553 235.498,213.555 238.985,249.975 242.472,235.293 245.958,278.221 249.445,274.247 252.932,291.693 256.419,307.629 259.906,329.743 263.392,330.139 266.879,346.945 270.366,361.757 273.853,377.491 277.34,369.415 280.826,363.895 284.313,369.062 287.8,375.18 291.287,345.119 294.774,338.59 298.26,334.528 301.747,316.044 305.234,319.467 308.721,294.644 312.208,284.124 315.694,290.357 319.181,254.301 322.668,247.288 326.155,239.022 329.642,244.366 333.128,218.936 336.615,224.435 340.102,231.317 343.589,220.584 347.075,219.899 350.562,221.418 354.049,195.958 357.536,226.085 361.023,229.327 364.509,209.841 367.996,230.715 371.483,226.802 374.97,228.24 378.457,224.419 381.943,191.563 385.43,192.186 388.917,195.606 392.404,197.463 395.891,180.588 399.377,156.387 402.864,140.399 406.351,118.998 409.838,122.442 413.325,101.165 416.811,108.839 420.298,79.684 423.785,74.1881 427.272,97.8783 430.758,72.4707 434.245,60.1864 437.732,68.7362 441.219,82.6645 444.706,69.5881 448.192,68.5729 451.679,62.5579 455.166,81.1303 458.653,76.6145 462.14,101.441 465.626,113.268 469.113,111.156 472.6,159.253 476.087,169.068 479.574,212.905 483.06,203.757 486.547,226.54 490.034,258.174 493.521,271.196 497.008,268.041 500.494,272.973 503.981,289.927 507.468,318.247 510.955,297.509 514.442,332.118 517.928,327.981 521.415,337.19 524.902,320.01 528.389,306.663 531.875,306.457 535.362,327.644 538.849,295.717 542.336,299.796 545.823,311.029 549.309,299.816 552.796,292.272 556.283,267.994 559.77,257.375 563.257,272.428 566.743,283.587 570.23,263.092 573.717,272.705 577.204,275.944 580.691,266.837 584.177,279.002 587.664,290.908 591.151,267.698 594.638,269.297 598.125,282.648 601.611,280.111 605.098,268.441 608.585,273.682 612.072,275.271 615.559,280.491 619.045,260.616 622.532,247.714 626.019,256.394 629.506,256.344 632.992,223.095 636.479,217.671 639.966,204.918 643.453,176.548 646.94,151.546 650.426,151.39 653.913,130.711 657.4,120.101 " />
</g>

<g fill="#dbdbdb" fill-opacity="0.25098" stroke="#dbdbdb" stroke-opacity="0.25098" stroke-width="2.8" stroke-linecap="butt" stroke-linejoin="round" transform="matrix(0.5,0,0,0.5,-13.7382,-3)"
font-family="Arial" font-size="24" font-weight="700" font-style="normal"
>
<polyline fill="none" vector-effect="none" points="103,34 103,393 " />
<polyline fill="none" vector-effect="none" points="257,34 257,393 " />
<polyline fill="none" vector-effect="none" points="411,34 411,393 " />
<polyline fill="none" vector-effect="none" points="565,34 565,393 " />
<polyline fill="none" vector-effect="none" points="719,34 719,393 " />
<polyline fill="none" vector-effect="none" points="103,393 719,393 " />
<polyline fill="none" vector-effect="none" points="103,333.167 719,333.167 " />
<polyline fill="none" vector-effect="none" points="103,273.333 719,273.333 " />
<polyline fill="none" vector-effect="none" points="103,213.5 719,213.5 " />
<polyline fill="none" vector-effect="none" points="103,153.667 719,153.667 " />
<polyline fill="none" vector-effect="none" points="103,93.8333 719,93.8333 " />
<polyline fill="none" vector-effect="none" points="103,34 719,34 " />
</g>

<g fill="#1f1f1f" fill-opacity="1" stroke="#1f1f1f" stroke-opacity="1" stroke-width="1" stroke-linecap="square" stroke-linejoin="bevel" transform="matrix(0.5,0,0,0.5,179.762,221.216)"
font-family="Arial" font-size="22" font-weight="400" font-style="normal"
>
<text fill="#1f1f1f" fill-opacity="1" stroke="none" xml:space="preserve" x="0" y="-0.09375" font-family="Arial" font-size="22" font-weight="400" font-style="normal"
 >Time</text>
</g>

<g fill="#1f1f1f" fill-opacity="1" stroke="#1f1f1f" stroke-opacity="1" stroke-width="2.8" stroke-linecap="square" stroke-linejoin="round" transform="matrix(0.5,0,0,0.5,-13.7382,-3)"
font-family="Arial" font-size="22" font-weight="400" font-style="normal"
>
<polyline fill="none" vector-effect="none" points="103,393 719,393 " />
<polyline fill="none" vector-effect="none" points="103,399.16 103,393 " />
<polyline fill="none" vector-effect="none" points="257,399.16 257,393 " />
<polyline fill="none" vector-effect="none" points="411,399.16 411,393 " />
<polyline fill="none" vector-effect="none" points="565,399.16 565,393 " />
<polyline fill="none" vector-effect="none" points="719,399.16 719,393 " />
</g>

<g fill="#1f1f1f" fill-opacity="1" stroke="#1f1f1f" stroke-opacity="1" stroke-width="1" stroke-linecap="square" stroke-linejoin="bevel" transform="matrix(0.5,0,0,0.5,35.0118,208.671)"
font-family="Arial" font-size="20" font-weight="400" font-style="normal"
>
<text fill="#1f1f1f" fill-opacity="1" stroke="none" xml:space="preserve" x="0" y="0.09375" font-family="Arial" font-size="20" font-weight="400" font-style="normal"
 >0</text>
</g>

<g fill="#1f1f1f" fill-opacity="1" stroke="#1f1f1f" stroke-opacity="1" stroke-width="1" stroke-linecap="square" stroke-linejoin="bevel" transform="matrix(0.5,0,0,0.5,112.012,208.671)"
font-family="Arial" font-size="20" font-weight="400" font-style="normal"
>
<text fill="#1f1f1f" fill-opacity="1" stroke="none" xml:space="preserve" x="0" y="0.09375" font-family="Arial" font-size="20" font-weight="400" font-style="normal"
 >5</text>
</g>

<g fill="#1f1f1f" fill-opacity="1" stroke="#1f1f1f" stroke-opacity="1" stroke-width="1" stroke-linecap="square" stroke-linejoin="bevel" transform="matrix(0.5,0,0,0.5,186.262,208.671)"
font-family="Arial" font-size="20" font-weight="400" font-style="normal"
>
<text fill="#1f1f1f" fill-opacity="1" stroke="none" xml:space="preserve" x="0" y="0.09375" font-family="Arial" font-size="20" font-weight="400" font-style="normal"
 >10</text>
</g>

<g fill="#1f1f1f" fill-opacity="1" stroke="#1f1f1f" stroke-opacity="1" stroke-width="1" stroke-linecap="square" stroke-linejoin="bevel" transform="matrix(0.5,0,0,0.5,263.262,208.671)"
font-family="Arial" font-size="20" font-weight="400" font-style="normal"
>
<text fill="#1f1f1f" fill-opacity="1" stroke="none" xml:space="preserve" x="0" y="0.09375" font-family="Arial" font-size="20" font-weight="400" font-style="normal"
 >15</text>
</g>

<g fill="#1f1f1f" fill-opacity="1" stroke="#1f1f1f" stroke-opacity="1" stroke-width="1" stroke-linecap="square" stroke-linejoin="bevel" transform="matrix(0.5,0,0,0.5,340.262,208.671)"
font-family="Arial" font-size="20" font-weight="400" font-style="normal"
>
<text fill="#1f1f1f" fill-opacity="1" stroke="none" xml:space="preserve" x="0" y="0.09375" font-family="Arial" font-size="20" font-weight="400" font-style="normal"
 >20</text>
</g>

<g fill="#1f1f1f" fill-opacity="1" stroke="#1f1f1f" stroke-opacity="1" stroke-width="1" stroke-linecap="square" stroke-linejoin="bevel" transform="matrix(0,-0.5,0.5,0,9.5,157.5)"
font-family="Arial" font-size="22" font-weight="400" font-style="normal"
>
<text fill="#1f1f1f" fill-opacity="1" stroke="none" xml:space="preserve" x="0" y="-0.09375" font-family="Arial" font-size="22" font-weight="400" font-style="normal"
 >Change from baseline</text>
</g>

<g fill="#1f1f1f" fill-opacity="1" stroke="#1f1f1f" stroke-opacity="1" stroke-width="2.8" stroke-linecap="square" stroke-linejoin="round" transform="matrix(0.5,0,0,0.5,-13.7382,-3)"
font-family="Arial" font-size="22" font-weight="400" font-style="normal"
>
<polyline fill="none" vector-effect="none" points="103,393 103,34 " />
<polyline fill="none" vector-effect="none" points="96.84,393 103,393 " />
<polyline fill="none" vector-effect="none" points="96.84,333.167 103,333.167 " />
<polyline fill="none" vector-effect="none" points="96.84,273.333 103,273.333 " />
<polyline fill="none" vector-effect="none" points="96.84,213.5 103,213.5 " />
<polyline fill="none" vector-effect="none" points="96.84,153.667 103,153.667 " />
<polyline fill="none" vector-effect="none" points="96.84,93.8333 103,93.8333 " />
<polyline fill="none" vector-effect="none" points="96.84,34 103,34 " />
</g>

<g fill="#1f1f1f" fill-opacity="1" stroke="#1f1f1f" stroke-opacity="1" stroke-width="1" stroke-linecap="square" stroke-linejoin="bevel" transform="matrix(0.5,0,0,0.5,14.5909,197)"
font-family="Arial" font-size="20" font-weight="400" font-style="normal"
>
<text fill="#1f1f1f" fill-opacity="1" stroke="none" xml:space="preserve" x="0" y="0.09375" font-family="Arial" font-size="20" font-weight="400" font-style="normal"
 >-0.6</text>
</g>

<g fill="#1f1f1f" fill-opacity="1" stroke="#1f1f1f" stroke-opacity="1" stroke-width="1" stroke-linecap="square" stroke-linejoin="bevel" transform="matrix(0.5,0,0,0.5,14.5909,167.083)"
font-family="Arial" font-size="20" font-weight="400" font-style="normal"
>
<text fill="#1f1f1f" fill-opacity="1" stroke="none" xml:space="preserve" x="0" y="0.09375" font-family="Arial" font-size="20" font-weight="400" font-style="normal"
 >-0.4</text>
</g>

<g fill="#1f1f1f" fill-opacity="1" stroke="#1f1f1f" stroke-opacity="1" stroke-width="1" stroke-linecap="square" stroke-linejoin="bevel" transform="matrix(0.5,0,0,0.5,14.5909,137.167)"
font-family="Arial" font-size="20" font-weight="400" font-style="normal"
>
<text fill="#1f1f1f" fill-opacity="1" stroke="none" xml:space="preserve" x="0" y="0.09375" font-family="Arial" font-size="20" font-weight="400" font-style="normal"
 >-0.2</text>
</g>

<g fill="#1f1f1f" fill-opacity="1" stroke="#1f1f1f" stroke-opacity="1" stroke-width="1" stroke-linecap="square" stroke-linejoin="bevel" transform="matrix(0.5,0,0,0.5,26.0909,107.25)"
font-family="Arial" font-size="20" font-weight="400" font-style="normal"
>
<text fill="#1f1f1f" fill-opacity="1" stroke="none" xml:space="preserve" x="0" y="0.09375" font-family="Arial" font-size="20" font-weight="400" font-style="normal"
 >0</text>
</g>

<g fill="#1f1f1f" fill-opacity="1" stroke="#1f1f1f" stroke-opacity="1" stroke-width="1" stroke-linecap="square" stroke-linejoin="bevel" transform="matrix(0.5,0,0,0.5,17.5909,77.3333)"
font-family="Arial" font-size="20" font-weight="400" font-style="normal"
>
<text fill="#1f1f1f" fill-opacity="1" stroke="none" xml:space="preserve" x="0" y="0.09375" font-family="Arial" font-size="20" font-weight="400" font-style="normal"
 >0.2</text>
</g>

<g fill="#1f1f1f" fill-opacity="1" stroke="#1f1f1f" stroke-opacity="1" stroke-width="1" stroke-linecap="square" stroke-linejoin="bevel" transform="matrix(0.5,0,0,0.5,17.5909,47.4167)"
font-family="Arial" font-size="20" font-weight="400" font-style="normal"
>
<text fill="#1f1f1f" fill-opacity="1" stroke="none" xml:space="preserve" x="0" y="0.09375" font-family="Arial" font-size="20" font-weight="400" font-style="normal"
 >0.4</text>
</g>

<g fill="#1f1f1f" fill-opacity="1" stroke="#1f1f1f" stroke-opacity="1" stroke-width="1" stroke-linecap="square" stroke-linejoin="bevel" transform="matrix(0.5,0,0,0.5,17.5909,17.5)"
font-family="Arial" font-size="20" font-weight="400" font-style="normal"
>
<text fill="#1f1f1f" fill-opacity="1" stroke="none" xml:space="preserve" x="0" y="0.09375" font-family="Arial" font-size="20" font-weight="400" font-style="normal"
 >0.6</text>
</g>

<g fill="#595959" fill-opacity="0.701961" stroke="#595959" stroke-opacity="0.701961" stroke-width="1.6" stroke-linecap="butt" stroke-linejoin="round" transform="matrix(0.5,0,0,0.5,-13.7382,-3)"
font-family="Arial" font-size="20" font-weight="400" font-style="normal"
>
<polyline fill="none" vector-effect="none" points="103,213.5 719,213.5 " />
</g>

<g fill="#f29e1f" fill-opacity="0.780392" stroke="none" transform="matrix(5e-05,0,0,5e-05,-13.7382,-3)"
font-family="Arial" font-size="20" font-weight="400" font-style="normal"
>
<path vector-effect="none" fill-rule="evenodd" d="M5.53981e+06,557108 L5.53981e+06,720986 L6.13788e+06,720986 L6.13788e+06,557108 L5.53981e+06,557108"/>
</g>

<g fill="#052e54" fill-opacity="0.780392" stroke="none" transform="matrix(5e-05,0,0,5e-05,-13.7382,-3)"
font-family="Arial" font-size="20" font-weight="400" font-style="normal"
>
<path vector-effect="none" fill-rule="evenodd" d="M5.53981e+06,783061 L5.53981e+06,946938 L6.13788e+06,946938 L6.13788e+06,783061 L5.53981e+06,783061"/>
</g>

<g fill="#1f1f1f" fill-opacity="1" stroke="#1f1f1f" stroke-opacity="1" stroke-width="2.8" stroke-linecap="butt" stroke-linejoin="round" transform="matrix(0.5,0,0,0.5,-13.7382,-3)"
font-family="Arial" font-size="20" font-weight="400" font-style="normal"
>
<polyline fill="none" vector-effect="none" points="553.981,109.095 613.788,109.095 " />
</g>

<g fill="#1f1f1f" fill-opacity="1" stroke="#1f1f1f" stroke-opacity="1" stroke-width="1" stroke-linecap="square" stroke-linejoin="bevel" transform="matrix(0.5,0,0,0.5,295.398,32.4524)"
font-family="Arial" font-size="20" font-weight="400" font-style="normal"
>
<text fill="#1f1f1f" fill-opacity="1" stroke="none" xml:space="preserve" x="0" y="0.09375" font-family="Arial" font-size="20" font-weight="400" font-style="normal"
 >Positive</text>
</g>

<g fill="#1f1f1f" fill-opacity="1" stroke="#1f1f1f" stroke-opacity="1" stroke-width="1" stroke-linecap="square" stroke-linejoin="bevel" transform="matrix(0.5,0,0,0.5,295.398,43.75)"
font-family="Arial" font-size="20" font-weight="400" font-style="normal"
>
<text fill="#1f1f1f" fill-opacity="1" stroke="none" xml:space="preserve" x="0" y="0.09375" font-family="Arial" font-size="20" font-weight="400" font-style="normal"
 >Negative</text>
</g>

<g fill="#1f1f1f" fill-opacity="1" stroke="#1f1f1f" stroke-opacity="1" stroke-width="1" stroke-linecap="square" stroke-linejoin="bevel" transform="matrix(0.5,0,0,0.5,295.398,55.0476)"
font-family="Arial" font-size="20" font-weight="400" font-style="normal"
>
<text fill="#1f1f1f" fill-opacity="1" stroke="none" xml:space="preserve" x="0" y="0.09375" font-family="Arial" font-size="20" font-weight="400" font-style="normal"
 >Signal</text>
</g>
</g>
</svg>
