<?xml version="1.0" encoding="UTF-8" standalone="no"?>
<svg width="118.533mm" height="83.2556mm"
 viewBox="0 0 336 236"
 xmlns="http://www.w3.org/2000/svg" xmlns:xlink="http://www.w3.org/1999/xlink"  version="1.2" baseProfile="tiny">
<title>Qt SVG Document</title>
<desc>Clean-room gallery output</desc>
<defs>
</defs>
<g fill="none" stroke="black" stroke-width="1" fill-rule="evenodd" stroke-linecap="square" stroke-linejoin="bevel" >

<g fill="#ffffff" fill-opacity="1" stroke="none" transform="matrix(0.5,0,0,0.5,-0.568178,-3.99999)"
font-family=".AppleSystemUIFont" font-size="13" font-weight="400" font-style="normal"
>
<path vector-effect="none" fill-rule="evenodd" d="M0,6 L672,6 L672,479 L0,479 L0,6"/>
</g>

<g fill="#ffffff" fill-opacity="1" stroke="none" transform="matrix(5e-05,0,0,5e-05,-0.568178,-3.99999)"
font-family=".AppleSystemUIFont" font-size="13" font-weight="400" font-style="normal"
>
<path vector-effect="none" fill-rule="evenodd" d="M1.17e+06,360000 L1.17e+06,4.22e+06 L6.67e+06,4.22e+06 L6.67e+06,360000 L1.17e+06,360000"/>
</g>

<g fill="#1f1f1f" fill-opacity="1" stroke="#1f1f1f" stroke-opacity="1" stroke-width="1" stroke-linecap="square" stroke-linejoin="bevel" transform="matrix(0.5,0,0,0.5,155.432,10)"
font-family="Arial" font-size="24" font-weight="700" font-style="normal"
>
<text fill="#1f1f1f" fill-opacity="1" stroke="none" xml:space="preserve" x="0" y="-0.28125" font-family="Arial" font-size="24" font-weight="700" font-style="normal"
 >Ridgeline Plot</text>
</g>

<g fill="#0073b3" fill-opacity="0.760784" stroke="none" transform="matrix(5e-05,0,0,5e-05,-0.568178,-3.99999)"
font-family="Arial" font-size="24" font-weight="700" font-style="normal"
>
<path vector-effect="none" fill-rule="evenodd" d="M1.23111e+06,3.89833e+06 L1.35333e+06,3.89833e+06 L1.47556e+06,3.89833e+06 L1.59778e+06,3.89833e+06 L1.72e+06,3.89833e+06 L1.84222e+06,3.89833e+06 L1.96444e+06,3.89833e+06 L2.08667e+06,3.89833e+06 L2.20889e+06,3.89833e+06 L2.33111e+06,3.89833e+06 L2.45333e+06,3.89833e+06 L2.57556e+06,3.89833e+06 L2.69778e+06,3.89833e+06 L2.82e+06,3.89833e+06 L2.94222e+06,3.89833e+06 L3.06444e+06,3.89833e+06 L3.18667e+06,3.89833e+06 L3.30889e+06,3.89833e+06 L3.43111e+06,3.89833e+06 L3.55333e+06,3.89833e+06 L3.67556e+06,3.89833e+06 L3.79778e+06,3.89833e+06 L3.92e+06,3.89833e+06 L4.04222e+06,3.89833e+06 L4.16444e+06,3.89833e+06 L4.04222e+06,3.89128e+06 L3.92e+06,3.87718e+06 L3.79778e+06,3.84898e+06 L3.67556e+06,3.81373e+06 L3.55333e+06,3.76438e+06 L3.43111e+06,3.6974e+06 L3.30889e+06,3.59165e+06 L3.18667e+06,3.47884e+06 L3.06444e+06,3.40129e+06 L2.94222e+06,3.38367e+06 L2.82e+06,3.40834e+06 L2.69778e+06,3.40834e+06 L2.57556e+06,3.41539e+06 L2.45333e+06,3.39777e+06 L2.33111e+06,3.42949e+06 L2.20889e+06,3.49647e+06 L2.08667e+06,3.61632e+06 L1.96444e+06,3.74323e+06 L1.84222e+06,3.81373e+06 L1.72e+06,3.85251e+06 L1.59778e+06,3.85603e+06 L1.47556e+06,3.87718e+06 L1.35333e+06,3.88776e+06 L1.23111e+06,3.89833e+06"/>
</g>

<g fill="none" stroke="#005686" stroke-opacity="1" stroke-width="2.8" stroke-linecap="butt" stroke-linejoin="round" transform="matrix(0.5,0,0,0.5,-0.568178,-3.99999)"
font-family="Arial" font-size="24" font-weight="700" font-style="normal"
>
<polyline fill="none" vector-effect="none" points="123.111,389.833 135.333,388.776 147.556,387.718 159.778,385.603 172,385.251 184.222,381.373 196.444,374.323 208.667,361.632 220.889,349.647 233.111,342.949 245.333,339.777 257.556,341.539 269.778,340.834 282,340.834 294.222,338.367 306.444,340.129 318.667,347.884 330.889,359.165 343.111,369.74 355.333,376.438 367.556,381.373 379.778,384.898 392,387.718 404.222,389.128 416.444,389.833 428.667,389.833 440.889,389.833 453.111,389.833 465.333,389.833 477.556,389.833 489.778,389.833 502,389.833 514.222,389.833 526.444,389.833 538.667,389.833 550.889,389.833 563.111,389.833 575.333,389.833 587.556,389.833 599.778,389.833 612,389.833 624.222,389.833 636.444,389.833 648.667,389.833 660.889,389.833 " />
</g>

<g fill="#e69e00" fill-opacity="0.760784" stroke="none" transform="matrix(5e-05,0,0,5e-05,-0.568178,-3.99999)"
font-family="Arial" font-size="24" font-weight="700" font-style="normal"
>
<path vector-effect="none" fill-rule="evenodd" d="M3.06444e+06,2.88449e+06 L2.94222e+06,2.94775e+06 L2.82e+06,3.01963e+06 L2.69778e+06,3.08576e+06 L2.57556e+06,3.13464e+06 L2.45333e+06,3.16627e+06 L2.33111e+06,3.18064e+06 L2.20889e+06,3.18352e+06 L2.33111e+06,3.18352e+06 L2.45333e+06,3.18352e+06 L2.57556e+06,3.18352e+06 L2.69778e+06,3.18352e+06 L2.82e+06,3.18352e+06 L2.94222e+06,3.18352e+06 L3.06444e+06,3.18352e+06 L3.18667e+06,3.18352e+06 L3.30889e+06,3.18352e+06 L3.43111e+06,3.18352e+06 L3.55333e+06,3.18352e+06 L3.67556e+06,3.18352e+06 L3.79778e+06,3.18352e+06 L3.92e+06,3.18352e+06 L4.04222e+06,3.18352e+06 L4.16444e+06,3.18352e+06 L4.28667e+06,3.18352e+06 L4.40889e+06,3.18352e+06 L4.53111e+06,3.18352e+06 L4.65333e+06,3.18352e+06 L4.77556e+06,3.18352e+06 L4.65333e+06,3.17777e+06 L4.53111e+06,3.16052e+06 L4.40889e+06,3.12314e+06 L4.28667e+06,3.06851e+06 L4.16444e+06,2.988e+06 L4.04222e+06,2.88737e+06 L3.92e+06,2.78386e+06 L3.79778e+06,2.70335e+06 L3.67556e+06,2.66885e+06 L3.55333e+06,2.68035e+06 L3.43111e+06,2.72923e+06 L3.30889e+06,2.78674e+06 L3.18667e+06,2.83562e+06 L3.06444e+06,2.88449e+06"/>
</g>

<g fill="none" stroke="#ac7700" stroke-opacity="1" stroke-width="2.8" stroke-linecap="butt" stroke-linejoin="round" transform="matrix(0.5,0,0,0.5,-0.568178,-3.99999)"
font-family="Arial" font-size="24" font-weight="700" font-style="normal"
>
<polyline fill="none" vector-effect="none" points="123.111,318.352 135.333,318.352 147.556,318.352 159.778,318.352 172,318.352 184.222,318.352 196.444,318.352 208.667,318.352 220.889,318.352 233.111,318.064 245.333,316.627 257.556,313.464 269.778,308.576 282,301.963 294.222,294.775 306.444,288.449 318.667,283.562 330.889,278.674 343.111,272.923 355.333,268.035 367.556,266.885 379.778,270.335 392,278.386 404.222,288.737 416.444,298.8 428.667,306.851 440.889,312.314 453.111,316.052 465.333,317.777 477.556,318.352 489.778,318.352 502,318.352 514.222,318.352 526.444,318.352 538.667,318.352 550.889,318.352 563.111,318.352 575.333,318.352 587.556,318.352 599.778,318.352 612,318.352 624.222,318.352 636.444,318.352 648.667,318.352 660.889,318.352 " />
</g>

<g fill="#009e73" fill-opacity="0.760784" stroke="none" transform="matrix(5e-05,0,0,5e-05,-0.568178,-3.99999)"
font-family="Arial" font-size="24" font-weight="700" font-style="normal"
>
<path vector-effect="none" fill-rule="evenodd" d="M1.72e+06,2.4687e+06 L1.84222e+06,2.4687e+06 L1.96444e+06,2.4687e+06 L2.08667e+06,2.4687e+06 L2.20889e+06,2.4687e+06 L2.33111e+06,2.4687e+06 L2.45333e+06,2.4687e+06 L2.57556e+06,2.4687e+06 L2.69778e+06,2.4687e+06 L2.82e+06,2.4687e+06 L2.94222e+06,2.4687e+06 L3.06444e+06,2.4687e+06 L3.18667e+06,2.4687e+06 L3.30889e+06,2.4687e+06 L3.43111e+06,2.4687e+06 L3.55333e+06,2.4687e+06 L3.67556e+06,2.4687e+06 L3.79778e+06,2.4687e+06 L3.92e+06,2.4687e+06 L4.04222e+06,2.4687e+06 L4.16444e+06,2.4687e+06 L4.28667e+06,2.4687e+06 L4.40889e+06,2.4687e+06 L4.53111e+06,2.4687e+06 L4.65333e+06,2.4687e+06 L4.77556e+06,2.4687e+06 L4.89778e+06,2.4687e+06 L5.02e+06,2.4687e+06 L5.14222e+06,2.4687e+06 L5.26444e+06,2.4687e+06 L5.38667e+06,2.4687e+06 L5.50889e+06,2.4687e+06 L5.63111e+06,2.4687e+06 L5.75333e+06,2.4687e+06 L5.87556e+06,2.4687e+06 L5.99778e+06,2.4687e+06 L5.87556e+06,2.46474e+06 L5.75333e+06,2.45683e+06 L5.63111e+06,2.44891e+06 L5.50889e+06,2.44099e+06 L5.38667e+06,2.42911e+06 L5.26444e+06,2.41328e+06 L5.14222e+06,2.38557e+06 L5.02e+06,2.36577e+06 L4.89778e+06,2.31826e+06 L4.77556e+06,2.27867e+06 L4.65333e+06,2.19553e+06 L4.53111e+06,2.12031e+06 L4.40889e+06,2.04113e+06 L4.28667e+06,1.98967e+06 L4.16444e+06,1.96987e+06 L4.04222e+06,1.95404e+06 L3.92e+06,1.958e+06 L3.79778e+06,1.958e+06 L3.67556e+06,1.958e+06 L3.55333e+06,2.00154e+06 L3.43111e+06,2.07677e+06 L3.30889e+06,2.20345e+06 L3.18667e+06,2.29847e+06 L3.06444e+06,2.36973e+06 L2.94222e+06,2.40536e+06 L2.82e+06,2.42516e+06 L2.69778e+06,2.43307e+06 L2.57556e+06,2.44099e+06 L2.45333e+06,2.44891e+06 L2.33111e+06,2.45287e+06 L2.20889e+06,2.44891e+06 L2.08667e+06,2.44891e+06 L1.96444e+06,2.45683e+06 L1.84222e+06,2.46474e+06 L1.72e+06,2.4687e+06"/>
</g>

<g fill="none" stroke="#007756" stroke-opacity="1" stroke-width="2.8" stroke-linecap="butt" stroke-linejoin="round" transform="matrix(0.5,0,0,0.5,-0.568178,-3.99999)"
font-family="Arial" font-size="24" font-weight="700" font-style="normal"
>
<polyline fill="none" vector-effect="none" points="123.111,246.87 135.333,246.87 147.556,246.87 159.778,246.87 172,246.87 184.222,246.474 196.444,245.683 208.667,244.891 220.889,244.891 233.111,245.287 245.333,244.891 257.556,244.099 269.778,243.307 282,242.516 294.222,240.536 306.444,236.973 318.667,229.847 330.889,220.345 343.111,207.677 355.333,200.154 367.556,195.8 379.778,195.8 392,195.8 404.222,195.404 416.444,196.987 428.667,198.967 440.889,204.113 453.111,212.031 465.333,219.553 477.556,227.867 489.778,231.826 502,236.577 514.222,238.557 526.444,241.328 538.667,242.911 550.889,244.099 563.111,244.891 575.333,245.683 587.556,246.474 599.778,246.87 612,246.87 624.222,246.87 636.444,246.87 648.667,246.87 660.889,246.87 " />
</g>

<g fill="#d65e00" fill-opacity="0.760784" stroke="none" transform="matrix(5e-05,0,0,5e-05,-0.568178,-3.99999)"
font-family="Arial" font-size="24" font-weight="700" font-style="normal"
>
<path vector-effect="none" fill-rule="evenodd" d="M3.18667e+06,1.75389e+06 L3.30889e+06,1.75389e+06 L3.43111e+06,1.75389e+06 L3.55333e+06,1.75389e+06 L3.67556e+06,1.75389e+06 L3.79778e+06,1.75389e+06 L3.92e+06,1.75389e+06 L4.04222e+06,1.75389e+06 L4.16444e+06,1.75389e+06 L4.28667e+06,1.75389e+06 L4.40889e+06,1.75389e+06 L4.53111e+06,1.75389e+06 L4.65333e+06,1.75389e+06 L4.77556e+06,1.75389e+06 L4.89778e+06,1.75389e+06 L5.02e+06,1.75389e+06 L5.14222e+06,1.75389e+06 L5.26444e+06,1.75389e+06 L5.38667e+06,1.75389e+06 L5.50889e+06,1.75389e+06 L5.63111e+06,1.75389e+06 L5.50889e+06,1.73623e+06 L5.38667e+06,1.68577e+06 L5.26444e+06,1.59242e+06 L5.14222e+06,1.47385e+06 L5.02e+06,1.36032e+06 L4.89778e+06,1.26193e+06 L4.77556e+06,1.23922e+06 L4.65333e+06,1.25184e+06 L4.53111e+06,1.30986e+06 L4.40889e+06,1.34518e+06 L4.28667e+06,1.42087e+06 L4.16444e+06,1.52683e+06 L4.04222e+06,1.63784e+06 L3.92e+06,1.70343e+06 L3.79778e+06,1.72361e+06 L3.67556e+06,1.73118e+06 L3.55333e+06,1.73875e+06 L3.43111e+06,1.74632e+06 L3.30889e+06,1.75137e+06 L3.18667e+06,1.75389e+06"/>
</g>

<g fill="none" stroke="#a14700" stroke-opacity="1" stroke-width="2.8" stroke-linecap="butt" stroke-linejoin="round" transform="matrix(0.5,0,0,0.5,-0.568178,-3.99999)"
font-family="Arial" font-size="24" font-weight="700" font-style="normal"
>
<polyline fill="none" vector-effect="none" points="123.111,175.389 135.333,175.389 147.556,175.389 159.778,175.389 172,175.389 184.222,175.389 196.444,175.389 208.667,175.389 220.889,175.389 233.111,175.389 245.333,175.389 257.556,175.389 269.778,175.389 282,175.389 294.222,175.389 306.444,175.389 318.667,175.389 330.889,175.137 343.111,174.632 355.333,173.875 367.556,173.118 379.778,172.361 392,170.343 404.222,163.784 416.444,152.683 428.667,142.087 440.889,134.518 453.111,130.986 465.333,125.184 477.556,123.922 489.778,126.193 502,136.032 514.222,147.385 526.444,159.242 538.667,168.577 550.889,173.623 563.111,175.389 575.333,175.389 587.556,175.389 599.778,175.389 612,175.389 624.222,175.389 636.444,175.389 648.667,175.389 660.889,175.389 " />
</g>

<g fill="#cc78a6" fill-opacity="0.760784" stroke="none" transform="matrix(5e-05,0,0,5e-05,-0.568178,-3.99999)"
font-family="Arial" font-size="24" font-weight="700" font-style="normal"
>
<path vector-effect="none" fill-rule="evenodd" d="M3.92e+06,971099 L3.79778e+06,1.00994e+06 L3.67556e+06,1.02936e+06 L3.55333e+06,1.03907e+06 L3.67556e+06,1.03907e+06 L3.79778e+06,1.03907e+06 L3.92e+06,1.03907e+06 L4.04222e+06,1.03907e+06 L4.16444e+06,1.03907e+06 L4.28667e+06,1.03907e+06 L4.40889e+06,1.03907e+06 L4.53111e+06,1.03907e+06 L4.65333e+06,1.03907e+06 L4.77556e+06,1.03907e+06 L4.89778e+06,1.03907e+06 L5.02e+06,1.03907e+06 L5.14222e+06,1.03907e+06 L5.26444e+06,1.03907e+06 L5.38667e+06,1.03907e+06 L5.50889e+06,1.03907e+06 L5.63111e+06,1.03907e+06 L5.75333e+06,1.03907e+06 L5.87556e+06,1.03907e+06 L5.99778e+06,1.03907e+06 L6.12e+06,1.03907e+06 L6.24222e+06,1.03907e+06 L6.36444e+06,1.03907e+06 L6.48667e+06,1.03907e+06 L6.60889e+06,1.03907e+06 L6.48667e+06,1.0326e+06 L6.36444e+06,1.02613e+06 L6.24222e+06,1.00671e+06 L6.12e+06,977573 L5.99778e+06,941967 L5.87556e+06,886940 L5.75333e+06,844860 L5.63111e+06,789833 L5.50889e+06,760701 L5.38667e+06,705673 L5.26444e+06,640935 L5.14222e+06,598856 L5.02e+06,566487 L4.89778e+06,543828 L4.77556e+06,524407 L4.65333e+06,579434 L4.53111e+06,712147 L4.40889e+06,822202 L4.28667e+06,886940 L4.16444e+06,899887 L4.04222e+06,935493 L3.92e+06,971099"/>
</g>

<g fill="none" stroke="#995a7c" stroke-opacity="1" stroke-width="2.8" stroke-linecap="butt" stroke-linejoin="round" transform="matrix(0.5,0,0,0.5,-0.568178,-3.99999)"
font-family="Arial" font-size="24" font-weight="700" font-style="normal"
>
<polyline fill="none" vector-effect="none" points="123.111,103.907 135.333,103.907 147.556,103.907 159.778,103.907 172,103.907 184.222,103.907 196.444,103.907 208.667,103.907 220.889,103.907 233.111,103.907 245.333,103.907 257.556,103.907 269.778,103.907 282,103.907 294.222,103.907 306.444,103.907 318.667,103.907 330.889,103.907 343.111,103.907 355.333,103.907 367.556,102.936 379.778,100.994 392,97.1099 404.222,93.5493 416.444,89.9888 428.667,88.694 440.889,82.2202 453.111,71.2148 465.333,57.9435 477.556,52.4408 489.778,54.3829 502,56.6487 514.222,59.8856 526.444,64.0936 538.667,70.5674 550.889,76.0701 563.111,78.9833 575.333,84.486 587.556,88.694 599.778,94.1967 612,97.7573 624.222,100.671 636.444,102.613 648.667,103.26 660.889,103.907 " />
</g>

<g fill="#dbdbdb" fill-opacity="0.25098" stroke="#dbdbdb" stroke-opacity="0.25098" stroke-width="2.8" stroke-linecap="butt" stroke-linejoin="round" transform="matrix(0.5,0,0,0.5,-0.568178,-3.99999)"
font-family="Arial" font-size="24" font-weight="700" font-style="normal"
>
<polyline fill="none" vector-effect="none" points="168.046,36 168.046,422 " />
<polyline fill="none" vector-effect="none" points="274.55,36 274.55,422 " />
<polyline fill="none" vector-effect="none" points="381.053,36 381.053,422 " />
<polyline fill="none" vector-effect="none" points="487.557,36 487.557,422 " />
<polyline fill="none" vector-effect="none" points="594.061,36 594.061,422 " />
<polyline fill="none" vector-effect="none" points="117,389.833 667,389.833 " />
<polyline fill="none" vector-effect="none" points="117,318.352 667,318.352 " />
<polyline fill="none" vector-effect="none" points="117,246.87 667,246.87 " />
<polyline fill="none" vector-effect="none" points="117,175.389 667,175.389 " />
<polyline fill="none" vector-effect="none" points="117,103.907 667,103.907 " />
</g>

<g fill="#1f1f1f" fill-opacity="1" stroke="#1f1f1f" stroke-opacity="1" stroke-width="1" stroke-linecap="square" stroke-linejoin="bevel" transform="matrix(0.5,0,0,0.5,181.682,234.386)"
font-family="Arial" font-size="22" font-weight="400" font-style="normal"
>
<text fill="#1f1f1f" fill-opacity="1" stroke="none" xml:space="preserve" x="0" y="-0.09375" font-family="Arial" font-size="22" font-weight="400" font-style="normal"
 >Value</text>
</g>

<g fill="#1f1f1f" fill-opacity="1" stroke="#1f1f1f" stroke-opacity="1" stroke-width="2.8" stroke-linecap="square" stroke-linejoin="round" transform="matrix(0.5,0,0,0.5,-0.568178,-3.99999)"
font-family="Arial" font-size="22" font-weight="400" font-style="normal"
>
<polyline fill="none" vector-effect="none" points="117,422 667,422 " />
<polyline fill="none" vector-effect="none" points="168.046,427.5 168.046,422 " />
<polyline fill="none" vector-effect="none" points="274.55,427.5 274.55,422 " />
<polyline fill="none" vector-effect="none" points="381.053,427.5 381.053,422 " />
<polyline fill="none" vector-effect="none" points="487.557,427.5 487.557,422 " />
<polyline fill="none" vector-effect="none" points="594.061,427.5 594.061,422 " />
</g>

<g fill="#1f1f1f" fill-opacity="1" stroke="#1f1f1f" stroke-opacity="1" stroke-width="1" stroke-linecap="square" stroke-linejoin="bevel" transform="matrix(0.5,0,0,0.5,78.9549,221.841)"
font-family="Arial" font-size="20" font-weight="400" font-style="normal"
>
<text fill="#1f1f1f" fill-opacity="1" stroke="none" xml:space="preserve" x="0" y="0.09375" font-family="Arial" font-size="20" font-weight="400" font-style="normal"
 >-2</text>
</g>

<g fill="#1f1f1f" fill-opacity="1" stroke="#1f1f1f" stroke-opacity="1" stroke-width="1" stroke-linecap="square" stroke-linejoin="bevel" transform="matrix(0.5,0,0,0.5,132.207,221.841)"
font-family="Arial" font-size="20" font-weight="400" font-style="normal"
>
<text fill="#1f1f1f" fill-opacity="1" stroke="none" xml:space="preserve" x="0" y="0.09375" font-family="Arial" font-size="20" font-weight="400" font-style="normal"
 >-1</text>
</g>

<g fill="#1f1f1f" fill-opacity="1" stroke="#1f1f1f" stroke-opacity="1" stroke-width="1" stroke-linecap="square" stroke-linejoin="bevel" transform="matrix(0.5,0,0,0.5,187.209,221.841)"
font-family="Arial" font-size="20" font-weight="400" font-style="normal"
>
<text fill="#1f1f1f" fill-opacity="1" stroke="none" xml:space="preserve" x="0" y="0.09375" font-family="Arial" font-size="20" font-weight="400" font-style="normal"
 >0</text>
</g>

<g fill="#1f1f1f" fill-opacity="1" stroke="#1f1f1f" stroke-opacity="1" stroke-width="1" stroke-linecap="square" stroke-linejoin="bevel" transform="matrix(0.5,0,0,0.5,240.46,221.841)"
font-family="Arial" font-size="20" font-weight="400" font-style="normal"
>
<text fill="#1f1f1f" fill-opacity="1" stroke="none" xml:space="preserve" x="0" y="0.09375" font-family="Arial" font-size="20" font-weight="400" font-style="normal"
 >1</text>
</g>

<g fill="#1f1f1f" fill-opacity="1" stroke="#1f1f1f" stroke-opacity="1" stroke-width="1" stroke-linecap="square" stroke-linejoin="bevel" transform="matrix(0.5,0,0,0.5,293.712,221.841)"
font-family="Arial" font-size="20" font-weight="400" font-style="normal"
>
<text fill="#1f1f1f" fill-opacity="1" stroke="none" xml:space="preserve" x="0" y="0.09375" font-family="Arial" font-size="20" font-weight="400" font-style="normal"
 >2</text>
</g>

<g fill="#1f1f1f" fill-opacity="1" stroke="#1f1f1f" stroke-opacity="1" stroke-width="1" stroke-linecap="square" stroke-linejoin="bevel" transform="matrix(0,-0.5,0.5,0,9.5,125.75)"
font-family="Arial" font-size="22" font-weight="400" font-style="normal"
>
<text fill="#1f1f1f" fill-opacity="1" stroke="none" xml:space="preserve" x="0" y="-0.09375" font-family="Arial" font-size="22" font-weight="400" font-style="normal"
 >Group</text>
</g>

<g fill="#1f1f1f" fill-opacity="1" stroke="#1f1f1f" stroke-opacity="1" stroke-width="2.8" stroke-linecap="square" stroke-linejoin="round" transform="matrix(0.5,0,0,0.5,-0.568178,-3.99999)"
font-family="Arial" font-size="22" font-weight="400" font-style="normal"
>
<polyline fill="none" vector-effect="none" points="117,422 117,36 " />
<polyline fill="none" vector-effect="none" points="111.5,389.833 117,389.833 " />
<polyline fill="none" vector-effect="none" points="111.5,318.352 117,318.352 " />
<polyline fill="none" vector-effect="none" points="111.5,246.87 117,246.87 " />
<polyline fill="none" vector-effect="none" points="111.5,175.389 117,175.389 " />
<polyline fill="none" vector-effect="none" points="111.5,103.907 117,103.907 " />
</g>

<g fill="#1f1f1f" fill-opacity="1" stroke="#1f1f1f" stroke-opacity="1" stroke-width="1" stroke-linecap="square" stroke-linejoin="bevel" transform="matrix(0.5,0,0,0.5,15.5909,194.417)"
font-family="Arial" font-size="20" font-weight="400" font-style="normal"
>
<text fill="#1f1f1f" fill-opacity="1" stroke="none" xml:space="preserve" x="0" y="0.09375" font-family="Arial" font-size="20" font-weight="400" font-style="normal"
 >Group A</text>
</g>

<g fill="#1f1f1f" fill-opacity="1" stroke="#1f1f1f" stroke-opacity="1" stroke-width="1" stroke-linecap="square" stroke-linejoin="bevel" transform="matrix(0.5,0,0,0.5,15.0909,158.676)"
font-family="Arial" font-size="20" font-weight="400" font-style="normal"
>
<text fill="#1f1f1f" fill-opacity="1" stroke="none" xml:space="preserve" x="0" y="0.09375" font-family="Arial" font-size="20" font-weight="400" font-style="normal"
 >Group B</text>
</g>

<g fill="#1f1f1f" fill-opacity="1" stroke="#1f1f1f" stroke-opacity="1" stroke-width="1" stroke-linecap="square" stroke-linejoin="bevel" transform="matrix(0.5,0,0,0.5,14.0909,122.935)"
font-family="Arial" font-size="20" font-weight="400" font-style="normal"
>
<text fill="#1f1f1f" fill-opacity="1" stroke="none" xml:space="preserve" x="0" y="0.09375" font-family="Arial" font-size="20" font-weight="400" font-style="normal"
 >Group C</text>
</g>

<g fill="#1f1f1f" fill-opacity="1" stroke="#1f1f1f" stroke-opacity="1" stroke-width="1" stroke-linecap="square" stroke-linejoin="bevel" transform="matrix(0.5,0,0,0.5,14.0909,87.1945)"
font-family="Arial" font-size="20" font-weight="400" font-style="normal"
>
<text fill="#1f1f1f" fill-opacity="1" stroke="none" xml:space="preserve" x="0" y="0.09375" font-family="Arial" font-size="20" font-weight="400" font-style="normal"
 >Group D</text>
</g>

<g fill="#1f1f1f" fill-opacity="1" stroke="#1f1f1f" stroke-opacity="1" stroke-width="1" stroke-linecap="square" stroke-linejoin="bevel" transform="matrix(0.5,0,0,0.5,15.0909,51.4537)"
font-family="Arial" font-size="20" font-weight="400" font-style="normal"
>
<text fill="#1f1f1f" fill-opacity="1" stroke="none" xml:space="preserve" x="0" y="0.09375" font-family="Arial" font-size="20" font-weight="400" font-style="normal"
 >Group E</text>
</g>
</g>
</svg>
