<?xml version="1.0" encoding="UTF-8" standalone="no"?>
<svg width="114.653mm" height="84.3139mm"
 viewBox="0 0 325 239"
 xmlns="http://www.w3.org/2000/svg" xmlns:xlink="http://www.w3.org/1999/xlink"  version="1.2" baseProfile="tiny">
<title>Qt SVG Document</title>
<desc>Clean-room gallery output</desc>
<defs>
</defs>
<g fill="none" stroke="black" stroke-width="1" fill-rule="evenodd" stroke-linecap="square" stroke-linejoin="bevel" >

<g fill="#ffffff" fill-opacity="1" stroke="none" transform="matrix(0.5,0,0,0.5,-37.4091,-4.00001)"
font-family=".AppleSystemUIFont" font-size="13" font-weight="400" font-style="normal"
>
<path vector-effect="none" fill-rule="evenodd" d="M73,7 L723,7 L723,486 L73,486 L73,7"/>
</g>

<g fill="#ffffff" fill-opacity="1" stroke="none" transform="matrix(5e-05,0,0,5e-05,-37.4091,-4.00001)"
font-family=".AppleSystemUIFont" font-size="13" font-weight="400" font-style="normal"
>
<path vector-effect="none" fill-rule="evenodd" d="M1.03e+06,360000 L1.03e+06,4.22e+06 L7.19e+06,4.22e+06 L7.19e+06,360000 L1.03e+06,360000"/>
</g>

<g fill="#1f1f1f" fill-opacity="1" stroke="#1f1f1f" stroke-opacity="1" stroke-width="1" stroke-linecap="square" stroke-linejoin="bevel" transform="matrix(0.5,0,0,0.5,115.341,10)"
font-family="Arial" font-size="24" font-weight="700" font-style="normal"
>
<text fill="#1f1f1f" fill-opacity="1" stroke="none" xml:space="preserve" x="0" y="-0.28125" font-family="Arial" font-size="24" font-weight="700" font-style="normal"
 >Sankey-Style Flow</text>
</g>

<g fill="#479ac8" fill-opacity="0.380392" stroke="none" transform="matrix(5e-05,0,0,5e-05,-37.4091,-4.00001)"
font-family="Arial" font-size="24" font-weight="700" font-style="normal"
>
<path vector-effect="none" fill-rule="evenodd" d="M2.03959e+06,3.834e+06 L2.10272e+06,3.834e+06 L2.16585e+06,3.834e+06 L2.22899e+06,3.834e+06 L2.29212e+06,3.834e+06 L2.35525e+06,3.834e+06 L2.41838e+06,3.834e+06 L2.48151e+06,3.834e+06 L2.54464e+06,3.834e+06 L2.60778e+06,3.834e+06 L2.67091e+06,3.834e+06 L2.73404e+06,3.834e+06 L2.79717e+06,3.834e+06 L2.8603e+06,3.834e+06 L2.92343e+06,3.834e+06 L2.98657e+06,3.834e+06 L3.0497e+06,3.834e+06 L3.11283e+06,3.834e+06 L3.17596e+06,3.834e+06 L3.23909e+06,3.834e+06 L3.30222e+06,3.834e+06 L3.36536e+06,3.834e+06 L3.42849e+06,3.834e+06 L3.49162e+06,3.834e+06 L3.55475e+06,3.834e+06 L3.61788e+06,3.834e+06 L3.68101e+06,3.834e+06 L3.74415e+06,3.834e+06 L3.80728e+06,3.834e+06 L3.87041e+06,3.834e+06 L3.93354e+06,3.834e+06 L3.93354e+06,3.47715e+06 L3.87041e+06,3.47678e+06 L3.80728e+06,3.47571e+06 L3.74415e+06,3.47399e+06 L3.68101e+06,3.47167e+06 L3.61788e+06,3.46879e+06 L3.55475e+06,3.4654e+06 L3.49162e+06,3.46155e+06 L3.42849e+06,3.45729e+06 L3.36536e+06,3.45267e+06 L3.30222e+06,3.44773e+06 L3.23909e+06,3.44253e+06 L3.17596e+06,3.43711e+06 L3.11283e+06,3.43153e+06 L3.0497e+06,3.42582e+06 L2.98657e+06,3.42003e+06 L2.92343e+06,3.41423e+06 L2.8603e+06,3.40845e+06 L2.79717e+06,3.40274e+06 L2.73404e+06,3.39715e+06 L2.67091e+06,3.39173e+06 L2.60778e+06,3.38653e+06 L2.54464e+06,3.38159e+06 L2.48151e+06,3.37697e+06 L2.41838e+06,3.37271e+06 L2.35525e+06,3.36886e+06 L2.29212e+06,3.36548e+06 L2.22899e+06,3.36259e+06 L2.16585e+06,3.36027e+06 L2.10272e+06,3.35855e+06 L2.03959e+06,3.35748e+06 L1.97646e+06,3.35711e+06 L1.97646e+06,3.834e+06 L2.03959e+06,3.834e+06"/>
</g>

<g fill="#479ac8" fill-opacity="0.380392" stroke="none" transform="matrix(5e-05,0,0,5e-05,-37.4091,-4.00001)"
font-family="Arial" font-size="24" font-weight="700" font-style="normal"
>
<path vector-effect="none" fill-rule="evenodd" d="M2.03959e+06,3.35604e+06 L2.10272e+06,3.35292e+06 L2.16585e+06,3.34789e+06 L2.22899e+06,3.34109e+06 L2.29212e+06,3.33266e+06 L2.35525e+06,3.32275e+06 L2.41838e+06,3.3115e+06 L2.48151e+06,3.29904e+06 L2.54464e+06,3.28553e+06 L2.60778e+06,3.27109e+06 L2.67091e+06,3.25588e+06 L2.73404e+06,3.24003e+06 L2.79717e+06,3.22369e+06 L2.8603e+06,3.20699e+06 L2.92343e+06,3.19008e+06 L2.98657e+06,3.1731e+06 L3.0497e+06,3.15619e+06 L3.11283e+06,3.1395e+06 L3.17596e+06,3.12315e+06 L3.23909e+06,3.1073e+06 L3.30222e+06,3.09209e+06 L3.36536e+06,3.07765e+06 L3.42849e+06,3.06414e+06 L3.49162e+06,3.05168e+06 L3.55475e+06,3.04043e+06 L3.61788e+06,3.03052e+06 L3.68101e+06,3.0221e+06 L3.74415e+06,3.0153e+06 L3.80728e+06,3.01026e+06 L3.87041e+06,3.00714e+06 L3.93354e+06,3.00607e+06 L3.93354e+06,2.17341e+06 L3.87041e+06,2.17363e+06 L3.80728e+06,2.17426e+06 L3.74415e+06,2.17528e+06 L3.68101e+06,2.17665e+06 L3.61788e+06,2.17836e+06 L3.55475e+06,2.18036e+06 L3.49162e+06,2.18263e+06 L3.42849e+06,2.18515e+06 L3.36536e+06,2.18788e+06 L3.30222e+06,2.1908e+06 L3.23909e+06,2.19388e+06 L3.17596e+06,2.19708e+06 L3.11283e+06,2.20039e+06 L3.0497e+06,2.20376e+06 L2.98657e+06,2.20718e+06 L2.92343e+06,2.21061e+06 L2.8603e+06,2.21403e+06 L2.79717e+06,2.21741e+06 L2.73404e+06,2.22071e+06 L2.67091e+06,2.22392e+06 L2.60778e+06,2.22699e+06 L2.54464e+06,2.22991e+06 L2.48151e+06,2.23264e+06 L2.41838e+06,2.23516e+06 L2.35525e+06,2.23744e+06 L2.29212e+06,2.23944e+06 L2.22899e+06,2.24114e+06 L2.16585e+06,2.24252e+06 L2.10272e+06,2.24353e+06 L2.03959e+06,2.24417e+06 L1.97646e+06,2.24438e+06 L1.97646e+06,3.35711e+06 L2.03959e+06,3.35604e+06"/>
</g>

<g fill="#edb947" fill-opacity="0.380392" stroke="none" transform="matrix(5e-05,0,0,5e-05,-37.4091,-4.00001)"
font-family="Arial" font-size="24" font-weight="700" font-style="normal"
>
<path vector-effect="none" fill-rule="evenodd" d="M2.8603e+06,2.67215e+06 L2.92343e+06,2.7399e+06 L2.98657e+06,2.80793e+06 L3.0497e+06,2.87568e+06 L3.11283e+06,2.94258e+06 L3.17596e+06,3.00806e+06 L3.23909e+06,3.07156e+06 L3.30222e+06,3.13251e+06 L3.36536e+06,3.19034e+06 L3.42849e+06,3.24449e+06 L3.49162e+06,3.29439e+06 L3.55475e+06,3.33948e+06 L3.61788e+06,3.37918e+06 L3.68101e+06,3.41294e+06 L3.74415e+06,3.44018e+06 L3.80728e+06,3.46034e+06 L3.87041e+06,3.47285e+06 L3.93354e+06,3.47715e+06 L3.93354e+06,3.17977e+06 L3.87041e+06,3.17517e+06 L3.80728e+06,3.16177e+06 L3.74415e+06,3.14017e+06 L3.68101e+06,3.111e+06 L3.61788e+06,3.07484e+06 L3.55475e+06,3.03231e+06 L3.49162e+06,2.98402e+06 L3.42849e+06,2.93057e+06 L3.36536e+06,2.87256e+06 L3.30222e+06,2.81062e+06 L3.23909e+06,2.74533e+06 L3.17596e+06,2.67732e+06 L3.11283e+06,2.60718e+06 L3.0497e+06,2.53552e+06 L2.98657e+06,2.46296e+06 L2.92343e+06,2.39009e+06 L2.8603e+06,2.31752e+06 L2.79717e+06,2.24587e+06 L2.73404e+06,2.17573e+06 L2.67091e+06,2.10771e+06 L2.60778e+06,2.04243e+06 L2.54464e+06,1.98048e+06 L2.48151e+06,1.92248e+06 L2.41838e+06,1.86903e+06 L2.35525e+06,1.82074e+06 L2.29212e+06,1.77821e+06 L2.22899e+06,1.74205e+06 L2.16585e+06,1.71287e+06 L2.10272e+06,1.69128e+06 L2.03959e+06,1.67788e+06 L1.97646e+06,1.67328e+06 L1.97646e+06,2.07068e+06 L2.03959e+06,2.07498e+06 L2.10272e+06,2.08749e+06 L2.16585e+06,2.10765e+06 L2.22899e+06,2.13489e+06 L2.29212e+06,2.16864e+06 L2.35525e+06,2.20835e+06 L2.41838e+06,2.25344e+06 L2.48151e+06,2.30334e+06 L2.54464e+06,2.35749e+06 L2.60778e+06,2.41532e+06 L2.67091e+06,2.47627e+06 L2.73404e+06,2.53977e+06 L2.79717e+06,2.60525e+06 L2.8603e+06,2.67215e+06"/>
</g>

<g fill="#edb947" fill-opacity="0.380392" stroke="none" transform="matrix(5e-05,0,0,5e-05,-37.4091,-4.00001)"
font-family="Arial" font-size="24" font-weight="700" font-style="normal"
>
<path vector-effect="none" fill-rule="evenodd" d="M2.8603e+06,1.88716e+06 L2.92343e+06,1.91125e+06 L2.98657e+06,1.93544e+06 L3.0497e+06,1.95953e+06 L3.11283e+06,1.98332e+06 L3.17596e+06,2.00661e+06 L3.23909e+06,2.02919e+06 L3.30222e+06,2.05086e+06 L3.36536e+06,2.07142e+06 L3.42849e+06,2.09068e+06 L3.49162e+06,2.10843e+06 L3.55475e+06,2.12446e+06 L3.61788e+06,2.13858e+06 L3.68101e+06,2.15058e+06 L3.74415e+06,2.16027e+06 L3.80728e+06,2.16744e+06 L3.87041e+06,2.17188e+06 L3.93354e+06,2.17341e+06 L3.93354e+06,1.47953e+06 L3.87041e+06,1.47729e+06 L3.80728e+06,1.47077e+06 L3.74415e+06,1.46025e+06 L3.68101e+06,1.44604e+06 L3.61788e+06,1.42844e+06 L3.55475e+06,1.40773e+06 L3.49162e+06,1.38422e+06 L3.42849e+06,1.35819e+06 L3.36536e+06,1.32995e+06 L3.30222e+06,1.29979e+06 L3.23909e+06,1.268e+06 L3.17596e+06,1.23488e+06 L3.11283e+06,1.20073e+06 L3.0497e+06,1.16584e+06 L2.98657e+06,1.13051e+06 L2.92343e+06,1.09503e+06 L2.8603e+06,1.05969e+06 L2.79717e+06,1.0248e+06 L2.73404e+06,990649 L2.67091e+06,957532 L2.60778e+06,925744 L2.54464e+06,895582 L2.48151e+06,867340 L2.41838e+06,841313 L2.35525e+06,817799 L2.29212e+06,797091 L2.22899e+06,779486 L2.16585e+06,765279 L2.10272e+06,754765 L2.03959e+06,748240 L1.97646e+06,746000 L1.97646e+06,1.67328e+06 L2.03959e+06,1.67481e+06 L2.10272e+06,1.67925e+06 L2.16585e+06,1.68642e+06 L2.22899e+06,1.69611e+06 L2.29212e+06,1.70811e+06 L2.35525e+06,1.72223e+06 L2.41838e+06,1.73826e+06 L2.48151e+06,1.75601e+06 L2.54464e+06,1.77527e+06 L2.60778e+06,1.79583e+06 L2.67091e+06,1.8175e+06 L2.73404e+06,1.84008e+06 L2.79717e+06,1.86337e+06 L2.8603e+06,1.88716e+06"/>
</g>

<g fill="#47b99a" fill-opacity="0.380392" stroke="none" transform="matrix(5e-05,0,0,5e-05,-37.4091,-4.00001)"
font-family="Arial" font-size="24" font-weight="700" font-style="normal"
>
<path vector-effect="none" fill-rule="evenodd" d="M4.02462e+06,1.86901e+06 L4.036e+06,1.95966e+06 L4.04739e+06,2.05647e+06 L4.05877e+06,2.1585e+06 L4.07015e+06,2.2648e+06 L4.08154e+06,2.37442e+06 L4.09292e+06,2.48641e+06 L4.10431e+06,2.59982e+06 L4.11569e+06,2.71371e+06 L4.12708e+06,2.82712e+06 L4.13846e+06,2.93911e+06 L4.14985e+06,3.04873e+06 L4.16123e+06,3.15503e+06 L4.17261e+06,3.25706e+06 L4.184e+06,3.35388e+06 L4.19538e+06,3.44453e+06 L4.20677e+06,3.52806e+06 L4.21815e+06,3.60354e+06 L4.22954e+06,3.67001e+06 L4.24092e+06,3.72652e+06 L4.25231e+06,3.77212e+06 L4.26369e+06,3.80586e+06 L4.27507e+06,3.82681e+06 L4.28646e+06,3.834e+06 L4.28646e+06,3.39785e+06 L4.27507e+06,3.39065e+06 L4.26369e+06,3.36971e+06 L4.25231e+06,3.33596e+06 L4.24092e+06,3.29036e+06 L4.22954e+06,3.23385e+06 L4.21815e+06,3.16739e+06 L4.20677e+06,3.09191e+06 L4.19538e+06,3.00837e+06 L4.184e+06,2.91772e+06 L4.17261e+06,2.82091e+06 L4.16123e+06,2.71887e+06 L4.14985e+06,2.61258e+06 L4.13846e+06,2.50296e+06 L4.12708e+06,2.39097e+06 L4.11569e+06,2.27756e+06 L4.10431e+06,2.16367e+06 L4.09292e+06,2.05026e+06 L4.08154e+06,1.93827e+06 L4.07015e+06,1.82865e+06 L4.05877e+06,1.72235e+06 L4.04739e+06,1.62032e+06 L4.036e+06,1.5235e+06 L4.02462e+06,1.43285e+06 L4.01323e+06,1.34931e+06 L4.00185e+06,1.27384e+06 L3.99046e+06,1.20737e+06 L3.97908e+06,1.15086e+06 L3.96769e+06,1.10526e+06 L3.95631e+06,1.07151e+06 L3.94493e+06,1.05057e+06 L3.93354e+06,1.04338e+06 L3.93354e+06,1.47953e+06 L3.94493e+06,1.48672e+06 L3.95631e+06,1.50767e+06 L3.96769e+06,1.54141e+06 L3.97908e+06,1.58702e+06 L3.99046e+06,1.64352e+06 L4.00185e+06,1.70999e+06 L4.01323e+06,1.78547e+06 L4.02462e+06,1.86901e+06"/>
</g>

<g fill="#e28b47" fill-opacity="0.380392" stroke="none" transform="matrix(5e-05,0,0,5e-05,-37.4091,-4.00001)"
font-family="Arial" font-size="24" font-weight="700" font-style="normal"
>
<path vector-effect="none" fill-rule="evenodd" d="M4.85464e+06,3.1749e+06 L4.91778e+06,3.20895e+06 L4.98091e+06,3.24482e+06 L5.04404e+06,3.2822e+06 L5.10717e+06,3.32075e+06 L5.1703e+06,3.36013e+06 L5.23343e+06,3.40001e+06 L5.29657e+06,3.44006e+06 L5.3597e+06,3.47994e+06 L5.42283e+06,3.51932e+06 L5.48596e+06,3.55787e+06 L5.54909e+06,3.59525e+06 L5.61222e+06,3.63112e+06 L5.67536e+06,3.66517e+06 L5.73849e+06,3.69704e+06 L5.80162e+06,3.72642e+06 L5.86475e+06,3.75296e+06 L5.92788e+06,3.77633e+06 L5.99102e+06,3.7962e+06 L6.05415e+06,3.81224e+06 L6.11728e+06,3.82411e+06 L6.18041e+06,3.83147e+06 L6.24354e+06,3.834e+06 L6.24354e+06,2.53582e+06 L6.18041e+06,2.53399e+06 L6.11728e+06,2.52865e+06 L6.05415e+06,2.52004e+06 L5.99102e+06,2.50842e+06 L5.92788e+06,2.49401e+06 L5.86475e+06,2.47706e+06 L5.80162e+06,2.45782e+06 L5.73849e+06,2.43652e+06 L5.67536e+06,2.41341e+06 L5.61222e+06,2.38872e+06 L5.54909e+06,2.36271e+06 L5.48596e+06,2.3356e+06 L5.42283e+06,2.30765e+06 L5.3597e+06,2.2791e+06 L5.29657e+06,2.25018e+06 L5.23343e+06,2.22115e+06 L5.1703e+06,2.19223e+06 L5.10717e+06,2.16368e+06 L5.04404e+06,2.13573e+06 L4.98091e+06,2.10863e+06 L4.91778e+06,2.08261e+06 L4.85464e+06,2.05793e+06 L4.79151e+06,2.03481e+06 L4.72838e+06,2.01351e+06 L4.66525e+06,1.99427e+06 L4.60212e+06,1.97732e+06 L4.53899e+06,1.96292e+06 L4.47585e+06,1.95129e+06 L4.41272e+06,1.94268e+06 L4.34959e+06,1.93734e+06 L4.28646e+06,1.93551e+06 L4.28646e+06,3.00607e+06 L4.34959e+06,3.0086e+06 L4.41272e+06,3.01596e+06 L4.47585e+06,3.02783e+06 L4.53899e+06,3.04387e+06 L4.60212e+06,3.06374e+06 L4.66525e+06,3.08711e+06 L4.72838e+06,3.11365e+06 L4.79151e+06,3.14303e+06 L4.85464e+06,3.1749e+06"/>
</g>

<g fill="#e28b47" fill-opacity="0.380392" stroke="none" transform="matrix(5e-05,0,0,5e-05,-37.4091,-4.00001)"
font-family="Arial" font-size="24" font-weight="700" font-style="normal"
>
<path vector-effect="none" fill-rule="evenodd" d="M5.1703e+06,2.11795e+06 L5.23343e+06,2.1385e+06 L5.29657e+06,2.15913e+06 L5.3597e+06,2.17968e+06 L5.42283e+06,2.19997e+06 L5.48596e+06,2.21984e+06 L5.54909e+06,2.2391e+06 L5.61222e+06,2.25758e+06 L5.67536e+06,2.27513e+06 L5.73849e+06,2.29155e+06 L5.80162e+06,2.30669e+06 L5.86475e+06,2.32036e+06 L5.92788e+06,2.33241e+06 L5.99102e+06,2.34265e+06 L6.05415e+06,2.35091e+06 L6.11728e+06,2.35702e+06 L6.18041e+06,2.36082e+06 L6.24354e+06,2.36212e+06 L6.24354e+06,1.28031e+06 L6.18041e+06,1.27958e+06 L6.11728e+06,1.27747e+06 L6.05415e+06,1.27408e+06 L5.99102e+06,1.26949e+06 L5.92788e+06,1.2638e+06 L5.86475e+06,1.25711e+06 L5.80162e+06,1.24952e+06 L5.73849e+06,1.24111e+06 L5.67536e+06,1.23199e+06 L5.61222e+06,1.22225e+06 L5.54909e+06,1.21198e+06 L5.48596e+06,1.20128e+06 L5.42283e+06,1.19025e+06 L5.3597e+06,1.17898e+06 L5.29657e+06,1.16757e+06 L5.23343e+06,1.15611e+06 L5.1703e+06,1.1447e+06 L5.10717e+06,1.13343e+06 L5.04404e+06,1.1224e+06 L4.98091e+06,1.1117e+06 L4.91778e+06,1.10143e+06 L4.85464e+06,1.09169e+06 L4.79151e+06,1.08257e+06 L4.72838e+06,1.07416e+06 L4.66525e+06,1.06657e+06 L4.60212e+06,1.05988e+06 L4.53899e+06,1.05419e+06 L4.47585e+06,1.0496e+06 L4.41272e+06,1.04621e+06 L4.34959e+06,1.0441e+06 L4.28646e+06,1.04338e+06 L4.28646e+06,1.93551e+06 L4.34959e+06,1.93681e+06 L4.41272e+06,1.94061e+06 L4.47585e+06,1.94672e+06 L4.53899e+06,1.95499e+06 L4.60212e+06,1.96522e+06 L4.66525e+06,1.97727e+06 L4.72838e+06,1.99094e+06 L4.79151e+06,2.00608e+06 L4.85464e+06,2.02251e+06 L4.91778e+06,2.04005e+06 L4.98091e+06,2.05853e+06 L5.04404e+06,2.0778e+06 L5.10717e+06,2.09766e+06 L5.1703e+06,2.11795e+06"/>
</g>

<g fill="#e28b47" fill-opacity="0.380392" stroke="none" transform="matrix(5e-05,0,0,5e-05,-37.4091,-4.00001)"
font-family="Arial" font-size="24" font-weight="700" font-style="normal"
>
<path vector-effect="none" fill-rule="evenodd" d="M4.47585e+06,1.04504e+06 L4.53899e+06,1.04626e+06 L4.60212e+06,1.04778e+06 L4.66525e+06,1.04957e+06 L4.72838e+06,1.05159e+06 L4.79151e+06,1.05384e+06 L4.85464e+06,1.05627e+06 L4.91778e+06,1.05887e+06 L4.98091e+06,1.06161e+06 L5.04404e+06,1.06447e+06 L5.10717e+06,1.06741e+06 L5.1703e+06,1.07042e+06 L5.23343e+06,1.07346e+06 L5.29657e+06,1.07652e+06 L5.3597e+06,1.07957e+06 L5.42283e+06,1.08257e+06 L5.48596e+06,1.08552e+06 L5.54909e+06,1.08837e+06 L5.61222e+06,1.09111e+06 L5.67536e+06,1.09371e+06 L5.73849e+06,1.09615e+06 L5.80162e+06,1.09839e+06 L5.86475e+06,1.10042e+06 L5.92788e+06,1.1022e+06 L5.99102e+06,1.10372e+06 L6.05415e+06,1.10494e+06 L6.11728e+06,1.10585e+06 L6.18041e+06,1.10641e+06 L6.24354e+06,1.10661e+06 L6.24354e+06,746000 L6.18041e+06,746000 L6.11728e+06,746000 L6.05415e+06,746000 L5.99102e+06,746000 L5.92788e+06,746000 L5.86475e+06,746000 L5.80162e+06,746000 L5.73849e+06,746000 L5.67536e+06,746000 L5.61222e+06,746000 L5.54909e+06,746000 L5.48596e+06,746000 L5.42283e+06,746000 L5.3597e+06,746000 L5.29657e+06,746000 L5.23343e+06,746000 L5.1703e+06,746000 L5.10717e+06,746000 L5.04404e+06,746000 L4.98091e+06,746000 L4.91778e+06,746000 L4.85464e+06,746000 L4.79151e+06,746000 L4.72838e+06,746000 L4.66525e+06,746000 L4.60212e+06,746000 L4.53899e+06,746000 L4.47585e+06,746000 L4.41272e+06,746000 L4.34959e+06,746000 L4.28646e+06,746000 L4.28646e+06,1.04338e+06 L4.34959e+06,1.04357e+06 L4.41272e+06,1.04413e+06 L4.47585e+06,1.04504e+06"/>
</g>

<g fill="#479ac8" fill-opacity="1" stroke="none" transform="matrix(5e-05,0,0,5e-05,-37.4091,-4.00001)"
font-family="Arial" font-size="24" font-weight="700" font-style="normal"
>
<path vector-effect="none" fill-rule="evenodd" d="M1.63766e+06,3.834e+06 L1.96234e+06,3.834e+06 L1.96327e+06,3.83398e+06 L1.96418e+06,3.83393e+06 L1.9651e+06,3.83384e+06 L1.966e+06,3.83371e+06 L1.96688e+06,3.83355e+06 L1.96774e+06,3.83335e+06 L1.96859e+06,3.83312e+06 L1.9694e+06,3.83286e+06 L1.97018e+06,3.83257e+06 L1.97094e+06,3.83225e+06 L1.97165e+06,3.83189e+06 L1.97232e+06,3.83151e+06 L1.97296e+06,3.83111e+06 L1.97354e+06,3.83068e+06 L1.97408e+06,3.83023e+06 L1.97457e+06,3.82975e+06 L1.975e+06,3.82926e+06 L1.97538e+06,3.82876e+06 L1.97571e+06,3.82824e+06 L1.97598e+06,3.82771e+06 L1.97619e+06,3.82716e+06 L1.97634e+06,3.82662e+06 L1.97643e+06,3.82606e+06 L1.97646e+06,3.82551e+06 L1.97646e+06,2.25287e+06 L1.97643e+06,2.25232e+06 L1.97634e+06,2.25177e+06 L1.97619e+06,2.25122e+06 L1.97598e+06,2.25068e+06 L1.97571e+06,2.25014e+06 L1.97538e+06,2.24962e+06 L1.975e+06,2.24912e+06 L1.97457e+06,2.24863e+06 L1.97408e+06,2.24816e+06 L1.97354e+06,2.2477e+06 L1.97296e+06,2.24727e+06 L1.97232e+06,2.24687e+06 L1.97165e+06,2.24649e+06 L1.97094e+06,2.24614e+06 L1.97018e+06,2.24581e+06 L1.9694e+06,2.24552e+06 L1.96859e+06,2.24526e+06 L1.96774e+06,2.24503e+06 L1.96688e+06,2.24483e+06 L1.966e+06,2.24467e+06 L1.9651e+06,2.24455e+06 L1.96418e+06,2.24445e+06 L1.96327e+06,2.2444e+06 L1.96234e+06,2.24438e+06 L1.63766e+06,2.24438e+06 L1.63674e+06,2.2444e+06 L1.63582e+06,2.24445e+06 L1.6349e+06,2.24455e+06 L1.634e+06,2.24467e+06 L1.63312e+06,2.24483e+06 L1.63226e+06,2.24503e+06 L1.63141e+06,2.24526e+06 L1.6306e+06,2.24552e+06 L1.62982e+06,2.24581e+06 L1.62906e+06,2.24614e+06 L1.62835e+06,2.24649e+06 L1.62768e+06,2.24687e+06 L1.62704e+06,2.24727e+06 L1.62646e+06,2.2477e+06 L1.62592e+06,2.24816e+06 L1.62543e+06,2.24863e+06 L1.625e+06,2.24912e+06 L1.62462e+06,2.24962e+06 L1.62429e+06,2.25014e+06 L1.62402e+06,2.25068e+06 L1.62381e+06,2.25122e+06 L1.62366e+06,2.25177e+06 L1.62357e+06,2.25232e+06 L1.62354e+06,2.25287e+06 L1.62354e+06,3.82551e+06 L1.62357e+06,3.82606e+06 L1.62366e+06,3.82662e+06 L1.62381e+06,3.82716e+06 L1.62402e+06,3.82771e+06 L1.62429e+06,3.82824e+06 L1.62462e+06,3.82876e+06 L1.625e+06,3.82926e+06 L1.62543e+06,3.82975e+06 L1.62592e+06,3.83023e+06 L1.62646e+06,3.83068e+06 L1.62704e+06,3.83111e+06 L1.62768e+06,3.83151e+06 L1.62835e+06,3.83189e+06 L1.62906e+06,3.83225e+06 L1.62982e+06,3.83257e+06 L1.6306e+06,3.83286e+06 L1.63141e+06,3.83312e+06 L1.63226e+06,3.83335e+06 L1.63312e+06,3.83355e+06 L1.634e+06,3.83371e+06 L1.6349e+06,3.83384e+06 L1.63582e+06,3.83393e+06 L1.63674e+06,3.83398e+06 L1.63766e+06,3.834e+06"/>
</g>

<g fill="none" stroke="#ffffff" stroke-opacity="1" stroke-width="2" stroke-linecap="butt" stroke-linejoin="round" transform="matrix(0.5,0,0,0.5,-37.4091,-4.00001)"
font-family="Arial" font-size="24" font-weight="700" font-style="normal"
>
<path vector-effect="none" fill-rule="evenodd" d="M196.234,383.4 L196.327,383.398 L196.418,383.393 L196.51,383.384 L196.6,383.371 L196.688,383.355 L196.774,383.335 L196.859,383.312 L196.94,383.286 L197.018,383.257 L197.094,383.225 L197.165,383.189 L197.232,383.151 L197.296,383.111 L197.354,383.068 L197.408,383.023 L197.457,382.975 L197.5,382.926 L197.538,382.876 L197.571,382.824 L197.598,382.771 L197.619,382.716 L197.634,382.662 L197.643,382.606 L197.646,382.551 L197.646,225.287 L197.643,225.232 L197.634,225.177 L197.619,225.122 L197.598,225.068 L197.571,225.014 L197.538,224.962 L197.5,224.912 L197.457,224.863 L197.408,224.816 L197.354,224.77 L197.296,224.727 L197.232,224.687 L197.165,224.649 L197.094,224.614 L197.018,224.581 L196.94,224.552 L196.859,224.526 L196.774,224.503 L196.688,224.483 L196.6,224.467 L196.51,224.454 L196.418,224.445 L196.327,224.44 L196.234,224.438 L163.766,224.438 L163.674,224.44 L163.582,224.445 L163.49,224.454 L163.4,224.467 L163.312,224.483 L163.226,224.503 L163.141,224.526 L163.06,224.552 L162.982,224.581 L162.906,224.614 L162.835,224.649 L162.768,224.687 L162.704,224.727 L162.646,224.77 L162.592,224.816 L162.543,224.863 L162.5,224.912 L162.462,224.962 L162.429,225.014 L162.402,225.068 L162.381,225.122 L162.366,225.177 L162.357,225.232 L162.354,225.287 L162.354,382.551 L162.357,382.606 L162.366,382.662 L162.381,382.716 L162.402,382.771 L162.429,382.824 L162.462,382.876 L162.5,382.926 L162.543,382.975 L162.592,383.023 L162.646,383.068 L162.704,383.111 L162.768,383.151 L162.835,383.189 L162.906,383.225 L162.982,383.257 L163.06,383.286 L163.141,383.312 L163.226,383.335 L163.312,383.355 L163.4,383.371 L163.49,383.384 L163.582,383.393 L163.674,383.398 L163.766,383.4 L196.234,383.4"/>
</g>

<g fill="#1f1f1f" fill-opacity="1" stroke="#1f1f1f" stroke-opacity="1" stroke-width="1" stroke-linecap="square" stroke-linejoin="bevel" transform="matrix(0.5,0,0,0.5,42.0909,150.96)"
font-family="Arial" font-size="18" font-weight="400" font-style="normal"
>
<text fill="#1f1f1f" fill-opacity="1" stroke="none" xml:space="preserve" x="0" y="0.28125" font-family="Arial" font-size="18" font-weight="400" font-style="normal"
 >Solar</text>
</g>

<g fill="#edb947" fill-opacity="1" stroke="none" transform="matrix(5e-05,0,0,5e-05,-37.4091,-4.00001)"
font-family="Arial" font-size="18" font-weight="400" font-style="normal"
>
<path vector-effect="none" fill-rule="evenodd" d="M1.63766e+06,2.07068e+06 L1.96234e+06,2.07068e+06 L1.96327e+06,2.07066e+06 L1.96418e+06,2.07061e+06 L1.9651e+06,2.07052e+06 L1.966e+06,2.07039e+06 L1.96688e+06,2.07023e+06 L1.96774e+06,2.07004e+06 L1.96859e+06,2.06981e+06 L1.9694e+06,2.06954e+06 L1.97018e+06,2.06925e+06 L1.97094e+06,2.06893e+06 L1.97165e+06,2.06857e+06 L1.97232e+06,2.06819e+06 L1.97296e+06,2.06779e+06 L1.97354e+06,2.06736e+06 L1.97408e+06,2.06691e+06 L1.97457e+06,2.06644e+06 L1.975e+06,2.06595e+06 L1.97538e+06,2.06544e+06 L1.97571e+06,2.06492e+06 L1.97598e+06,2.06439e+06 L1.97619e+06,2.06385e+06 L1.97634e+06,2.0633e+06 L1.97643e+06,2.06275e+06 L1.97646e+06,2.06219e+06 L1.97646e+06,754492 L1.97643e+06,753936 L1.97634e+06,753383 L1.97619e+06,752835 L1.97598e+06,752294 L1.97571e+06,751762 L1.97538e+06,751242 L1.975e+06,750736 L1.97457e+06,750246 L1.97408e+06,749774 L1.97354e+06,749322 L1.97296e+06,748893 L1.97232e+06,748487 L1.97165e+06,748107 L1.97094e+06,747754 L1.97018e+06,747431 L1.9694e+06,747137 L1.96859e+06,746875 L1.96774e+06,746646 L1.96688e+06,746450 L1.966e+06,746289 L1.9651e+06,746163 L1.96418e+06,746072 L1.96327e+06,746018 L1.96234e+06,746000 L1.63766e+06,746000 L1.63674e+06,746018 L1.63582e+06,746072 L1.6349e+06,746163 L1.634e+06,746289 L1.63312e+06,746450 L1.63226e+06,746646 L1.63141e+06,746875 L1.6306e+06,747137 L1.62982e+06,747431 L1.62906e+06,747754 L1.62835e+06,748107 L1.62768e+06,748487 L1.62704e+06,748893 L1.62646e+06,749322 L1.62592e+06,749774 L1.62543e+06,750246 L1.625e+06,750736 L1.62462e+06,751242 L1.62429e+06,751762 L1.62402e+06,752294 L1.62381e+06,752835 L1.62366e+06,753383 L1.62357e+06,753936 L1.62354e+06,754492 L1.62354e+06,2.06219e+06 L1.62357e+06,2.06275e+06 L1.62366e+06,2.0633e+06 L1.62381e+06,2.06385e+06 L1.62402e+06,2.06439e+06 L1.62429e+06,2.06492e+06 L1.62462e+06,2.06544e+06 L1.625e+06,2.06595e+06 L1.62543e+06,2.06644e+06 L1.62592e+06,2.06691e+06 L1.62646e+06,2.06736e+06 L1.62704e+06,2.06779e+06 L1.62768e+06,2.06819e+06 L1.62835e+06,2.06857e+06 L1.62906e+06,2.06893e+06 L1.62982e+06,2.06925e+06 L1.6306e+06,2.06954e+06 L1.63141e+06,2.06981e+06 L1.63226e+06,2.07004e+06 L1.63312e+06,2.07023e+06 L1.634e+06,2.07039e+06 L1.6349e+06,2.07052e+06 L1.63582e+06,2.07061e+06 L1.63674e+06,2.07066e+06 L1.63766e+06,2.07068e+06"/>
</g>

<g fill="none" stroke="#ffffff" stroke-opacity="1" stroke-width="2" stroke-linecap="butt" stroke-linejoin="round" transform="matrix(0.5,0,0,0.5,-37.4091,-4.00001)"
font-family="Arial" font-size="18" font-weight="400" font-style="normal"
>
<path vector-effect="none" fill-rule="evenodd" d="M196.234,207.068 L196.327,207.066 L196.418,207.061 L196.51,207.052 L196.6,207.039 L196.688,207.023 L196.774,207.004 L196.859,206.981 L196.94,206.954 L197.018,206.925 L197.094,206.893 L197.165,206.857 L197.232,206.819 L197.296,206.779 L197.354,206.736 L197.408,206.691 L197.457,206.644 L197.5,206.595 L197.538,206.544 L197.571,206.492 L197.598,206.439 L197.619,206.385 L197.634,206.33 L197.643,206.275 L197.646,206.219 L197.646,75.4492 L197.643,75.3937 L197.634,75.3384 L197.619,75.2835 L197.598,75.2294 L197.571,75.1763 L197.538,75.1242 L197.5,75.0736 L197.457,75.0246 L197.408,74.9774 L197.354,74.9323 L197.296,74.8893 L197.232,74.8487 L197.165,74.8108 L197.094,74.7755 L197.018,74.7431 L196.94,74.7138 L196.859,74.6876 L196.774,74.6647 L196.688,74.6451 L196.6,74.629 L196.51,74.6163 L196.418,74.6073 L196.327,74.6018 L196.234,74.6 L163.766,74.6 L163.674,74.6018 L163.582,74.6073 L163.49,74.6163 L163.4,74.629 L163.312,74.6451 L163.226,74.6647 L163.141,74.6876 L163.06,74.7138 L162.982,74.7431 L162.906,74.7755 L162.835,74.8108 L162.768,74.8487 L162.704,74.8893 L162.646,74.9323 L162.592,74.9774 L162.543,75.0246 L162.5,75.0736 L162.462,75.1242 L162.429,75.1763 L162.402,75.2294 L162.381,75.2835 L162.366,75.3384 L162.357,75.3937 L162.354,75.4492 L162.354,206.219 L162.357,206.275 L162.366,206.33 L162.381,206.385 L162.402,206.439 L162.429,206.492 L162.462,206.544 L162.5,206.595 L162.543,206.644 L162.592,206.691 L162.646,206.736 L162.704,206.779 L162.768,206.819 L162.835,206.857 L162.906,206.893 L162.982,206.925 L163.06,206.954 L163.141,206.981 L163.226,207.004 L163.312,207.023 L163.4,207.039 L163.49,207.052 L163.582,207.061 L163.674,207.066 L163.766,207.068 L196.234,207.068"/>
</g>

<g fill="#1f1f1f" fill-opacity="1" stroke="#1f1f1f" stroke-opacity="1" stroke-width="1" stroke-linecap="square" stroke-linejoin="bevel" transform="matrix(0.5,0,0,0.5,42.3409,69.417)"
font-family="Arial" font-size="18" font-weight="400" font-style="normal"
>
<text fill="#1f1f1f" fill-opacity="1" stroke="none" xml:space="preserve" x="0" y="0.28125" font-family="Arial" font-size="18" font-weight="400" font-style="normal"
 >Wind</text>
</g>

<g fill="#47b99a" fill-opacity="1" stroke="none" transform="matrix(5e-05,0,0,5e-05,-37.4091,-4.00001)"
font-family="Arial" font-size="18" font-weight="400" font-style="normal"
>
<path vector-effect="none" fill-rule="evenodd" d="M3.94766e+06,3.834e+06 L4.27234e+06,3.834e+06 L4.27327e+06,3.83398e+06 L4.27418e+06,3.83393e+06 L4.2751e+06,3.83384e+06 L4.276e+06,3.83371e+06 L4.27688e+06,3.83355e+06 L4.27774e+06,3.83335e+06 L4.27859e+06,3.83312e+06 L4.2794e+06,3.83286e+06 L4.28018e+06,3.83257e+06 L4.28094e+06,3.83225e+06 L4.28165e+06,3.83189e+06 L4.28232e+06,3.83151e+06 L4.28295e+06,3.83111e+06 L4.28354e+06,3.83068e+06 L4.28408e+06,3.83023e+06 L4.28457e+06,3.82975e+06 L4.285e+06,3.82926e+06 L4.28538e+06,3.82876e+06 L4.28571e+06,3.82824e+06 L4.28598e+06,3.82771e+06 L4.28619e+06,3.82716e+06 L4.28634e+06,3.82662e+06 L4.28643e+06,3.82606e+06 L4.28646e+06,3.82551e+06 L4.28646e+06,3.18826e+06 L4.28643e+06,3.18771e+06 L4.28634e+06,3.18715e+06 L4.28619e+06,3.1866e+06 L4.28598e+06,3.18606e+06 L4.28571e+06,3.18553e+06 L4.28538e+06,3.18501e+06 L4.285e+06,3.18451e+06 L4.28457e+06,3.18402e+06 L4.28408e+06,3.18354e+06 L4.28354e+06,3.18309e+06 L4.28295e+06,3.18266e+06 L4.28232e+06,3.18226e+06 L4.28165e+06,3.18188e+06 L4.28094e+06,3.18152e+06 L4.28018e+06,3.1812e+06 L4.2794e+06,3.18091e+06 L4.27859e+06,3.18065e+06 L4.27774e+06,3.18042e+06 L4.27688e+06,3.18022e+06 L4.276e+06,3.18006e+06 L4.2751e+06,3.17993e+06 L4.27418e+06,3.17984e+06 L4.27327e+06,3.17979e+06 L4.27234e+06,3.17977e+06 L3.94766e+06,3.17977e+06 L3.94674e+06,3.17979e+06 L3.94582e+06,3.17984e+06 L3.9449e+06,3.17993e+06 L3.944e+06,3.18006e+06 L3.94312e+06,3.18022e+06 L3.94226e+06,3.18042e+06 L3.94141e+06,3.18065e+06 L3.9406e+06,3.18091e+06 L3.93982e+06,3.1812e+06 L3.93906e+06,3.18152e+06 L3.93835e+06,3.18188e+06 L3.93768e+06,3.18226e+06 L3.93704e+06,3.18266e+06 L3.93646e+06,3.18309e+06 L3.93592e+06,3.18354e+06 L3.93543e+06,3.18402e+06 L3.935e+06,3.18451e+06 L3.93462e+06,3.18501e+06 L3.93429e+06,3.18553e+06 L3.93402e+06,3.18606e+06 L3.93381e+06,3.1866e+06 L3.93366e+06,3.18715e+06 L3.93357e+06,3.18771e+06 L3.93354e+06,3.18826e+06 L3.93354e+06,3.82551e+06 L3.93357e+06,3.82606e+06 L3.93366e+06,3.82662e+06 L3.93381e+06,3.82716e+06 L3.93402e+06,3.82771e+06 L3.93429e+06,3.82824e+06 L3.93462e+06,3.82876e+06 L3.935e+06,3.82926e+06 L3.93543e+06,3.82975e+06 L3.93592e+06,3.83023e+06 L3.93646e+06,3.83068e+06 L3.93704e+06,3.83111e+06 L3.93768e+06,3.83151e+06 L3.93835e+06,3.83189e+06 L3.93906e+06,3.83225e+06 L3.93982e+06,3.83257e+06 L3.9406e+06,3.83286e+06 L3.94141e+06,3.83312e+06 L3.94226e+06,3.83335e+06 L3.94312e+06,3.83355e+06 L3.944e+06,3.83371e+06 L3.9449e+06,3.83384e+06 L3.94582e+06,3.83393e+06 L3.94674e+06,3.83398e+06 L3.94766e+06,3.834e+06"/>
</g>

<g fill="none" stroke="#ffffff" stroke-opacity="1" stroke-width="2" stroke-linecap="butt" stroke-linejoin="round" transform="matrix(0.5,0,0,0.5,-37.4091,-4.00001)"
font-family="Arial" font-size="18" font-weight="400" font-style="normal"
>
<path vector-effect="none" fill-rule="evenodd" d="M427.234,383.4 L427.326,383.398 L427.418,383.393 L427.51,383.384 L427.6,383.371 L427.688,383.355 L427.774,383.335 L427.859,383.312 L427.94,383.286 L428.018,383.257 L428.094,383.225 L428.165,383.189 L428.232,383.151 L428.295,383.111 L428.354,383.068 L428.408,383.023 L428.457,382.975 L428.5,382.926 L428.538,382.876 L428.571,382.824 L428.598,382.771 L428.619,382.716 L428.634,382.662 L428.643,382.606 L428.646,382.551 L428.646,318.826 L428.643,318.771 L428.634,318.715 L428.619,318.66 L428.598,318.606 L428.571,318.553 L428.538,318.501 L428.5,318.451 L428.457,318.402 L428.408,318.354 L428.354,318.309 L428.295,318.266 L428.232,318.226 L428.165,318.188 L428.094,318.152 L428.018,318.12 L427.94,318.091 L427.859,318.065 L427.774,318.042 L427.688,318.022 L427.6,318.006 L427.51,317.993 L427.418,317.984 L427.326,317.979 L427.234,317.977 L394.766,317.977 L394.674,317.979 L394.582,317.984 L394.49,317.993 L394.4,318.006 L394.312,318.022 L394.226,318.042 L394.141,318.065 L394.06,318.091 L393.982,318.12 L393.906,318.152 L393.835,318.188 L393.768,318.226 L393.704,318.266 L393.646,318.309 L393.592,318.354 L393.543,318.402 L393.5,318.451 L393.462,318.501 L393.429,318.553 L393.402,318.606 L393.381,318.66 L393.366,318.715 L393.357,318.771 L393.354,318.826 L393.354,382.551 L393.357,382.606 L393.366,382.662 L393.381,382.716 L393.402,382.771 L393.429,382.824 L393.462,382.876 L393.5,382.926 L393.543,382.975 L393.592,383.023 L393.646,383.068 L393.704,383.111 L393.768,383.151 L393.835,383.189 L393.906,383.225 L393.982,383.257 L394.06,383.286 L394.141,383.312 L394.226,383.335 L394.312,383.355 L394.4,383.371 L394.49,383.384 L394.582,383.393 L394.674,383.398 L394.766,383.4 L427.234,383.4"/>
</g>

<g fill="#1f1f1f" fill-opacity="1" stroke="#1f1f1f" stroke-opacity="1" stroke-width="1" stroke-linecap="square" stroke-linejoin="bevel" transform="matrix(0.5,0,0,0.5,152.341,174.344)"
font-family="Arial" font-size="18" font-weight="400" font-style="normal"
>
<text fill="#1f1f1f" fill-opacity="1" stroke="none" xml:space="preserve" x="0" y="0.28125" font-family="Arial" font-size="18" font-weight="400" font-style="normal"
 >Storage</text>
</g>

<g fill="#e28b47" fill-opacity="1" stroke="none" transform="matrix(5e-05,0,0,5e-05,-37.4091,-4.00001)"
font-family="Arial" font-size="18" font-weight="400" font-style="normal"
>
<path vector-effect="none" fill-rule="evenodd" d="M3.94766e+06,3.00607e+06 L4.27234e+06,3.00607e+06 L4.27327e+06,3.00605e+06 L4.27418e+06,3.006e+06 L4.2751e+06,3.00591e+06 L4.276e+06,3.00578e+06 L4.27688e+06,3.00562e+06 L4.27774e+06,3.00542e+06 L4.27859e+06,3.00519e+06 L4.2794e+06,3.00493e+06 L4.28018e+06,3.00464e+06 L4.28094e+06,3.00431e+06 L4.28165e+06,3.00396e+06 L4.28232e+06,3.00358e+06 L4.28295e+06,3.00318e+06 L4.28354e+06,3.00275e+06 L4.28408e+06,3.0023e+06 L4.28457e+06,3.00182e+06 L4.285e+06,3.00133e+06 L4.28538e+06,3.00083e+06 L4.28571e+06,3.00031e+06 L4.28598e+06,2.99978e+06 L4.28619e+06,2.99923e+06 L4.28634e+06,2.99869e+06 L4.28643e+06,2.99813e+06 L4.28646e+06,2.99758e+06 L4.28646e+06,754492 L4.28643e+06,753936 L4.28634e+06,753383 L4.28619e+06,752835 L4.28598e+06,752294 L4.28571e+06,751762 L4.28538e+06,751242 L4.285e+06,750736 L4.28457e+06,750246 L4.28408e+06,749774 L4.28354e+06,749322 L4.28295e+06,748892 L4.28232e+06,748487 L4.28165e+06,748107 L4.28094e+06,747754 L4.28018e+06,747431 L4.2794e+06,747137 L4.27859e+06,746875 L4.27774e+06,746646 L4.27688e+06,746450 L4.276e+06,746289 L4.2751e+06,746163 L4.27418e+06,746072 L4.27327e+06,746018 L4.27234e+06,746000 L3.94766e+06,746000 L3.94674e+06,746018 L3.94582e+06,746072 L3.9449e+06,746163 L3.944e+06,746289 L3.94312e+06,746450 L3.94226e+06,746646 L3.94141e+06,746875 L3.9406e+06,747137 L3.93982e+06,747431 L3.93906e+06,747754 L3.93835e+06,748107 L3.93768e+06,748487 L3.93704e+06,748892 L3.93646e+06,749322 L3.93592e+06,749774 L3.93543e+06,750246 L3.935e+06,750736 L3.93462e+06,751242 L3.93429e+06,751762 L3.93402e+06,752294 L3.93381e+06,752835 L3.93366e+06,753383 L3.93357e+06,753936 L3.93354e+06,754492 L3.93354e+06,2.99758e+06 L3.93357e+06,2.99813e+06 L3.93366e+06,2.99869e+06 L3.93381e+06,2.99923e+06 L3.93402e+06,2.99978e+06 L3.93429e+06,3.00031e+06 L3.93462e+06,3.00083e+06 L3.935e+06,3.00133e+06 L3.93543e+06,3.00182e+06 L3.93592e+06,3.0023e+06 L3.93646e+06,3.00275e+06 L3.93704e+06,3.00318e+06 L3.93768e+06,3.00358e+06 L3.93835e+06,3.00396e+06 L3.93906e+06,3.00431e+06 L3.93982e+06,3.00464e+06 L3.9406e+06,3.00493e+06 L3.94141e+06,3.00519e+06 L3.94226e+06,3.00542e+06 L3.94312e+06,3.00562e+06 L3.944e+06,3.00578e+06 L3.9449e+06,3.00591e+06 L3.94582e+06,3.006e+06 L3.94674e+06,3.00605e+06 L3.94766e+06,3.00607e+06"/>
</g>

<g fill="none" stroke="#ffffff" stroke-opacity="1" stroke-width="2" stroke-linecap="butt" stroke-linejoin="round" transform="matrix(0.5,0,0,0.5,-37.4091,-4.00001)"
font-family="Arial" font-size="18" font-weight="400" font-style="normal"
>
<path vector-effect="none" fill-rule="evenodd" d="M427.234,300.607 L427.326,300.605 L427.418,300.6 L427.51,300.591 L427.6,300.578 L427.688,300.562 L427.774,300.542 L427.859,300.519 L427.94,300.493 L428.018,300.464 L428.094,300.431 L428.165,300.396 L428.232,300.358 L428.295,300.318 L428.354,300.275 L428.408,300.23 L428.457,300.182 L428.5,300.133 L428.538,300.083 L428.571,300.031 L428.598,299.978 L428.619,299.923 L428.634,299.869 L428.643,299.813 L428.646,299.758 L428.646,75.4492 L428.643,75.3937 L428.634,75.3384 L428.619,75.2835 L428.598,75.2294 L428.571,75.1763 L428.538,75.1242 L428.5,75.0736 L428.457,75.0246 L428.408,74.9774 L428.354,74.9323 L428.295,74.8893 L428.232,74.8487 L428.165,74.8108 L428.094,74.7755 L428.018,74.7431 L427.94,74.7138 L427.859,74.6876 L427.774,74.6647 L427.688,74.6451 L427.6,74.629 L427.51,74.6163 L427.418,74.6073 L427.326,74.6018 L427.234,74.6 L394.766,74.6 L394.674,74.6018 L394.582,74.6073 L394.49,74.6163 L394.4,74.629 L394.312,74.6451 L394.226,74.6647 L394.141,74.6876 L394.06,74.7138 L393.982,74.7431 L393.906,74.7755 L393.835,74.8108 L393.768,74.8487 L393.704,74.8893 L393.646,74.9323 L393.592,74.9774 L393.543,75.0246 L393.5,75.0736 L393.462,75.1242 L393.429,75.1763 L393.402,75.2294 L393.381,75.2835 L393.366,75.3384 L393.357,75.3937 L393.354,75.4492 L393.354,299.758 L393.357,299.813 L393.366,299.869 L393.381,299.923 L393.402,299.978 L393.429,300.031 L393.462,300.083 L393.5,300.133 L393.543,300.182 L393.592,300.23 L393.646,300.275 L393.704,300.318 L393.768,300.358 L393.835,300.396 L393.906,300.431 L393.982,300.464 L394.06,300.493 L394.141,300.519 L394.226,300.542 L394.312,300.562 L394.4,300.578 L394.49,300.591 L394.582,300.6 L394.674,300.605 L394.766,300.607 L427.234,300.607"/>
</g>

<g fill="#1f1f1f" fill-opacity="1" stroke="#1f1f1f" stroke-opacity="1" stroke-width="1" stroke-linecap="square" stroke-linejoin="bevel" transform="matrix(0.5,0,0,0.5,159.591,92.8017)"
font-family="Arial" font-size="18" font-weight="400" font-style="normal"
>
<text fill="#1f1f1f" fill-opacity="1" stroke="none" xml:space="preserve" x="0" y="0.28125" font-family="Arial" font-size="18" font-weight="400" font-style="normal"
 >Grid</text>
</g>

<g fill="#da9ebf" fill-opacity="1" stroke="none" transform="matrix(5e-05,0,0,5e-05,-37.4091,-4.00001)"
font-family="Arial" font-size="18" font-weight="400" font-style="normal"
>
<path vector-effect="none" fill-rule="evenodd" d="M6.25766e+06,3.834e+06 L6.58234e+06,3.834e+06 L6.58327e+06,3.83398e+06 L6.58418e+06,3.83393e+06 L6.5851e+06,3.83384e+06 L6.586e+06,3.83371e+06 L6.58688e+06,3.83355e+06 L6.58774e+06,3.83335e+06 L6.58859e+06,3.83312e+06 L6.5894e+06,3.83286e+06 L6.59018e+06,3.83257e+06 L6.59094e+06,3.83225e+06 L6.59165e+06,3.83189e+06 L6.59232e+06,3.83151e+06 L6.59295e+06,3.83111e+06 L6.59354e+06,3.83068e+06 L6.59408e+06,3.83023e+06 L6.59457e+06,3.82975e+06 L6.595e+06,3.82926e+06 L6.59538e+06,3.82876e+06 L6.59571e+06,3.82824e+06 L6.59598e+06,3.82771e+06 L6.59619e+06,3.82716e+06 L6.59634e+06,3.82662e+06 L6.59643e+06,3.82606e+06 L6.59646e+06,3.82551e+06 L6.59646e+06,2.54431e+06 L6.59643e+06,2.54376e+06 L6.59634e+06,2.5432e+06 L6.59619e+06,2.54266e+06 L6.59598e+06,2.54212e+06 L6.59571e+06,2.54158e+06 L6.59538e+06,2.54106e+06 L6.595e+06,2.54056e+06 L6.59457e+06,2.54007e+06 L6.59408e+06,2.5396e+06 L6.59354e+06,2.53914e+06 L6.59295e+06,2.53871e+06 L6.59232e+06,2.53831e+06 L6.59165e+06,2.53793e+06 L6.59094e+06,2.53758e+06 L6.59018e+06,2.53725e+06 L6.5894e+06,2.53696e+06 L6.58859e+06,2.5367e+06 L6.58774e+06,2.53647e+06 L6.58688e+06,2.53627e+06 L6.586e+06,2.53611e+06 L6.5851e+06,2.53598e+06 L6.58418e+06,2.53589e+06 L6.58327e+06,2.53584e+06 L6.58234e+06,2.53582e+06 L6.25766e+06,2.53582e+06 L6.25674e+06,2.53584e+06 L6.25582e+06,2.53589e+06 L6.2549e+06,2.53598e+06 L6.254e+06,2.53611e+06 L6.25312e+06,2.53627e+06 L6.25226e+06,2.53647e+06 L6.25142e+06,2.5367e+06 L6.2506e+06,2.53696e+06 L6.24982e+06,2.53725e+06 L6.24907e+06,2.53758e+06 L6.24835e+06,2.53793e+06 L6.24768e+06,2.53831e+06 L6.24704e+06,2.53871e+06 L6.24646e+06,2.53914e+06 L6.24592e+06,2.5396e+06 L6.24543e+06,2.54007e+06 L6.245e+06,2.54056e+06 L6.24462e+06,2.54106e+06 L6.24429e+06,2.54158e+06 L6.24402e+06,2.54212e+06 L6.24381e+06,2.54266e+06 L6.24366e+06,2.5432e+06 L6.24357e+06,2.54376e+06 L6.24354e+06,2.54431e+06 L6.24354e+06,3.82551e+06 L6.24357e+06,3.82606e+06 L6.24366e+06,3.82662e+06 L6.24381e+06,3.82716e+06 L6.24402e+06,3.82771e+06 L6.24429e+06,3.82824e+06 L6.24462e+06,3.82876e+06 L6.245e+06,3.82926e+06 L6.24543e+06,3.82975e+06 L6.24592e+06,3.83023e+06 L6.24646e+06,3.83068e+06 L6.24704e+06,3.83111e+06 L6.24768e+06,3.83151e+06 L6.24835e+06,3.83189e+06 L6.24907e+06,3.83225e+06 L6.24982e+06,3.83257e+06 L6.2506e+06,3.83286e+06 L6.25142e+06,3.83312e+06 L6.25226e+06,3.83335e+06 L6.25312e+06,3.83355e+06 L6.254e+06,3.83371e+06 L6.2549e+06,3.83384e+06 L6.25582e+06,3.83393e+06 L6.25674e+06,3.83398e+06 L6.25766e+06,3.834e+06"/>
</g>

<g fill="none" stroke="#ffffff" stroke-opacity="1" stroke-width="2" stroke-linecap="butt" stroke-linejoin="round" transform="matrix(0.5,0,0,0.5,-37.4091,-4.00001)"
font-family="Arial" font-size="18" font-weight="400" font-style="normal"
>
<path vector-effect="none" fill-rule="evenodd" d="M658.234,383.4 L658.326,383.398 L658.418,383.393 L658.51,383.384 L658.6,383.371 L658.688,383.355 L658.774,383.335 L658.859,383.312 L658.94,383.286 L659.018,383.257 L659.094,383.225 L659.165,383.189 L659.232,383.151 L659.295,383.111 L659.354,383.068 L659.408,383.023 L659.457,382.975 L659.5,382.926 L659.538,382.876 L659.571,382.824 L659.598,382.771 L659.619,382.716 L659.634,382.662 L659.643,382.606 L659.646,382.551 L659.646,254.431 L659.643,254.376 L659.634,254.32 L659.619,254.266 L659.598,254.212 L659.571,254.158 L659.538,254.106 L659.5,254.056 L659.457,254.007 L659.408,253.96 L659.354,253.914 L659.295,253.871 L659.232,253.831 L659.165,253.793 L659.094,253.758 L659.018,253.725 L658.94,253.696 L658.859,253.67 L658.774,253.647 L658.688,253.627 L658.6,253.611 L658.51,253.598 L658.418,253.589 L658.326,253.584 L658.234,253.582 L625.766,253.582 L625.674,253.584 L625.582,253.589 L625.49,253.598 L625.4,253.611 L625.312,253.627 L625.226,253.647 L625.141,253.67 L625.06,253.696 L624.982,253.725 L624.906,253.758 L624.835,253.793 L624.768,253.831 L624.704,253.871 L624.646,253.914 L624.592,253.96 L624.543,254.007 L624.5,254.056 L624.462,254.106 L624.429,254.158 L624.402,254.212 L624.381,254.266 L624.366,254.32 L624.357,254.376 L624.354,254.431 L624.354,382.551 L624.357,382.606 L624.366,382.662 L624.381,382.716 L624.402,382.771 L624.429,382.824 L624.462,382.876 L624.5,382.926 L624.543,382.975 L624.592,383.023 L624.646,383.068 L624.704,383.111 L624.768,383.151 L624.835,383.189 L624.906,383.225 L624.982,383.257 L625.06,383.286 L625.141,383.312 L625.226,383.335 L625.312,383.355 L625.4,383.371 L625.49,383.384 L625.582,383.393 L625.674,383.398 L625.766,383.4 L658.234,383.4"/>
</g>

<g fill="#1f1f1f" fill-opacity="1" stroke="#1f1f1f" stroke-opacity="1" stroke-width="1" stroke-linecap="square" stroke-linejoin="bevel" transform="matrix(0.5,0,0,0.5,267.591,158.246)"
font-family="Arial" font-size="18" font-weight="400" font-style="normal"
>
<text fill="#1f1f1f" fill-opacity="1" stroke="none" xml:space="preserve" x="0" y="0.28125" font-family="Arial" font-size="18" font-weight="400" font-style="normal"
 >Industry</text>
</g>

<g fill="#868686" fill-opacity="1" stroke="none" transform="matrix(5e-05,0,0,5e-05,-37.4091,-4.00001)"
font-family="Arial" font-size="18" font-weight="400" font-style="normal"
>
<path vector-effect="none" fill-rule="evenodd" d="M6.25766e+06,2.36212e+06 L6.58234e+06,2.36212e+06 L6.58327e+06,2.3621e+06 L6.58418e+06,2.36205e+06 L6.5851e+06,2.36196e+06 L6.586e+06,2.36183e+06 L6.58688e+06,2.36167e+06 L6.58774e+06,2.36147e+06 L6.58859e+06,2.36125e+06 L6.5894e+06,2.36098e+06 L6.59018e+06,2.36069e+06 L6.59094e+06,2.36037e+06 L6.59165e+06,2.36001e+06 L6.59232e+06,2.35963e+06 L6.59295e+06,2.35923e+06 L6.59354e+06,2.3588e+06 L6.59408e+06,2.35835e+06 L6.59457e+06,2.35788e+06 L6.595e+06,2.35739e+06 L6.59538e+06,2.35688e+06 L6.59571e+06,2.35636e+06 L6.59598e+06,2.35583e+06 L6.59619e+06,2.35529e+06 L6.59634e+06,2.35474e+06 L6.59643e+06,2.35418e+06 L6.59646e+06,2.35363e+06 L6.59646e+06,1.2888e+06 L6.59643e+06,1.28824e+06 L6.59634e+06,1.28769e+06 L6.59619e+06,1.28714e+06 L6.59598e+06,1.2866e+06 L6.59571e+06,1.28607e+06 L6.59538e+06,1.28555e+06 L6.595e+06,1.28504e+06 L6.59457e+06,1.28455e+06 L6.59408e+06,1.28408e+06 L6.59354e+06,1.28363e+06 L6.59295e+06,1.2832e+06 L6.59232e+06,1.28279e+06 L6.59165e+06,1.28241e+06 L6.59094e+06,1.28206e+06 L6.59018e+06,1.28174e+06 L6.5894e+06,1.28144e+06 L6.58859e+06,1.28118e+06 L6.58774e+06,1.28095e+06 L6.58688e+06,1.28076e+06 L6.586e+06,1.28059e+06 L6.5851e+06,1.28047e+06 L6.58418e+06,1.28038e+06 L6.58327e+06,1.28032e+06 L6.58234e+06,1.28031e+06 L6.25766e+06,1.28031e+06 L6.25674e+06,1.28032e+06 L6.25582e+06,1.28038e+06 L6.2549e+06,1.28047e+06 L6.254e+06,1.28059e+06 L6.25312e+06,1.28076e+06 L6.25226e+06,1.28095e+06 L6.25142e+06,1.28118e+06 L6.2506e+06,1.28144e+06 L6.24982e+06,1.28174e+06 L6.24907e+06,1.28206e+06 L6.24835e+06,1.28241e+06 L6.24768e+06,1.28279e+06 L6.24704e+06,1.2832e+06 L6.24646e+06,1.28363e+06 L6.24592e+06,1.28408e+06 L6.24543e+06,1.28455e+06 L6.245e+06,1.28504e+06 L6.24462e+06,1.28555e+06 L6.24429e+06,1.28607e+06 L6.24402e+06,1.2866e+06 L6.24381e+06,1.28714e+06 L6.24366e+06,1.28769e+06 L6.24357e+06,1.28824e+06 L6.24354e+06,1.2888e+06 L6.24354e+06,2.35363e+06 L6.24357e+06,2.35418e+06 L6.24366e+06,2.35474e+06 L6.24381e+06,2.35529e+06 L6.24402e+06,2.35583e+06 L6.24429e+06,2.35636e+06 L6.24462e+06,2.35688e+06 L6.245e+06,2.35739e+06 L6.24543e+06,2.35788e+06 L6.24592e+06,2.35835e+06 L6.24646e+06,2.3588e+06 L6.24704e+06,2.35923e+06 L6.24768e+06,2.35963e+06 L6.24835e+06,2.36001e+06 L6.24907e+06,2.36037e+06 L6.24982e+06,2.36069e+06 L6.2506e+06,2.36098e+06 L6.25142e+06,2.36125e+06 L6.25226e+06,2.36147e+06 L6.25312e+06,2.36167e+06 L6.254e+06,2.36183e+06 L6.2549e+06,2.36196e+06 L6.25582e+06,2.36205e+06 L6.25674e+06,2.3621e+06 L6.25766e+06,2.36212e+06"/>
</g>

<g fill="none" stroke="#ffffff" stroke-opacity="1" stroke-width="2" stroke-linecap="butt" stroke-linejoin="round" transform="matrix(0.5,0,0,0.5,-37.4091,-4.00001)"
font-family="Arial" font-size="18" font-weight="400" font-style="normal"
>
<path vector-effect="none" fill-rule="evenodd" d="M658.234,236.212 L658.326,236.21 L658.418,236.205 L658.51,236.196 L658.6,236.183 L658.688,236.167 L658.774,236.147 L658.859,236.125 L658.94,236.098 L659.018,236.069 L659.094,236.037 L659.165,236.001 L659.232,235.963 L659.295,235.923 L659.354,235.88 L659.408,235.835 L659.457,235.788 L659.5,235.738 L659.538,235.688 L659.571,235.636 L659.598,235.583 L659.619,235.529 L659.634,235.474 L659.643,235.418 L659.646,235.363 L659.646,128.88 L659.643,128.824 L659.634,128.769 L659.619,128.714 L659.598,128.66 L659.571,128.607 L659.538,128.555 L659.5,128.504 L659.457,128.455 L659.408,128.408 L659.354,128.363 L659.295,128.32 L659.232,128.279 L659.165,128.241 L659.094,128.206 L659.018,128.174 L658.94,128.144 L658.859,128.118 L658.774,128.095 L658.688,128.076 L658.6,128.059 L658.51,128.047 L658.418,128.038 L658.326,128.032 L658.234,128.031 L625.766,128.031 L625.674,128.032 L625.582,128.038 L625.49,128.047 L625.4,128.059 L625.312,128.076 L625.226,128.095 L625.141,128.118 L625.06,128.144 L624.982,128.174 L624.906,128.206 L624.835,128.241 L624.768,128.279 L624.704,128.32 L624.646,128.363 L624.592,128.408 L624.543,128.455 L624.5,128.504 L624.462,128.555 L624.429,128.607 L624.402,128.66 L624.381,128.714 L624.366,128.769 L624.357,128.824 L624.354,128.88 L624.354,235.363 L624.357,235.418 L624.366,235.474 L624.381,235.529 L624.402,235.583 L624.429,235.636 L624.462,235.688 L624.5,235.738 L624.543,235.788 L624.592,235.835 L624.646,235.88 L624.704,235.923 L624.768,235.963 L624.835,236.001 L624.906,236.037 L624.982,236.069 L625.06,236.098 L625.141,236.125 L625.226,236.147 L625.312,236.167 L625.4,236.183 L625.49,236.196 L625.582,236.205 L625.674,236.21 L625.766,236.212 L658.234,236.212"/>
</g>

<g fill="#1f1f1f" fill-opacity="1" stroke="#1f1f1f" stroke-opacity="1" stroke-width="1" stroke-linecap="square" stroke-linejoin="bevel" transform="matrix(0.5,0,0,0.5,266.841,90.0606)"
font-family="Arial" font-size="18" font-weight="400" font-style="normal"
>
<text fill="#1f1f1f" fill-opacity="1" stroke="none" xml:space="preserve" x="0" y="0.28125" font-family="Arial" font-size="18" font-weight="400" font-style="normal"
 >Campus</text>
</g>

<g fill="#f4eb77" fill-opacity="1" stroke="none" transform="matrix(5e-05,0,0,5e-05,-37.4091,-4.00001)"
font-family="Arial" font-size="18" font-weight="400" font-style="normal"
>
<path vector-effect="none" fill-rule="evenodd" d="M6.25766e+06,1.10661e+06 L6.58234e+06,1.10661e+06 L6.58327e+06,1.10659e+06 L6.58418e+06,1.10653e+06 L6.5851e+06,1.10644e+06 L6.586e+06,1.10632e+06 L6.58688e+06,1.10615e+06 L6.58774e+06,1.10596e+06 L6.58859e+06,1.10573e+06 L6.5894e+06,1.10547e+06 L6.59018e+06,1.10517e+06 L6.59094e+06,1.10485e+06 L6.59165e+06,1.1045e+06 L6.59232e+06,1.10412e+06 L6.59295e+06,1.10371e+06 L6.59354e+06,1.10328e+06 L6.59408e+06,1.10283e+06 L6.59457e+06,1.10236e+06 L6.595e+06,1.10187e+06 L6.59538e+06,1.10136e+06 L6.59571e+06,1.10084e+06 L6.59598e+06,1.10031e+06 L6.59619e+06,1.09977e+06 L6.59634e+06,1.09922e+06 L6.59643e+06,1.09867e+06 L6.59646e+06,1.09811e+06 L6.59646e+06,754492 L6.59643e+06,753936 L6.59634e+06,753383 L6.59619e+06,752835 L6.59598e+06,752294 L6.59571e+06,751762 L6.59538e+06,751242 L6.595e+06,750736 L6.59457e+06,750246 L6.59408e+06,749774 L6.59354e+06,749322 L6.59295e+06,748893 L6.59232e+06,748487 L6.59165e+06,748107 L6.59094e+06,747754 L6.59018e+06,747431 L6.5894e+06,747137 L6.58859e+06,746875 L6.58774e+06,746646 L6.58688e+06,746450 L6.586e+06,746289 L6.5851e+06,746163 L6.58418e+06,746072 L6.58327e+06,746018 L6.58234e+06,746000 L6.25766e+06,746000 L6.25674e+06,746018 L6.25582e+06,746072 L6.2549e+06,746163 L6.254e+06,746289 L6.25312e+06,746450 L6.25226e+06,746646 L6.25142e+06,746875 L6.2506e+06,747137 L6.24982e+06,747431 L6.24907e+06,747754 L6.24835e+06,748107 L6.24768e+06,748487 L6.24704e+06,748893 L6.24646e+06,749322 L6.24592e+06,749774 L6.24543e+06,750246 L6.245e+06,750736 L6.24462e+06,751242 L6.24429e+06,751762 L6.24402e+06,752294 L6.24381e+06,752835 L6.24366e+06,753383 L6.24357e+06,753936 L6.24354e+06,754492 L6.24354e+06,1.09811e+06 L6.24357e+06,1.09867e+06 L6.24366e+06,1.09922e+06 L6.24381e+06,1.09977e+06 L6.24402e+06,1.10031e+06 L6.24429e+06,1.10084e+06 L6.24462e+06,1.10136e+06 L6.245e+06,1.10187e+06 L6.24543e+06,1.10236e+06 L6.24592e+06,1.10283e+06 L6.24646e+06,1.10328e+06 L6.24704e+06,1.10371e+06 L6.24768e+06,1.10412e+06 L6.24835e+06,1.1045e+06 L6.24907e+06,1.10485e+06 L6.24982e+06,1.10517e+06 L6.2506e+06,1.10547e+06 L6.25142e+06,1.10573e+06 L6.25226e+06,1.10596e+06 L6.25312e+06,1.10615e+06 L6.254e+06,1.10632e+06 L6.2549e+06,1.10644e+06 L6.25582e+06,1.10653e+06 L6.25674e+06,1.10659e+06 L6.25766e+06,1.10661e+06"/>
</g>

<g fill="none" stroke="#ffffff" stroke-opacity="1" stroke-width="2" stroke-linecap="butt" stroke-linejoin="round" transform="matrix(0.5,0,0,0.5,-37.4091,-4.00001)"
font-family="Arial" font-size="18" font-weight="400" font-style="normal"
>
<path vector-effect="none" fill-rule="evenodd" d="M658.234,110.661 L658.326,110.659 L658.418,110.653 L658.51,110.644 L658.6,110.632 L658.688,110.615 L658.774,110.596 L658.859,110.573 L658.94,110.547 L659.018,110.517 L659.094,110.485 L659.165,110.45 L659.232,110.412 L659.295,110.371 L659.354,110.328 L659.408,110.283 L659.457,110.236 L659.5,110.187 L659.538,110.136 L659.571,110.084 L659.598,110.031 L659.619,109.977 L659.634,109.922 L659.643,109.867 L659.646,109.811 L659.646,75.4492 L659.643,75.3937 L659.634,75.3384 L659.619,75.2835 L659.598,75.2294 L659.571,75.1763 L659.538,75.1242 L659.5,75.0736 L659.457,75.0246 L659.408,74.9774 L659.354,74.9323 L659.295,74.8893 L659.232,74.8487 L659.165,74.8108 L659.094,74.7755 L659.018,74.7431 L658.94,74.7138 L658.859,74.6876 L658.774,74.6647 L658.688,74.6451 L658.6,74.629 L658.51,74.6163 L658.418,74.6073 L658.326,74.6018 L658.234,74.6 L625.766,74.6 L625.674,74.6018 L625.582,74.6073 L625.49,74.6163 L625.4,74.629 L625.312,74.6451 L625.226,74.6647 L625.141,74.6876 L625.06,74.7138 L624.982,74.7431 L624.906,74.7755 L624.835,74.8108 L624.768,74.8487 L624.704,74.8893 L624.646,74.9323 L624.592,74.9774 L624.543,75.0246 L624.5,75.0736 L624.462,75.1242 L624.429,75.1763 L624.402,75.2294 L624.381,75.2835 L624.366,75.3384 L624.357,75.3937 L624.354,75.4492 L624.354,109.811 L624.357,109.867 L624.366,109.922 L624.381,109.977 L624.402,110.031 L624.429,110.084 L624.462,110.136 L624.5,110.187 L624.543,110.236 L624.592,110.283 L624.646,110.328 L624.704,110.371 L624.768,110.412 L624.835,110.45 L624.906,110.485 L624.982,110.517 L625.06,110.547 L625.141,110.573 L625.226,110.596 L625.312,110.615 L625.4,110.632 L625.49,110.644 L625.582,110.653 L625.674,110.659 L625.766,110.661 L658.234,110.661"/>
</g>

<g fill="#1f1f1f" fill-opacity="1" stroke="#1f1f1f" stroke-opacity="1" stroke-width="1" stroke-linecap="square" stroke-linejoin="bevel" transform="matrix(0.5,0,0,0.5,269.341,45.3151)"
font-family="Arial" font-size="18" font-weight="400" font-style="normal"
>
<text fill="#1f1f1f" fill-opacity="1" stroke="none" xml:space="preserve" x="0" y="0.28125" font-family="Arial" font-size="18" font-weight="400" font-style="normal"
 >Losses</text>
</g>

<g fill="#1f1f1f" fill-opacity="1" stroke="#1f1f1f" stroke-opacity="1" stroke-width="1" stroke-linecap="square" stroke-linejoin="bevel" transform="matrix(0.5,0,0,0.5,153.841,234.716)"
font-family="Arial" font-size="22" font-weight="400" font-style="normal"
>
<text fill="#1f1f1f" fill-opacity="1" stroke="none" xml:space="preserve" x="0" y="-0.09375" font-family="Arial" font-size="22" font-weight="400" font-style="normal"
 >Stage</text>
</g>

<g fill="#1f1f1f" fill-opacity="1" stroke="#1f1f1f" stroke-opacity="1" stroke-width="2.8" stroke-linecap="square" stroke-linejoin="round" transform="matrix(0.5,0,0,0.5,-37.4091,-4.00001)"
font-family="Arial" font-size="22" font-weight="400" font-style="normal"
>
<polyline fill="none" vector-effect="none" points="103,422 719,422 " />
<polyline fill="none" vector-effect="none" points="180,428.16 180,422 " />
<polyline fill="none" vector-effect="none" points="411,428.16 411,422 " />
<polyline fill="none" vector-effect="none" points="642,428.16 642,422 " />
</g>

<g fill="#1f1f1f" fill-opacity="1" stroke="#1f1f1f" stroke-opacity="1" stroke-width="1" stroke-linecap="square" stroke-linejoin="bevel" transform="matrix(0.5,0,0,0.5,35.3409,222.171)"
font-family="Arial" font-size="20" font-weight="400" font-style="normal"
>
<text fill="#1f1f1f" fill-opacity="1" stroke="none" xml:space="preserve" x="0" y="0.09375" font-family="Arial" font-size="20" font-weight="400" font-style="normal"
 >Stage 1</text>
</g>

<g fill="#1f1f1f" fill-opacity="1" stroke="#1f1f1f" stroke-opacity="1" stroke-width="1" stroke-linecap="square" stroke-linejoin="bevel" transform="matrix(0.5,0,0,0.5,150.841,222.171)"
font-family="Arial" font-size="20" font-weight="400" font-style="normal"
>
<text fill="#1f1f1f" fill-opacity="1" stroke="none" xml:space="preserve" x="0" y="0.09375" font-family="Arial" font-size="20" font-weight="400" font-style="normal"
 >Stage 2</text>
</g>

<g fill="#1f1f1f" fill-opacity="1" stroke="#1f1f1f" stroke-opacity="1" stroke-width="1" stroke-linecap="square" stroke-linejoin="bevel" transform="matrix(0.5,0,0,0.5,266.341,222.171)"
font-family="Arial" font-size="20" font-weight="400" font-style="normal"
>
<text fill="#1f1f1f" fill-opacity="1" stroke="none" xml:space="preserve" x="0" y="0.09375" font-family="Arial" font-size="20" font-weight="400" font-style="normal"
 >Stage 3</text>
</g>

<g fill="#1f1f1f" fill-opacity="1" stroke="#1f1f1f" stroke-opacity="1" stroke-width="1" stroke-linecap="square" stroke-linejoin="bevel" transform="matrix(0,-0.5,0.5,0,9.5,149.25)"
font-family="Arial" font-size="22" font-weight="400" font-style="normal"
>
<text fill="#1f1f1f" fill-opacity="1" stroke="none" xml:space="preserve" x="0" y="-0.09375" font-family="Arial" font-size="22" font-weight="400" font-style="normal"
 >Flow magnitude</text>
</g>

<g fill="#1f1f1f" fill-opacity="1" stroke="#1f1f1f" stroke-opacity="1" stroke-width="2.8" stroke-linecap="square" stroke-linejoin="round" transform="matrix(0.5,0,0,0.5,-37.4091,-4.00001)"
font-family="Arial" font-size="22" font-weight="400" font-style="normal"
>
<polyline fill="none" vector-effect="none" points="103,422 103,36 " />
</g>
</g>
</svg>
