<?xml version="1.0" encoding="UTF-8" standalone="no"?>
<svg width="124.531mm" height="83.6083mm"
 viewBox="0 0 353 237"
 xmlns="http://www.w3.org/2000/svg" xmlns:xlink="http://www.w3.org/1999/xlink"  version="1.2" baseProfile="tiny">
<title>Qt SVG Document</title>
<desc>Clean-room gallery output</desc>
<defs>
</defs>
<g fill="none" stroke="black" stroke-width="1" fill-rule="evenodd" stroke-linecap="square" stroke-linejoin="bevel" >

<g fill="#ffffff" fill-opacity="1" stroke="none" transform="matrix(0.5,0,0,0.5,-13.7382,-3.99999)"
font-family=".AppleSystemUIFont" font-size="13" font-weight="400" font-style="normal"
>
<path vector-effect="none" fill-rule="evenodd" d="M26,6 L732,6 L732,480 L26,480 L26,6"/>
</g>

<g fill="#ffffff" fill-opacity="1" stroke="none" transform="matrix(5e-05,0,0,5e-05,-13.7382,-3.99999)"
font-family=".AppleSystemUIFont" font-size="13" font-weight="400" font-style="normal"
>
<path vector-effect="none" fill-rule="evenodd" d="M1.03e+06,360000 L1.03e+06,4.22e+06 L7.19e+06,4.22e+06 L7.19e+06,360000 L1.03e+06,360000"/>
</g>

<g fill="#1f1f1f" fill-opacity="1" stroke="#1f1f1f" stroke-opacity="1" stroke-width="1" stroke-linecap="square" stroke-linejoin="bevel" transform="matrix(0.5,0,0,0.5,129.012,10)"
font-family="Arial" font-size="24" font-weight="700" font-style="normal"
>
<text fill="#1f1f1f" fill-opacity="1" stroke="none" xml:space="preserve" x="0" y="-0.28125" font-family="Arial" font-size="24" font-weight="700" font-style="normal"
 >Uncertainty Fan Chart</text>
</g>

<g fill="#0d528a" fill-opacity="0.160784" stroke="none" transform="matrix(5e-05,0,0,5e-05,-13.7382,-3.99999)"
font-family="Arial" font-size="24" font-weight="700" font-style="normal"
>
<path vector-effect="none" fill-rule="evenodd" d="M1.42755e+06,2.56447e+06 L1.37786e+06,2.60126e+06 L1.32816e+06,2.63932e+06 L1.27847e+06,2.67857e+06 L1.22878e+06,2.71896e+06 L1.17908e+06,2.76039e+06 L1.12939e+06,2.80279e+06 L1.07969e+06,2.84607e+06 L1.03e+06,2.89016e+06 L1.03e+06,3.84229e+06 L1.07969e+06,3.80751e+06 L1.12939e+06,3.77344e+06 L1.17908e+06,3.74018e+06 L1.22878e+06,3.70781e+06 L1.27847e+06,3.67641e+06 L1.32816e+06,3.64606e+06 L1.37786e+06,3.61683e+06 L1.42755e+06,3.58878e+06 L1.47725e+06,3.562e+06 L1.52694e+06,3.53653e+06 L1.57664e+06,3.51245e+06 L1.62633e+06,3.48979e+06 L1.67602e+06,3.46861e+06 L1.72572e+06,3.44896e+06 L1.77541e+06,3.43088e+06 L1.82511e+06,3.41439e+06 L1.8748e+06,3.39952e+06 L1.92449e+06,3.38631e+06 L1.97419e+06,3.37477e+06 L2.02388e+06,3.3649e+06 L2.07358e+06,3.35673e+06 L2.12327e+06,3.35025e+06 L2.17296e+06,3.34546e+06 L2.22266e+06,3.34234e+06 L2.27235e+06,3.34089e+06 L2.32205e+06,3.34109e+06 L2.37174e+06,3.34291e+06 L2.42144e+06,3.34631e+06 L2.47113e+06,3.35127e+06 L2.52082e+06,3.35775e+06 L2.57052e+06,3.36569e+06 L2.62021e+06,3.37506e+06 L2.66991e+06,3.38579e+06 L2.7196e+06,3.39783e+06 L2.76929e+06,3.4111e+06 L2.81899e+06,3.42556e+06 L2.86868e+06,3.44112e+06 L2.91838e+06,3.45771e+06 L2.96807e+06,3.47526e+06 L3.01777e+06,3.49368e+06 L3.06746e+06,3.51288e+06 L3.11715e+06,3.53279e+06 L3.16685e+06,3.55331e+06 L3.21654e+06,3.57436e+06 L3.26624e+06,3.59584e+06 L3.31593e+06,3.61765e+06 L3.36562e+06,3.63971e+06 L3.41532e+06,3.66192e+06 L3.46501e+06,3.68418e+06 L3.51471e+06,3.7064e+06 L3.5644e+06,3.72848e+06 L3.61409e+06,3.75032e+06 L3.66379e+06,3.77183e+06 L3.71348e+06,3.79292e+06 L3.76318e+06,3.8135e+06 L3.81287e+06,3.83347e+06 L3.86256e+06,3.85275e+06 L3.91226e+06,3.87124e+06 L3.96195e+06,3.88887e+06 L4.01165e+06,3.90556e+06 L4.06134e+06,3.92122e+06 L4.11104e+06,3.93578e+06 L4.16073e+06,3.94917e+06 L4.21042e+06,3.96133e+06 L4.26012e+06,3.97219e+06 L4.30981e+06,3.98168e+06 L4.35951e+06,3.98976e+06 L4.4092e+06,3.99638e+06 L4.45889e+06,4.00148e+06 L4.50859e+06,4.00504e+06 L4.55828e+06,4.00701e+06 L4.60798e+06,4.00735e+06 L4.65767e+06,4.00606e+06 L4.70737e+06,4.0031e+06 L4.75706e+06,3.99847e+06 L4.80675e+06,3.99214e+06 L4.85645e+06,3.98413e+06 L4.90614e+06,3.97442e+06 L4.95584e+06,3.96303e+06 L5.00553e+06,3.94998e+06 L5.05522e+06,3.93527e+06 L5.10492e+06,3.91892e+06 L5.15461e+06,3.90098e+06 L5.20431e+06,3.88148e+06 L5.254e+06,3.86044e+06 L5.30369e+06,3.83792e+06 L5.35339e+06,3.81396e+06 L5.40308e+06,3.78861e+06 L5.45278e+06,3.76195e+06 L5.50247e+06,3.73401e+06 L5.55217e+06,3.70488e+06 L5.60186e+06,3.67463e+06 L5.65155e+06,3.64331e+06 L5.70125e+06,3.61102e+06 L5.75094e+06,3.57784e+06 L5.80064e+06,3.54384e+06 L5.85033e+06,3.50911e+06 L5.90002e+06,3.47374e+06 L5.94972e+06,3.43783e+06 L5.99941e+06,3.40146e+06 L6.04911e+06,3.36472e+06 L6.0988e+06,3.32772e+06 L6.14849e+06,3.29054e+06 L6.19819e+06,3.25329e+06 L6.24788e+06,3.21606e+06 L6.29758e+06,3.17895e+06 L6.34727e+06,3.14205e+06 L6.39696e+06,3.10547e+06 L6.44666e+06,3.06929e+06 L6.49635e+06,3.03361e+06 L6.54605e+06,2.99853e+06 L6.59574e+06,2.96413e+06 L6.64544e+06,2.9305e+06 L6.69513e+06,2.89773e+06 L6.74482e+06,2.8659e+06 L6.79452e+06,2.83509e+06 L6.84421e+06,2.80538e+06 L6.89391e+06,2.77685e+06 L6.9436e+06,2.74956e+06 L6.9436e+06,822068 L6.89391e+06,860271 L6.84421e+06,899655 L6.79452e+06,940148 L6.74482e+06,981673 L6.69513e+06,1.02415e+06 L6.64544e+06,1.06751e+06 L6.59574e+06,1.11165e+06 L6.54605e+06,1.15649e+06 L6.49635e+06,1.20194e+06 L6.44666e+06,1.24791e+06 L6.39696e+06,1.29431e+06 L6.34727e+06,1.34103e+06 L6.29758e+06,1.388e+06 L6.24788e+06,1.4351e+06 L6.19819e+06,1.48224e+06 L6.14849e+06,1.52932e+06 L6.0988e+06,1.57625e+06 L6.04911e+06,1.62293e+06 L5.99941e+06,1.66926e+06 L5.94972e+06,1.71514e+06 L5.90002e+06,1.76049e+06 L5.85033e+06,1.80521e+06 L5.80064e+06,1.84921e+06 L5.75094e+06,1.89241e+06 L5.70125e+06,1.93471e+06 L5.65155e+06,1.97603e+06 L5.60186e+06,2.01629e+06 L5.55217e+06,2.05542e+06 L5.50247e+06,2.09335e+06 L5.45278e+06,2.13e+06 L5.40308e+06,2.16531e+06 L5.35339e+06,2.19921e+06 L5.30369e+06,2.23166e+06 L5.254e+06,2.26259e+06 L5.20431e+06,2.29197e+06 L5.15461e+06,2.31974e+06 L5.10492e+06,2.34587e+06 L5.05522e+06,2.37034e+06 L5.00553e+06,2.3931e+06 L4.95584e+06,2.41414e+06 L4.90614e+06,2.43345e+06 L4.85645e+06,2.45101e+06 L4.80675e+06,2.46681e+06 L4.75706e+06,2.48086e+06 L4.70737e+06,2.49316e+06 L4.65767e+06,2.50373e+06 L4.60798e+06,2.51257e+06 L4.55828e+06,2.51972e+06 L4.50859e+06,2.5252e+06 L4.45889e+06,2.52904e+06 L4.4092e+06,2.53127e+06 L4.35951e+06,2.53196e+06 L4.30981e+06,2.53113e+06 L4.26012e+06,2.52884e+06 L4.21042e+06,2.52515e+06 L4.16073e+06,2.52013e+06 L4.11104e+06,2.51383e+06 L4.06134e+06,2.50632e+06 L4.01165e+06,2.49769e+06 L3.96195e+06,2.48801e+06 L3.91226e+06,2.47735e+06 L3.86256e+06,2.46581e+06 L3.81287e+06,2.45346e+06 L3.76318e+06,2.4404e+06 L3.71348e+06,2.42672e+06 L3.66379e+06,2.41251e+06 L3.61409e+06,2.39787e+06 L3.5644e+06,2.38289e+06 L3.51471e+06,2.36766e+06 L3.46501e+06,2.3523e+06 L3.41532e+06,2.33689e+06 L3.36562e+06,2.32153e+06 L3.31593e+06,2.30633e+06 L3.26624e+06,2.29138e+06 L3.21654e+06,2.27677e+06 L3.16685e+06,2.26261e+06 L3.11715e+06,2.24899e+06 L3.06746e+06,2.236e+06 L3.01777e+06,2.22373e+06 L2.96807e+06,2.21227e+06 L2.91838e+06,2.20171e+06 L2.86868e+06,2.19213e+06 L2.81899e+06,2.18361e+06 L2.76929e+06,2.17623e+06 L2.7196e+06,2.17006e+06 L2.66991e+06,2.16516e+06 L2.62021e+06,2.16162e+06 L2.57052e+06,2.15947e+06 L2.52082e+06,2.1588e+06 L2.47113e+06,2.15963e+06 L2.42144e+06,2.16203e+06 L2.37174e+06,2.16604e+06 L2.32205e+06,2.17168e+06 L2.27235e+06,2.179e+06 L2.22266e+06,2.18802e+06 L2.17296e+06,2.19877e+06 L2.12327e+06,2.21125e+06 L2.07358e+06,2.22548e+06 L2.02388e+06,2.24146e+06 L1.97419e+06,2.2592e+06 L1.92449e+06,2.27868e+06 L1.8748e+06,2.29991e+06 L1.82511e+06,2.32285e+06 L1.77541e+06,2.34748e+06 L1.72572e+06,2.37379e+06 L1.67602e+06,2.40173e+06 L1.62633e+06,2.43127e+06 L1.57664e+06,2.46236e+06 L1.52694e+06,2.49497e+06 L1.47725e+06,2.52902e+06 L1.42755e+06,2.56447e+06"/>
</g>

<g fill="#0d528a" fill-opacity="0.321569" stroke="none" transform="matrix(5e-05,0,0,5e-05,-13.7382,-3.99999)"
font-family="Arial" font-size="24" font-weight="700" font-style="normal"
>
<path vector-effect="none" fill-rule="evenodd" d="M1.07969e+06,3.55385e+06 L1.12939e+06,3.51817e+06 L1.17908e+06,3.48332e+06 L1.22878e+06,3.44937e+06 L1.27847e+06,3.4164e+06 L1.32816e+06,3.38448e+06 L1.37786e+06,3.35369e+06 L1.42755e+06,3.32411e+06 L1.47725e+06,3.29578e+06 L1.52694e+06,3.26878e+06 L1.57664e+06,3.24316e+06 L1.62633e+06,3.21898e+06 L1.67602e+06,3.19627e+06 L1.72572e+06,3.17509e+06 L1.77541e+06,3.15547e+06 L1.82511e+06,3.13745e+06 L1.8748e+06,3.12105e+06 L1.92449e+06,3.10629e+06 L1.97419e+06,3.0932e+06 L2.02388e+06,3.08178e+06 L2.07358e+06,3.07204e+06 L2.12327e+06,3.06398e+06 L2.17296e+06,3.0576e+06 L2.22266e+06,3.05288e+06 L2.27235e+06,3.04982e+06 L2.32205e+06,3.04838e+06 L2.37174e+06,3.04855e+06 L2.42144e+06,3.0503e+06 L2.47113e+06,3.05358e+06 L2.52082e+06,3.05836e+06 L2.57052e+06,3.06459e+06 L2.62021e+06,3.07222e+06 L2.66991e+06,3.08119e+06 L2.7196e+06,3.09145e+06 L2.76929e+06,3.10292e+06 L2.81899e+06,3.11555e+06 L2.86868e+06,3.12927e+06 L2.91838e+06,3.14398e+06 L2.96807e+06,3.15963e+06 L3.01777e+06,3.17612e+06 L3.06746e+06,3.19337e+06 L3.11715e+06,3.2113e+06 L3.16685e+06,3.22982e+06 L3.21654e+06,3.24883e+06 L3.26624e+06,3.26825e+06 L3.31593e+06,3.28797e+06 L3.36562e+06,3.30791e+06 L3.41532e+06,3.32797e+06 L3.46501e+06,3.34805e+06 L3.51471e+06,3.36806e+06 L3.5644e+06,3.3879e+06 L3.61409e+06,3.40748e+06 L3.66379e+06,3.42669e+06 L3.71348e+06,3.44545e+06 L3.76318e+06,3.46367e+06 L3.81287e+06,3.48125e+06 L3.86256e+06,3.49811e+06 L3.91226e+06,3.51416e+06 L3.96195e+06,3.52931e+06 L4.01165e+06,3.54348e+06 L4.06134e+06,3.55661e+06 L4.11104e+06,3.5686e+06 L4.16073e+06,3.5794e+06 L4.21042e+06,3.58893e+06 L4.26012e+06,3.59714e+06 L4.30981e+06,3.60395e+06 L4.35951e+06,3.60933e+06 L4.4092e+06,3.61321e+06 L4.45889e+06,3.61555e+06 L4.50859e+06,3.61632e+06 L4.55828e+06,3.61547e+06 L4.60798e+06,3.61298e+06 L4.65767e+06,3.60882e+06 L4.70737e+06,3.60298e+06 L4.75706e+06,3.59543e+06 L4.80675e+06,3.58618e+06 L4.85645e+06,3.57521e+06 L4.90614e+06,3.56253e+06 L4.95584e+06,3.54815e+06 L5.00553e+06,3.53207e+06 L5.05522e+06,3.51433e+06 L5.10492e+06,3.49493e+06 L5.15461e+06,3.47392e+06 L5.20431e+06,3.45133e+06 L5.254e+06,3.42719e+06 L5.30369e+06,3.40155e+06 L5.35339e+06,3.37446e+06 L5.40308e+06,3.34597e+06 L5.45278e+06,3.31614e+06 L5.50247e+06,3.28504e+06 L5.55217e+06,3.25273e+06 L5.60186e+06,3.21928e+06 L5.65155e+06,3.18477e+06 L5.70125e+06,3.14927e+06 L5.75094e+06,3.11287e+06 L5.80064e+06,3.07564e+06 L5.85033e+06,3.03769e+06 L5.90002e+06,2.99909e+06 L5.94972e+06,2.95993e+06 L5.99941e+06,2.92032e+06 L6.04911e+06,2.88034e+06 L6.0988e+06,2.84009e+06 L6.14849e+06,2.79967e+06 L6.19819e+06,2.75917e+06 L6.24788e+06,2.7187e+06 L6.29758e+06,2.67834e+06 L6.34727e+06,2.6382e+06 L6.39696e+06,2.59838e+06 L6.44666e+06,2.55897e+06 L6.49635e+06,2.52006e+06 L6.54605e+06,2.48175e+06 L6.59574e+06,2.44413e+06 L6.64544e+06,2.40729e+06 L6.69513e+06,2.37131e+06 L6.74482e+06,2.33628e+06 L6.79452e+06,2.30229e+06 L6.84421e+06,2.2694e+06 L6.89391e+06,2.23769e+06 L6.9436e+06,2.20724e+06 L6.9436e+06,1.36438e+06 L6.89391e+06,1.39942e+06 L6.84421e+06,1.43564e+06 L6.79452e+06,1.47295e+06 L6.74482e+06,1.51129e+06 L6.69513e+06,1.55057e+06 L6.64544e+06,1.59072e+06 L6.59574e+06,1.63164e+06 L6.54605e+06,1.67327e+06 L6.49635e+06,1.71549e+06 L6.44666e+06,1.75823e+06 L6.39696e+06,1.80139e+06 L6.34727e+06,1.84488e+06 L6.29758e+06,1.8886e+06 L6.24788e+06,1.93246e+06 L6.19819e+06,1.97635e+06 L6.14849e+06,2.02019e+06 L6.0988e+06,2.06387e+06 L6.04911e+06,2.10731e+06 L5.99941e+06,2.15039e+06 L5.94972e+06,2.19304e+06 L5.90002e+06,2.23515e+06 L5.85033e+06,2.27664e+06 L5.80064e+06,2.31741e+06 L5.75094e+06,2.35738e+06 L5.70125e+06,2.39646e+06 L5.65155e+06,2.43457e+06 L5.60186e+06,2.47164e+06 L5.55217e+06,2.50758e+06 L5.50247e+06,2.54232e+06 L5.45278e+06,2.5758e+06 L5.40308e+06,2.60795e+06 L5.35339e+06,2.63871e+06 L5.30369e+06,2.66803e+06 L5.254e+06,2.69584e+06 L5.20431e+06,2.72211e+06 L5.15461e+06,2.7468e+06 L5.10492e+06,2.76987e+06 L5.05522e+06,2.79127e+06 L5.00553e+06,2.811e+06 L4.95584e+06,2.82903e+06 L4.90614e+06,2.84534e+06 L4.85645e+06,2.85992e+06 L4.80675e+06,2.87277e+06 L4.75706e+06,2.88389e+06 L4.70737e+06,2.89329e+06 L4.65767e+06,2.90097e+06 L4.60798e+06,2.90695e+06 L4.55828e+06,2.91126e+06 L4.50859e+06,2.91392e+06 L4.45889e+06,2.91497e+06 L4.4092e+06,2.91445e+06 L4.35951e+06,2.91239e+06 L4.30981e+06,2.90886e+06 L4.26012e+06,2.90389e+06 L4.21042e+06,2.89755e+06 L4.16073e+06,2.8899e+06 L4.11104e+06,2.881e+06 L4.06134e+06,2.87093e+06 L4.01165e+06,2.85977e+06 L3.96195e+06,2.84757e+06 L3.91226e+06,2.83444e+06 L3.86256e+06,2.82045e+06 L3.81287e+06,2.80568e+06 L3.76318e+06,2.79023e+06 L3.71348e+06,2.77419e+06 L3.66379e+06,2.75765e+06 L3.61409e+06,2.74071e+06 L3.5644e+06,2.72346e+06 L3.51471e+06,2.706e+06 L3.46501e+06,2.68843e+06 L3.41532e+06,2.67084e+06 L3.36562e+06,2.65333e+06 L3.31593e+06,2.63601e+06 L3.26624e+06,2.61897e+06 L3.21654e+06,2.6023e+06 L3.16685e+06,2.5861e+06 L3.11715e+06,2.57048e+06 L3.06746e+06,2.55551e+06 L3.01777e+06,2.54128e+06 L2.96807e+06,2.5279e+06 L2.91838e+06,2.51544e+06 L2.86868e+06,2.50399e+06 L2.81899e+06,2.49362e+06 L2.76929e+06,2.48441e+06 L2.7196e+06,2.47643e+06 L2.66991e+06,2.46976e+06 L2.62021e+06,2.46446e+06 L2.57052e+06,2.46058e+06 L2.52082e+06,2.45818e+06 L2.47113e+06,2.45732e+06 L2.42144e+06,2.45805e+06 L2.37174e+06,2.46039e+06 L2.32205e+06,2.46439e+06 L2.27235e+06,2.47008e+06 L2.22266e+06,2.47749e+06 L2.17296e+06,2.48663e+06 L2.12327e+06,2.49752e+06 L2.07358e+06,2.51017e+06 L2.02388e+06,2.52459e+06 L1.97419e+06,2.54077e+06 L1.92449e+06,2.5587e+06 L1.8748e+06,2.57838e+06 L1.82511e+06,2.59978e+06 L1.77541e+06,2.62288e+06 L1.72572e+06,2.64766e+06 L1.67602e+06,2.67407e+06 L1.62633e+06,2.70208e+06 L1.57664e+06,2.73165e+06 L1.52694e+06,2.76272e+06 L1.47725e+06,2.79524e+06 L1.42755e+06,2.82915e+06 L1.37786e+06,2.86439e+06 L1.32816e+06,2.90089e+06 L1.27847e+06,2.93859e+06 L1.22878e+06,2.9774e+06 L1.17908e+06,3.01725e+06 L1.12939e+06,3.05806e+06 L1.07969e+06,3.09973e+06 L1.03e+06,3.1422e+06 L1.03e+06,3.59025e+06 L1.07969e+06,3.55385e+06"/>
</g>

<g fill="none" stroke="#093b63" stroke-opacity="1" stroke-width="3.6" stroke-linecap="butt" stroke-linejoin="round" transform="matrix(0.5,0,0,0.5,-13.7382,-3.99999)"
font-family="Arial" font-size="24" font-weight="700" font-style="normal"
>
<polyline fill="none" vector-effect="none" points="103,336.622 107.969,332.679 112.939,328.811 117.908,325.029 122.878,321.338 127.847,317.749 132.816,314.269 137.786,310.904 142.755,307.663 147.725,304.551 152.694,301.575 157.664,298.74 162.633,296.053 167.602,293.517 172.572,291.138 177.541,288.918 182.511,286.862 187.48,284.971 192.449,283.25 197.419,281.698 202.388,280.318 207.358,279.11 212.327,278.075 217.296,277.211 222.266,276.518 227.235,275.995 232.205,275.639 237.174,275.447 242.144,275.417 247.113,275.545 252.082,275.827 257.052,276.258 262.021,276.834 266.991,277.548 271.96,278.394 276.929,279.367 281.899,280.459 286.868,281.663 291.838,282.971 296.807,284.376 301.776,285.87 306.746,287.444 311.715,289.089 316.685,290.796 321.654,292.557 326.624,294.361 331.593,296.199 336.562,298.062 341.532,299.94 346.501,301.824 351.471,303.703 356.44,305.568 361.409,307.409 366.379,309.217 371.348,310.982 376.318,312.695 381.287,314.347 386.256,315.928 391.226,317.43 396.195,318.844 401.165,320.162 406.134,321.377 411.104,322.48 416.073,323.465 421.042,324.324 426.012,325.051 430.981,325.64 435.951,326.086 440.92,326.383 445.889,326.526 450.859,326.512 455.828,326.336 460.798,325.996 465.767,325.489 470.736,324.813 475.706,323.966 480.675,322.948 485.645,321.757 490.614,320.394 495.584,318.859 500.553,317.154 505.522,315.28 510.492,313.24 515.461,311.036 520.431,308.672 525.4,306.151 530.369,303.479 535.339,300.658 540.308,297.696 545.278,294.597 550.247,291.368 555.216,288.015 560.186,284.546 565.155,280.967 570.125,277.286 575.094,273.512 580.064,269.653 585.033,265.716 590.002,261.712 594.972,257.649 599.941,253.536 604.911,249.382 609.88,245.198 614.849,240.993 619.819,236.776 624.788,232.558 629.758,228.347 634.727,224.154 639.696,219.989 644.666,215.86 649.635,211.778 654.605,207.751 659.574,203.789 664.544,199.9 669.513,196.094 674.482,192.379 679.452,188.762 684.421,185.252 689.391,181.856 694.36,178.581 " />
</g>

<g fill="#dbdbdb" fill-opacity="0.25098" stroke="#dbdbdb" stroke-opacity="0.25098" stroke-width="2.8" stroke-linecap="butt" stroke-linejoin="round" transform="matrix(0.5,0,0,0.5,-13.7382,-3.99999)"
font-family="Arial" font-size="24" font-weight="700" font-style="normal"
>
<polyline fill="none" vector-effect="none" points="103,36 103,422 " />
<polyline fill="none" vector-effect="none" points="226.2,36 226.2,422 " />
<polyline fill="none" vector-effect="none" points="349.4,36 349.4,422 " />
<polyline fill="none" vector-effect="none" points="472.6,36 472.6,422 " />
<polyline fill="none" vector-effect="none" points="595.8,36 595.8,422 " />
<polyline fill="none" vector-effect="none" points="719,36 719,422 " />
<polyline fill="none" vector-effect="none" points="103,422 719,422 " />
<polyline fill="none" vector-effect="none" points="103,357.667 719,357.667 " />
<polyline fill="none" vector-effect="none" points="103,293.333 719,293.333 " />
<polyline fill="none" vector-effect="none" points="103,229 719,229 " />
<polyline fill="none" vector-effect="none" points="103,164.667 719,164.667 " />
<polyline fill="none" vector-effect="none" points="103,100.333 719,100.333 " />
<polyline fill="none" vector-effect="none" points="103,36 719,36 " />
</g>

<g fill="#1f1f1f" fill-opacity="1" stroke="#1f1f1f" stroke-opacity="1" stroke-width="1" stroke-linecap="square" stroke-linejoin="bevel" transform="matrix(0.5,0,0,0.5,150.762,234.716)"
font-family="Arial" font-size="22" font-weight="400" font-style="normal"
>
<text fill="#1f1f1f" fill-opacity="1" stroke="none" xml:space="preserve" x="0" y="-0.09375" font-family="Arial" font-size="22" font-weight="400" font-style="normal"
 >Forecast horizon</text>
</g>

<g fill="#1f1f1f" fill-opacity="1" stroke="#1f1f1f" stroke-opacity="1" stroke-width="2.8" stroke-linecap="square" stroke-linejoin="round" transform="matrix(0.5,0,0,0.5,-13.7382,-3.99999)"
font-family="Arial" font-size="22" font-weight="400" font-style="normal"
>
<polyline fill="none" vector-effect="none" points="103,422 719,422 " />
<polyline fill="none" vector-effect="none" points="103,428.16 103,422 " />
<polyline fill="none" vector-effect="none" points="226.2,428.16 226.2,422 " />
<polyline fill="none" vector-effect="none" points="349.4,428.16 349.4,422 " />
<polyline fill="none" vector-effect="none" points="472.6,428.16 472.6,422 " />
<polyline fill="none" vector-effect="none" points="595.8,428.16 595.8,422 " />
<polyline fill="none" vector-effect="none" points="719,428.16 719,422 " />
</g>

<g fill="#1f1f1f" fill-opacity="1" stroke="#1f1f1f" stroke-opacity="1" stroke-width="1" stroke-linecap="square" stroke-linejoin="bevel" transform="matrix(0.5,0,0,0.5,35.0118,222.171)"
font-family="Arial" font-size="20" font-weight="400" font-style="normal"
>
<text fill="#1f1f1f" fill-opacity="1" stroke="none" xml:space="preserve" x="0" y="0.09375" font-family="Arial" font-size="20" font-weight="400" font-style="normal"
 >0</text>
</g>

<g fill="#1f1f1f" fill-opacity="1" stroke="#1f1f1f" stroke-opacity="1" stroke-width="1" stroke-linecap="square" stroke-linejoin="bevel" transform="matrix(0.5,0,0,0.5,96.6118,222.171)"
font-family="Arial" font-size="20" font-weight="400" font-style="normal"
>
<text fill="#1f1f1f" fill-opacity="1" stroke="none" xml:space="preserve" x="0" y="0.09375" font-family="Arial" font-size="20" font-weight="400" font-style="normal"
 >5</text>
</g>

<g fill="#1f1f1f" fill-opacity="1" stroke="#1f1f1f" stroke-opacity="1" stroke-width="1" stroke-linecap="square" stroke-linejoin="bevel" transform="matrix(0.5,0,0,0.5,155.462,222.171)"
font-family="Arial" font-size="20" font-weight="400" font-style="normal"
>
<text fill="#1f1f1f" fill-opacity="1" stroke="none" xml:space="preserve" x="0" y="0.09375" font-family="Arial" font-size="20" font-weight="400" font-style="normal"
 >10</text>
</g>

<g fill="#1f1f1f" fill-opacity="1" stroke="#1f1f1f" stroke-opacity="1" stroke-width="1" stroke-linecap="square" stroke-linejoin="bevel" transform="matrix(0.5,0,0,0.5,217.062,222.171)"
font-family="Arial" font-size="20" font-weight="400" font-style="normal"
>
<text fill="#1f1f1f" fill-opacity="1" stroke="none" xml:space="preserve" x="0" y="0.09375" font-family="Arial" font-size="20" font-weight="400" font-style="normal"
 >15</text>
</g>

<g fill="#1f1f1f" fill-opacity="1" stroke="#1f1f1f" stroke-opacity="1" stroke-width="1" stroke-linecap="square" stroke-linejoin="bevel" transform="matrix(0.5,0,0,0.5,278.662,222.171)"
font-family="Arial" font-size="20" font-weight="400" font-style="normal"
>
<text fill="#1f1f1f" fill-opacity="1" stroke="none" xml:space="preserve" x="0" y="0.09375" font-family="Arial" font-size="20" font-weight="400" font-style="normal"
 >20</text>
</g>

<g fill="#1f1f1f" fill-opacity="1" stroke="#1f1f1f" stroke-opacity="1" stroke-width="1" stroke-linecap="square" stroke-linejoin="bevel" transform="matrix(0.5,0,0,0.5,340.262,222.171)"
font-family="Arial" font-size="20" font-weight="400" font-style="normal"
>
<text fill="#1f1f1f" fill-opacity="1" stroke="none" xml:space="preserve" x="0" y="0.09375" font-family="Arial" font-size="20" font-weight="400" font-style="normal"
 >25</text>
</g>

<g fill="#1f1f1f" fill-opacity="1" stroke="#1f1f1f" stroke-opacity="1" stroke-width="1" stroke-linecap="square" stroke-linejoin="bevel" transform="matrix(0,-0.5,0.5,0,9.5,135.25)"
font-family="Arial" font-size="22" font-weight="400" font-style="normal"
>
<text fill="#1f1f1f" fill-opacity="1" stroke="none" xml:space="preserve" x="0" y="-0.09375" font-family="Arial" font-size="22" font-weight="400" font-style="normal"
 >Response</text>
</g>

<g fill="#1f1f1f" fill-opacity="1" stroke="#1f1f1f" stroke-opacity="1" stroke-width="2.8" stroke-linecap="square" stroke-linejoin="round" transform="matrix(0.5,0,0,0.5,-13.7382,-3.99999)"
font-family="Arial" font-size="22" font-weight="400" font-style="normal"
>
<polyline fill="none" vector-effect="none" points="103,422 103,36 " />
<polyline fill="none" vector-effect="none" points="96.84,422 103,422 " />
<polyline fill="none" vector-effect="none" points="96.84,357.667 103,357.667 " />
<polyline fill="none" vector-effect="none" points="96.84,293.333 103,293.333 " />
<polyline fill="none" vector-effect="none" points="96.84,229 103,229 " />
<polyline fill="none" vector-effect="none" points="96.84,164.667 103,164.667 " />
<polyline fill="none" vector-effect="none" points="96.84,100.333 103,100.333 " />
<polyline fill="none" vector-effect="none" points="96.84,36 103,36 " />
</g>

<g fill="#1f1f1f" fill-opacity="1" stroke="#1f1f1f" stroke-opacity="1" stroke-width="1" stroke-linecap="square" stroke-linejoin="bevel" transform="matrix(0.5,0,0,0.5,14.5909,210.5)"
font-family="Arial" font-size="20" font-weight="400" font-style="normal"
>
<text fill="#1f1f1f" fill-opacity="1" stroke="none" xml:space="preserve" x="0" y="0.09375" font-family="Arial" font-size="20" font-weight="400" font-style="normal"
 >-0.5</text>
</g>

<g fill="#1f1f1f" fill-opacity="1" stroke="#1f1f1f" stroke-opacity="1" stroke-width="1" stroke-linecap="square" stroke-linejoin="bevel" transform="matrix(0.5,0,0,0.5,26.0909,178.333)"
font-family="Arial" font-size="20" font-weight="400" font-style="normal"
>
<text fill="#1f1f1f" fill-opacity="1" stroke="none" xml:space="preserve" x="0" y="0.09375" font-family="Arial" font-size="20" font-weight="400" font-style="normal"
 >0</text>
</g>

<g fill="#1f1f1f" fill-opacity="1" stroke="#1f1f1f" stroke-opacity="1" stroke-width="1" stroke-linecap="square" stroke-linejoin="bevel" transform="matrix(0.5,0,0,0.5,17.5909,146.167)"
font-family="Arial" font-size="20" font-weight="400" font-style="normal"
>
<text fill="#1f1f1f" fill-opacity="1" stroke="none" xml:space="preserve" x="0" y="0.09375" font-family="Arial" font-size="20" font-weight="400" font-style="normal"
 >0.5</text>
</g>

<g fill="#1f1f1f" fill-opacity="1" stroke="#1f1f1f" stroke-opacity="1" stroke-width="1" stroke-linecap="square" stroke-linejoin="bevel" transform="matrix(0.5,0,0,0.5,26.0909,114)"
font-family="Arial" font-size="20" font-weight="400" font-style="normal"
>
<text fill="#1f1f1f" fill-opacity="1" stroke="none" xml:space="preserve" x="0" y="0.09375" font-family="Arial" font-size="20" font-weight="400" font-style="normal"
 >1</text>
</g>

<g fill="#1f1f1f" fill-opacity="1" stroke="#1f1f1f" stroke-opacity="1" stroke-width="1" stroke-linecap="square" stroke-linejoin="bevel" transform="matrix(0.5,0,0,0.5,17.5909,81.8333)"
font-family="Arial" font-size="20" font-weight="400" font-style="normal"
>
<text fill="#1f1f1f" fill-opacity="1" stroke="none" xml:space="preserve" x="0" y="0.09375" font-family="Arial" font-size="20" font-weight="400" font-style="normal"
 >1.5</text>
</g>

<g fill="#1f1f1f" fill-opacity="1" stroke="#1f1f1f" stroke-opacity="1" stroke-width="1" stroke-linecap="square" stroke-linejoin="bevel" transform="matrix(0.5,0,0,0.5,26.0909,49.6667)"
font-family="Arial" font-size="20" font-weight="400" font-style="normal"
>
<text fill="#1f1f1f" fill-opacity="1" stroke="none" xml:space="preserve" x="0" y="0.09375" font-family="Arial" font-size="20" font-weight="400" font-style="normal"
 >2</text>
</g>

<g fill="#1f1f1f" fill-opacity="1" stroke="#1f1f1f" stroke-opacity="1" stroke-width="1" stroke-linecap="square" stroke-linejoin="bevel" transform="matrix(0.5,0,0,0.5,17.5909,17.5)"
font-family="Arial" font-size="20" font-weight="400" font-style="normal"
>
<text fill="#1f1f1f" fill-opacity="1" stroke="none" xml:space="preserve" x="0" y="0.09375" font-family="Arial" font-size="20" font-weight="400" font-style="normal"
 >2.5</text>
</g>

<g fill="#0d528a" fill-opacity="0.160784" stroke="none" transform="matrix(5e-05,0,0,5e-05,-13.7382,-3.99999)"
font-family="Arial" font-size="20" font-weight="400" font-style="normal"
>
<path vector-effect="none" fill-rule="evenodd" d="M1.25015e+06,577891 L1.25015e+06,744013 L1.85169e+06,744013 L1.85169e+06,577891 L1.25015e+06,577891"/>
</g>

<g fill="#0d528a" fill-opacity="0.321569" stroke="none" transform="matrix(5e-05,0,0,5e-05,-13.7382,-3.99999)"
font-family="Arial" font-size="20" font-weight="400" font-style="normal"
>
<path vector-effect="none" fill-rule="evenodd" d="M1.25015e+06,806938 L1.25015e+06,973061 L1.85169e+06,973061 L1.85169e+06,806938 L1.25015e+06,806938"/>
</g>

<g fill="#093b63" fill-opacity="1" stroke="#093b63" stroke-opacity="1" stroke-width="3.6" stroke-linecap="butt" stroke-linejoin="round" transform="matrix(0.5,0,0,0.5,-13.7382,-3.99999)"
font-family="Arial" font-size="20" font-weight="400" font-style="normal"
>
<polyline fill="none" vector-effect="none" points="125.015,111.905 185.169,111.905 " />
</g>

<g fill="#1f1f1f" fill-opacity="1" stroke="#1f1f1f" stroke-opacity="1" stroke-width="1" stroke-linecap="square" stroke-linejoin="bevel" transform="matrix(0.5,0,0,0.5,81.102,32.5476)"
font-family="Arial" font-size="20" font-weight="400" font-style="normal"
>
<text fill="#1f1f1f" fill-opacity="1" stroke="none" xml:space="preserve" x="0" y="0.09375" font-family="Arial" font-size="20" font-weight="400" font-style="normal"
 >10-90% band</text>
</g>

<g fill="#1f1f1f" fill-opacity="1" stroke="#1f1f1f" stroke-opacity="1" stroke-width="1" stroke-linecap="square" stroke-linejoin="bevel" transform="matrix(0.5,0,0,0.5,81.102,44)"
font-family="Arial" font-size="20" font-weight="400" font-style="normal"
>
<text fill="#1f1f1f" fill-opacity="1" stroke="none" xml:space="preserve" x="0" y="0.09375" font-family="Arial" font-size="20" font-weight="400" font-style="normal"
 >25-75% band</text>
</g>

<g fill="#1f1f1f" fill-opacity="1" stroke="#1f1f1f" stroke-opacity="1" stroke-width="1" stroke-linecap="square" stroke-linejoin="bevel" transform="matrix(0.5,0,0,0.5,81.102,55.4524)"
font-family="Arial" font-size="20" font-weight="400" font-style="normal"
>
<text fill="#1f1f1f" fill-opacity="1" stroke="none" xml:space="preserve" x="0" y="0.09375" font-family="Arial" font-size="20" font-weight="400" font-style="normal"
 >Median</text>
</g>
</g>
</svg>
