<?xml version="1.0" encoding="UTF-8" standalone="no"?>
<svg width="118.533mm" height="83.9611mm"
 viewBox="0 0 336 238"
 xmlns="http://www.w3.org/2000/svg" xmlns:xlink="http://www.w3.org/1999/xlink"  version="1.2" baseProfile="tiny">
<title>Qt SVG Document</title>
<desc>Clean-room gallery output</desc>
<defs>
</defs>
<g fill="none" stroke="black" stroke-width="1" fill-rule="evenodd" stroke-linecap="square" stroke-linejoin="bevel" >

<g fill="#ffffff" fill-opacity="1" stroke="none" transform="matrix(0.5,0,0,0.5,-12.3532,-3.99999)"
font-family=".AppleSystemUIFont" font-size="13" font-weight="400" font-style="normal"
>
<path vector-effect="none" fill-rule="evenodd" d="M23,6 L696,6 L696,483 L23,483 L23,6"/>
</g>

<g fill="#ffffff" fill-opacity="1" stroke="none" transform="matrix(5e-05,0,0,5e-05,-12.3532,-3.99999)"
font-family=".AppleSystemUIFont" font-size="13" font-weight="400" font-style="normal"
>
<path vector-effect="none" fill-rule="evenodd" d="M990000,360000 L990000,3.73e+06 L6.92e+06,3.73e+06 L6.92e+06,360000 L990000,360000"/>
</g>

<g fill="#1f1f1f" fill-opacity="1" stroke="#1f1f1f" stroke-opacity="1" stroke-width="1" stroke-linecap="square" stroke-linejoin="bevel" transform="matrix(0.5,0,0,0.5,142.897,10)"
font-family="Arial" font-size="24" font-weight="700" font-style="normal"
>
<text fill="#1f1f1f" fill-opacity="1" stroke="none" xml:space="preserve" x="0" y="-0.28125" font-family="Arial" font-size="24" font-weight="700" font-style="normal"
 >Waterfall Chart</text>
</g>

<g fill="#052e54" fill-opacity="1" stroke="none" transform="matrix(5e-05,0,0,5e-05,-12.3532,-3.99999)"
font-family="Arial" font-size="24" font-weight="700" font-style="normal"
>
<path vector-effect="none" fill-rule="evenodd" d="M1.26619e+06,3.73e+06 L1.76984e+06,3.73e+06 L1.76984e+06,1.54169e+06 L1.26619e+06,1.54169e+06 L1.26619e+06,3.73e+06"/>
</g>

<g fill="#f29e1f" fill-opacity="1" stroke="none" transform="matrix(5e-05,0,0,5e-05,-12.3532,-3.99999)"
font-family="Arial" font-size="24" font-weight="700" font-style="normal"
>
<path vector-effect="none" fill-rule="evenodd" d="M2.07852e+06,1.54169e+06 L2.58216e+06,1.54169e+06 L2.58216e+06,1.14779e+06 L2.07852e+06,1.14779e+06 L2.07852e+06,1.54169e+06"/>
</g>

<g fill="#a6a6a6" fill-opacity="1" stroke="#a6a6a6" stroke-opacity="1" stroke-width="1.6" stroke-linecap="butt" stroke-linejoin="round" transform="matrix(0.5,0,0,0.5,-12.3532,-3.99999)"
font-family="Arial" font-size="24" font-weight="700" font-style="normal"
>
<polyline fill="none" vector-effect="none" points="176.984,154.169 207.852,154.169 " />
</g>

<g fill="#f29e1f" fill-opacity="1" stroke="none" transform="matrix(5e-05,0,0,5e-05,-12.3532,-3.99999)"
font-family="Arial" font-size="24" font-weight="700" font-style="normal"
>
<path vector-effect="none" fill-rule="evenodd" d="M2.89085e+06,1.14779e+06 L3.39449e+06,1.14779e+06 L3.39449e+06,885194 L2.89085e+06,885194 L2.89085e+06,1.14779e+06"/>
</g>

<g fill="#a6a6a6" fill-opacity="1" stroke="#a6a6a6" stroke-opacity="1" stroke-width="1.6" stroke-linecap="butt" stroke-linejoin="round" transform="matrix(0.5,0,0,0.5,-12.3532,-3.99999)"
font-family="Arial" font-size="24" font-weight="700" font-style="normal"
>
<polyline fill="none" vector-effect="none" points="258.216,114.779 289.085,114.779 " />
</g>

<g fill="#00806b" fill-opacity="1" stroke="none" transform="matrix(5e-05,0,0,5e-05,-12.3532,-3.99999)"
font-family="Arial" font-size="24" font-weight="700" font-style="normal"
>
<path vector-effect="none" fill-rule="evenodd" d="M3.70318e+06,1.08214e+06 L4.20682e+06,1.08214e+06 L4.20682e+06,885194 L3.70318e+06,885194 L3.70318e+06,1.08214e+06"/>
</g>

<g fill="#a6a6a6" fill-opacity="1" stroke="#a6a6a6" stroke-opacity="1" stroke-width="1.6" stroke-linecap="butt" stroke-linejoin="round" transform="matrix(0.5,0,0,0.5,-12.3532,-3.99999)"
font-family="Arial" font-size="24" font-weight="700" font-style="normal"
>
<polyline fill="none" vector-effect="none" points="339.449,88.5195 370.318,88.5195 " />
</g>

<g fill="#f29e1f" fill-opacity="1" stroke="none" transform="matrix(5e-05,0,0,5e-05,-12.3532,-3.99999)"
font-family="Arial" font-size="24" font-weight="700" font-style="normal"
>
<path vector-effect="none" fill-rule="evenodd" d="M4.51551e+06,1.08214e+06 L5.01915e+06,1.08214e+06 L5.01915e+06,753896 L4.51551e+06,753896 L4.51551e+06,1.08214e+06"/>
</g>

<g fill="#a6a6a6" fill-opacity="1" stroke="#a6a6a6" stroke-opacity="1" stroke-width="1.6" stroke-linecap="butt" stroke-linejoin="round" transform="matrix(0.5,0,0,0.5,-12.3532,-3.99999)"
font-family="Arial" font-size="24" font-weight="700" font-style="normal"
>
<polyline fill="none" vector-effect="none" points="420.682,108.214 451.551,108.214 " />
</g>

<g fill="#00806b" fill-opacity="1" stroke="none" transform="matrix(5e-05,0,0,5e-05,-12.3532,-3.99999)"
font-family="Arial" font-size="24" font-weight="700" font-style="normal"
>
<path vector-effect="none" fill-rule="evenodd" d="M5.32784e+06,885194 L5.83148e+06,885194 L5.83148e+06,753896 L5.32784e+06,753896 L5.32784e+06,885194"/>
</g>

<g fill="#a6a6a6" fill-opacity="1" stroke="#a6a6a6" stroke-opacity="1" stroke-width="1.6" stroke-linecap="butt" stroke-linejoin="round" transform="matrix(0.5,0,0,0.5,-12.3532,-3.99999)"
font-family="Arial" font-size="24" font-weight="700" font-style="normal"
>
<polyline fill="none" vector-effect="none" points="501.915,75.3896 532.784,75.3896 " />
</g>

<g fill="#052e54" fill-opacity="1" stroke="none" transform="matrix(5e-05,0,0,5e-05,-12.3532,-3.99999)"
font-family="Arial" font-size="24" font-weight="700" font-style="normal"
>
<path vector-effect="none" fill-rule="evenodd" d="M6.14016e+06,3.73e+06 L6.64381e+06,3.73e+06 L6.64381e+06,885194 L6.14016e+06,885194 L6.14016e+06,3.73e+06"/>
</g>

<g fill="#1f1f1f" fill-opacity="1" stroke="#1f1f1f" stroke-opacity="1" stroke-width="1" stroke-linecap="square" stroke-linejoin="bevel" transform="matrix(0.5,0,0,0.5,56.0475,67.802)"
font-family="Arial" font-size="18" font-weight="400" font-style="normal"
>
<text fill="#1f1f1f" fill-opacity="1" stroke="none" xml:space="preserve" x="0" y="0.28125" font-family="Arial" font-size="18" font-weight="400" font-style="normal"
 >100</text>
</g>

<g fill="#1f1f1f" fill-opacity="1" stroke="#1f1f1f" stroke-opacity="1" stroke-width="1" stroke-linecap="square" stroke-linejoin="bevel" transform="matrix(0.5,0,0,0.5,96.4139,48.1071)"
font-family="Arial" font-size="18" font-weight="400" font-style="normal"
>
<text fill="#1f1f1f" fill-opacity="1" stroke="none" xml:space="preserve" x="0" y="0.28125" font-family="Arial" font-size="18" font-weight="400" font-style="normal"
 >+18</text>
</g>

<g fill="#1f1f1f" fill-opacity="1" stroke="#1f1f1f" stroke-opacity="1" stroke-width="1" stroke-linecap="square" stroke-linejoin="bevel" transform="matrix(0.5,0,0,0.5,137.03,34.9773)"
font-family="Arial" font-size="18" font-weight="400" font-style="normal"
>
<text fill="#1f1f1f" fill-opacity="1" stroke="none" xml:space="preserve" x="0" y="0.28125" font-family="Arial" font-size="18" font-weight="400" font-style="normal"
 >+12</text>
</g>

<g fill="#1f1f1f" fill-opacity="1" stroke="#1f1f1f" stroke-opacity="1" stroke-width="1" stroke-linecap="square" stroke-linejoin="bevel" transform="matrix(0.5,0,0,0.5,181.397,34.9773)"
font-family="Arial" font-size="18" font-weight="400" font-style="normal"
>
<text fill="#1f1f1f" fill-opacity="1" stroke="none" xml:space="preserve" x="0" y="0.28125" font-family="Arial" font-size="18" font-weight="400" font-style="normal"
 >-9</text>
</g>

<g fill="#1f1f1f" fill-opacity="1" stroke="#1f1f1f" stroke-opacity="1" stroke-width="1" stroke-linecap="square" stroke-linejoin="bevel" transform="matrix(0.5,0,0,0.5,218.263,28.4123)"
font-family="Arial" font-size="18" font-weight="400" font-style="normal"
>
<text fill="#1f1f1f" fill-opacity="1" stroke="none" xml:space="preserve" x="0" y="0.28125" font-family="Arial" font-size="18" font-weight="400" font-style="normal"
 >+15</text>
</g>

<g fill="#1f1f1f" fill-opacity="1" stroke="#1f1f1f" stroke-opacity="1" stroke-width="1" stroke-linecap="square" stroke-linejoin="bevel" transform="matrix(0.5,0,0,0.5,262.63,28.4123)"
font-family="Arial" font-size="18" font-weight="400" font-style="normal"
>
<text fill="#1f1f1f" fill-opacity="1" stroke="none" xml:space="preserve" x="0" y="0.28125" font-family="Arial" font-size="18" font-weight="400" font-style="normal"
 >-6</text>
</g>

<g fill="#1f1f1f" fill-opacity="1" stroke="#1f1f1f" stroke-opacity="1" stroke-width="1" stroke-linecap="square" stroke-linejoin="bevel" transform="matrix(0.5,0,0,0.5,299.746,34.9773)"
font-family="Arial" font-size="18" font-weight="400" font-style="normal"
>
<text fill="#1f1f1f" fill-opacity="1" stroke="none" xml:space="preserve" x="0" y="0.28125" font-family="Arial" font-size="18" font-weight="400" font-style="normal"
 >130</text>
</g>

<g fill="#dbdbdb" fill-opacity="0.25098" stroke="#dbdbdb" stroke-opacity="0.25098" stroke-width="2.8" stroke-linecap="butt" stroke-linejoin="round" transform="matrix(0.5,0,0,0.5,-12.3532,-3.99999)"
font-family="Arial" font-size="18" font-weight="400" font-style="normal"
>
<polyline fill="none" vector-effect="none" points="151.801,36 151.801,373 " />
<polyline fill="none" vector-effect="none" points="233.034,36 233.034,373 " />
<polyline fill="none" vector-effect="none" points="314.267,36 314.267,373 " />
<polyline fill="none" vector-effect="none" points="395.5,36 395.5,373 " />
<polyline fill="none" vector-effect="none" points="476.733,36 476.733,373 " />
<polyline fill="none" vector-effect="none" points="557.966,36 557.966,373 " />
<polyline fill="none" vector-effect="none" points="639.199,36 639.199,373 " />
<polyline fill="none" vector-effect="none" points="99,373 692,373 " />
<polyline fill="none" vector-effect="none" points="99,263.584 692,263.584 " />
<polyline fill="none" vector-effect="none" points="99,154.169 692,154.169 " />
<polyline fill="none" vector-effect="none" points="99,44.7532 692,44.7532 " />
</g>

<g fill="#1f1f1f" fill-opacity="1" stroke="#1f1f1f" stroke-opacity="1" stroke-width="1" stroke-linecap="square" stroke-linejoin="bevel" transform="matrix(0.5,0,0,0.5,143.897,234.378)"
font-family="Arial" font-size="22" font-weight="400" font-style="normal"
>
<text fill="#1f1f1f" fill-opacity="1" stroke="none" xml:space="preserve" x="0" y="-0.09375" font-family="Arial" font-size="22" font-weight="400" font-style="normal"
 >Contribution step</text>
</g>

<g fill="#1f1f1f" fill-opacity="1" stroke="#1f1f1f" stroke-opacity="1" stroke-width="2.8" stroke-linecap="square" stroke-linejoin="round" transform="matrix(0.5,0,0,0.5,-12.3532,-3.99999)"
font-family="Arial" font-size="22" font-weight="400" font-style="normal"
>
<polyline fill="none" vector-effect="none" points="99,373 692,373 " />
<polyline fill="none" vector-effect="none" points="151.801,378.93 151.801,373 " />
<polyline fill="none" vector-effect="none" points="233.034,378.93 233.034,373 " />
<polyline fill="none" vector-effect="none" points="314.267,378.93 314.267,373 " />
<polyline fill="none" vector-effect="none" points="395.5,378.93 395.5,373 " />
<polyline fill="none" vector-effect="none" points="476.733,378.93 476.733,373 " />
<polyline fill="none" vector-effect="none" points="557.966,378.93 557.966,373 " />
<polyline fill="none" vector-effect="none" points="639.199,378.93 639.199,373 " />
</g>

<g fill="#1f1f1f" fill-opacity="1" stroke="#1f1f1f" stroke-opacity="1" stroke-width="1" stroke-linecap="square" stroke-linejoin="bevel" transform="matrix(0.433013,-0.25,0.25,0.433013,49.861,206.85)"
font-family="Arial" font-size="20" font-weight="400" font-style="normal"
>
<text fill="#1f1f1f" fill-opacity="1" stroke="none" xml:space="preserve" x="0" y="0.09375" font-family="Arial" font-size="20" font-weight="400" font-style="normal"
 >Start</text>
</g>

<g fill="#1f1f1f" fill-opacity="1" stroke="#1f1f1f" stroke-opacity="1" stroke-width="1" stroke-linecap="square" stroke-linejoin="bevel" transform="matrix(0.433013,-0.25,0.25,0.433013,71.8579,217.6)"
font-family="Arial" font-size="20" font-weight="400" font-style="normal"
>
<text fill="#1f1f1f" fill-opacity="1" stroke="none" xml:space="preserve" x="0" y="0.09375" font-family="Arial" font-size="20" font-weight="400" font-style="normal"
 >Efficiency</text>
</g>

<g fill="#1f1f1f" fill-opacity="1" stroke="#1f1f1f" stroke-opacity="1" stroke-width="1" stroke-linecap="square" stroke-linejoin="bevel" transform="matrix(0.433013,-0.25,0.25,0.433013,118.969,213.85)"
font-family="Arial" font-size="20" font-weight="400" font-style="normal"
>
<text fill="#1f1f1f" fill-opacity="1" stroke="none" xml:space="preserve" x="0" y="0.09375" font-family="Arial" font-size="20" font-weight="400" font-style="normal"
 >Storage</text>
</g>

<g fill="#1f1f1f" fill-opacity="1" stroke="#1f1f1f" stroke-opacity="1" stroke-width="1" stroke-linecap="square" stroke-linejoin="bevel" transform="matrix(0.433013,-0.25,0.25,0.433013,145.73,221.85)"
font-family="Arial" font-size="20" font-weight="400" font-style="normal"
>
<text fill="#1f1f1f" fill-opacity="1" stroke="none" xml:space="preserve" x="0" y="0.09375" font-family="Arial" font-size="20" font-weight="400" font-style="normal"
 >Curtailment</text>
</g>

<g fill="#1f1f1f" fill-opacity="1" stroke="#1f1f1f" stroke-opacity="1" stroke-width="1" stroke-linecap="square" stroke-linejoin="bevel" transform="matrix(0.433013,-0.25,0.25,0.433013,196.738,215.85)"
font-family="Arial" font-size="20" font-weight="400" font-style="normal"
>
<text fill="#1f1f1f" fill-opacity="1" stroke="none" xml:space="preserve" x="0" y="0.09375" font-family="Arial" font-size="20" font-weight="400" font-style="normal"
 >Forecast</text>
</g>

<g fill="#1f1f1f" fill-opacity="1" stroke="#1f1f1f" stroke-opacity="1" stroke-width="1" stroke-linecap="square" stroke-linejoin="bevel" transform="matrix(0.433013,-0.25,0.25,0.433013,243.417,212.35)"
font-family="Arial" font-size="20" font-weight="400" font-style="normal"
>
<text fill="#1f1f1f" fill-opacity="1" stroke="none" xml:space="preserve" x="0" y="0.09375" font-family="Arial" font-size="20" font-weight="400" font-style="normal"
 >Control</text>
</g>

<g fill="#1f1f1f" fill-opacity="1" stroke="#1f1f1f" stroke-opacity="1" stroke-width="1" stroke-linecap="square" stroke-linejoin="bevel" transform="matrix(0.433013,-0.25,0.25,0.433013,293.127,207.1)"
font-family="Arial" font-size="20" font-weight="400" font-style="normal"
>
<text fill="#1f1f1f" fill-opacity="1" stroke="none" xml:space="preserve" x="0" y="0.09375" font-family="Arial" font-size="20" font-weight="400" font-style="normal"
 >Final</text>
</g>

<g fill="#1f1f1f" fill-opacity="1" stroke="#1f1f1f" stroke-opacity="1" stroke-width="1" stroke-linecap="square" stroke-linejoin="bevel" transform="matrix(0,-0.5,0.5,0,9.5,140.5)"
font-family="Arial" font-size="22" font-weight="400" font-style="normal"
>
<text fill="#1f1f1f" fill-opacity="1" stroke="none" xml:space="preserve" x="0" y="-0.09375" font-family="Arial" font-size="22" font-weight="400" font-style="normal"
 >Cumulative value</text>
</g>

<g fill="#1f1f1f" fill-opacity="1" stroke="#1f1f1f" stroke-opacity="1" stroke-width="2.8" stroke-linecap="square" stroke-linejoin="round" transform="matrix(0.5,0,0,0.5,-12.3532,-3.99999)"
font-family="Arial" font-size="22" font-weight="400" font-style="normal"
>
<polyline fill="none" vector-effect="none" points="99,373 99,36 " />
<polyline fill="none" vector-effect="none" points="93.07,373 99,373 " />
<polyline fill="none" vector-effect="none" points="93.07,263.584 99,263.584 " />
<polyline fill="none" vector-effect="none" points="93.07,154.169 99,154.169 " />
<polyline fill="none" vector-effect="none" points="93.07,44.7532 99,44.7532 " />
</g>

<g fill="#1f1f1f" fill-opacity="1" stroke="#1f1f1f" stroke-opacity="1" stroke-width="1" stroke-linecap="square" stroke-linejoin="bevel" transform="matrix(0.5,0,0,0.5,25.5909,186)"
font-family="Arial" font-size="20" font-weight="400" font-style="normal"
>
<text fill="#1f1f1f" fill-opacity="1" stroke="none" xml:space="preserve" x="0" y="0.09375" font-family="Arial" font-size="20" font-weight="400" font-style="normal"
 >0</text>
</g>

<g fill="#1f1f1f" fill-opacity="1" stroke="#1f1f1f" stroke-opacity="1" stroke-width="1" stroke-linecap="square" stroke-linejoin="bevel" transform="matrix(0.5,0,0,0.5,20.0909,131.292)"
font-family="Arial" font-size="20" font-weight="400" font-style="normal"
>
<text fill="#1f1f1f" fill-opacity="1" stroke="none" xml:space="preserve" x="0" y="0.09375" font-family="Arial" font-size="20" font-weight="400" font-style="normal"
 >50</text>
</g>

<g fill="#1f1f1f" fill-opacity="1" stroke="#1f1f1f" stroke-opacity="1" stroke-width="1" stroke-linecap="square" stroke-linejoin="bevel" transform="matrix(0.5,0,0,0.5,14.5909,76.5844)"
font-family="Arial" font-size="20" font-weight="400" font-style="normal"
>
<text fill="#1f1f1f" fill-opacity="1" stroke="none" xml:space="preserve" x="0" y="0.09375" font-family="Arial" font-size="20" font-weight="400" font-style="normal"
 >100</text>
</g>

<g fill="#1f1f1f" fill-opacity="1" stroke="#1f1f1f" stroke-opacity="1" stroke-width="1" stroke-linecap="square" stroke-linejoin="bevel" transform="matrix(0.5,0,0,0.5,14.5909,21.8766)"
font-family="Arial" font-size="20" font-weight="400" font-style="normal"
>
<text fill="#1f1f1f" fill-opacity="1" stroke="none" xml:space="preserve" x="0" y="0.09375" font-family="Arial" font-size="20" font-weight="400" font-style="normal"
 >150</text>
</g>
</g>
</svg>
